<svg xmlns="http://www.w3.org/2000/svg" viewBox="0 0 1668.3 1300"><path d="M581.7,668.7c-52.5-10.7-107.2-30.9-146.8-46.9-176.3-71.4-323.7,25-296.8-173.6a273.2,273.2,0,0,1,5.2-27.2c25.6-101.6,110.4-150.1,192.6-170h.7A419.3,419.3,0,0,1,446,239.5c55,1.6,112.1,28.7,159.9,67.9,41.4,33.9,75.7,77,95.6,120.3C811.6,667.9,702.3,693.3,581.7,668.7Z" fill="#6d89cf"/><path d="M581.7,668.7c-52.5-10.7-107.2-30.9-146.8-46.9-176.3-71.4-323.7,25-296.8-173.6a273.2,273.2,0,0,1,5.2-27.2c49.2-10.8,138.5-20.4,185.4,36.7,67,81.6,65.6,130.1,152.9,135.4C550.9,597.3,577.3,638.7,581.7,668.7Z" fill="#748fd1"/><path d="M1667.3,864.6c-.8,15.2-2.3,30.2-4.4,44.9a544.8,544.8,0,0,1-35.4,131l-4.2,10a538.6,538.6,0,0,1-55.9,99.2c-7.2,10.2-14.7,19.9-22.4,29.2-30.3,36.7-63.5,66.2-96.2,87.3-26.2,16.9-52,28.4-75.9,33.8H50.4C-125.4,823.6,197.6,621.2,420.1,666.9c72,14.7,143.7,39,207.1,74.8a57.1,57.1,0,0,0,7,3.5l1.1.4,1,.5c80.4,31.4,180-105.8,260.6-185.4,20.6-20.3,40.7-39.1,60.5-56.4h.1c7.6-6.8,15.3-13.3,22.8-19.5,47.7-39.6,92.9-70.2,135.5-93.1q7.5-4.1,15-7.8c13.8-6.9,27.3-13,40.6-18.3,55.4-22.2,106.2-30.6,152.3-28.2l7.2.5,7.2.7c64.1,6.7,118.8,34.9,164.2,76.5,68.5,62.8,115.9,156.2,142.4,252.9,5.3,19.2,9.8,38.5,13.4,57.7a593.8,593.8,0,0,1,9.5,79.7l.3,6.6c.1,2.6.1,5.2.2,7.8v1.4C1668.4,835.9,1668.2,850.4,1667.3,864.6Z" fill="#0b0754"/><path d="M1330.9,337.9V883.1l-17.1,21.8-281.6,158.3-164,90L208.4,792.8,420.1,666.9c72.2,13.6,143.7,39,207.1,74.8a57.1,57.1,0,0,0,7,3.5l1.1.4,1,.5C716.5,777.2,813.1,637,896.9,560.7l7.8-7.1,2.3-2.2,4.3-3.9,4.1-3.9,4.2-3.9,4.2-3.9,8.4-7.9,2.6-2.4,5.1-4.8.8-.7,6-5.7,10.7-10h.1c7.6-6.8,15.3-13.3,22.8-19.5,47.7-39.6,92.9-70.2,135.5-93.1q7.5-4.1,15-7.8c71.5-35.8,135.8-49.5,192.9-46.5Z" fill="#3662c1"/><path d="M1323.7,337.4c-46.1-2.4-96.9,6-152.3,28.2-13.2,5.3-26.6,11.3-40.2,18.1l-.4.2-3.9,2-11.1,5.8c-42.6,22.9-87.8,53.5-135.5,93.1-7.5,6.2-15.2,12.7-22.8,19.5h-.1l-10.7,10-1.7,1.6-4.3,4.1-.8.7-5.1,4.8-2.6,2.4-8.4,7.9-4.2,3.9-4.2,3.9-4.1,3.9-6.6,6.1V890.5h426.2V337.9Z" fill="#4250cf"/><path d="M914.4,1149.2l23.2,50.6h0l44.6,97.5a4.8,4.8,0,0,0,4.2,2.7h.4a5,5,0,0,0,4.8-6.3l-35.5-126.8-5.1-18.5Z" fill="#426bc5"/><path d="M937.6,1199.8c-2.2-23,18.5-32.9,18.5-32.9l-5.1-18.5-36.6.8Z" fill="#3a49cd"/><path d="M1153.8,1149.2l23.1,50.6h0l44.7,97.5a4.6,4.6,0,0,0,4.2,2.7h.4a4.9,4.9,0,0,0,4.7-6.3l-35.4-126.8-5.2-18.5Z" fill="#426bc5"/><path d="M1176.9,1199.8c-2.2-23,18.6-32.9,18.6-32.9l-5.2-18.5-36.5.8Z" fill="#3a49cd"/><rect x="154.6" y="1049.5" width="1076.5" height="103.66" rx="9.6" fill="#426bc5"/><path d="M202.5,1148.4l-5.2,18.5-35.4,126.8a4.9,4.9,0,0,0,4.7,6.3h.4a4.6,4.6,0,0,0,4.2-2.7l44.7-97.5h0l23.1-50.6Z" fill="#3a49cd"/><path d="M391.1,1148.4l-5.2,18.5-35.4,126.8a4.9,4.9,0,0,0,4.7,6.3h.4a4.8,4.8,0,0,0,4.2-2.7l44.6-97.5h0l23.2-50.6Z" fill="#3a49cd"/><rect x="140.3" y="792.8" width="417.8" height="360.41" rx="12.9" fill="#3a49cd"/><rect x="154.7" y="792.8" width="417.8" height="308.58" rx="9.6" fill="#6d89cf"/><path d="M572.5,981.9v109.9a9.6,9.6,0,0,1-9.6,9.5H164.2a9.6,9.6,0,0,1-9.5-9.5V802.3a9.6,9.6,0,0,1,9.5-9.5h44.3C236.3,828.2,337.6,941,516.3,965.1,540,968.3,558.4,974.1,572.5,981.9Z" fill="#426bc5"/><path d="M230.6,1077.2s-73.3-5.9-75.9-7.7v-67.3c15.4-14.7,45.8-31.3,45.8-31.3Z" fill="#4250cf"/><path d="M252.7,878.9a5.6,5.6,0,1,1,5.6,5.6A5.6,5.6,0,0,1,252.7,878.9Z" fill="#4250cf"/><path d="M476,878.9a5.6,5.6,0,1,1,5.6,5.6A5.6,5.6,0,0,1,476,878.9Z" fill="#4250cf"/><path d="M252.7,984.1a5.6,5.6,0,1,1,5.6,5.6A5.6,5.6,0,0,1,252.7,984.1Z" fill="#4250cf"/><path d="M476,984.1a5.6,5.6,0,1,1,5.6,5.6A5.6,5.6,0,0,1,476,984.1Z" fill="#4250cf"/><path d="M877.9,1059.1v84.5a9.7,9.7,0,0,1-9.7,9.6H154.1a9.6,9.6,0,0,1-9.7-9.6v-84.5a9.6,9.6,0,0,1,9.7-9.6H868.2A9.7,9.7,0,0,1,877.9,1059.1Z" fill="#3a49cd"/><path d="M377.1,973s-7.2,59,0,78.6H404S396.5,983.6,377.1,973Z" fill="#010117"/><path d="M377.1,973s73.4-18.4,126-20.8c0,0,48.6,40.7,55,97.3L398,1051.6S397.1,1008.1,377.1,973Z" fill="#6d89cf"/><path d="M200.5,970.9s-14.3,50.2,20.5,78.7l83.2-.3S219.9,981.5,200.5,970.9Z" fill="#6d89cf"/><path d="M200.5,970.9s73.3-18.3,126-20.7c0,0,50.3,42.8,56.7,99.4H293.6S227.3,1035.2,200.5,970.9Z" fill="#9cb9f5"/><path d="M376.9,961.1c-21.4,4.7-32.4-4.7-41-14.5l-2.1-2.4c-8.2-9.6-47.1-42.5-67.7-18.2a36.4,36.4,0,0,0-5.3,8.5s-6.7,2.5-8.5,4.8a8.4,8.4,0,0,1,3.8-1.3c-3.6,3.1-8.2,8-10,14.1-1,3.4.1,8.8,2.6,15.2,3.2,8,8.6,17.4,15.4,26.7,14.3,19.4,34.4,37.6,51,37.2-4.4-1.6-11.3-5.4-21.5-14.3,1.4,1.1,14.7,11.4,25.9,13.8,31.6-6,85.7,30.1,92.7,38.8,0,0,15.1-34,16.1-47.6C430.3,996.2,422.3,951.1,376.9,961.1Z" fill="#9e332e"/><path d="M287.7,1041.7s-9.5-2.9-16.4-3.1-22.9,10.8-21.9,11,46.1,0,46.1,0Z" fill="#ea8888"/><path d="M317.6,1031c-.1.1,6.9,15,18.4,5.9,7.5-6,17.4-27.6,11.1-33.2-3-2.6-14.8-6.6-29.6-24.4l-1.1,1.4-19.2,23.6s6.6,6.8,12.3,13.6S318.4,1029.3,317.6,1031Z" fill="#fc9290"/><path d="M316.3,975.6s-3.3-16-10-26c-4.8-7.1-29.6-26.6-49.1-1.5a43.6,43.6,0,0,0-8.1,17.1c-1.7,8.1-1.9,22.1,25,34.1l8.5,4.6Z" fill="#9e332e"/><path d="M300.8,1015s28.9-27,11.8-44.7-24.8-33.2-44-16.7-16.2,26.6-11.9,33.9S292.9,1021.5,300.8,1015Z" fill="#fca09e"/><path d="M255.2,965.7s27.9,13.2,42.8,4.8,17-16.7,17-16.7a46.9,46.9,0,0,1-30.4-9.3S251.6,950.1,255.2,965.7Z" fill="#9e332e"/><path d="M258.8,965.5s-1.3,10.2,1.6,16.1,11.3,15.8,8.2,18.1c0,0-19.4-8.5-20.6-22.8S258.8,965.5,258.8,965.5Z" fill="#9e332e"/><path d="M287.7,1008.9a9,9,0,0,0,5.9-.1c4-1.7,4.3-8.7,3.4-10.8,0,0-6.1,3.9-6.1,6.5C290.9,1005.5,287.1,1005.9,287.7,1008.9Z" fill="#eb8d8d"/><path d="M1020.7,1114.6s-79.6-54.8-146.3-63.8a133.9,133.9,0,0,0-17.6-1.3c-31.6,0-77.5,5.1-125.4,16.2-57.3,13.3-117.4,35.4-158.9,68-76.3,59.8-241.9,83.7-241.9,83.7-89.7-82.6-56.2-153.1-53.9-165.7a12.8,12.8,0,0,1,.9-2.2c8.3-14.2,69.1-47.8,61.9-84.4-6.5-32.6,21.2-44.2,70-51,9.1-1.2,19-2.3,29.5-3.3,127.1-12.4,227.7,45.1,320.9,41.4a489.1,489.1,0,0,1,75,2.8h.1l2.1.2h.2c144.3,17.5,215.6,96.5,215.6,96.5C1055.3,1083.2,1020.7,1114.6,1020.7,1114.6Z" fill="#bed2fa"/><path d="M1609,1034c6.9.5,12.7,3.1,18.5,6.5a544.8,544.8,0,0,0,35.4-131c-14.3,20.1-34.4,46.5-42.5,47.5-13.1,1.7,27.1-66.3,27.1-66.3-25.4-2.5-90.1,28.6-90.1,28.6s4.1,80.3-9,78.7,0-71.3,0-71.3c-24.6,7.4-47.5,36-47.5,36-28.7,46.7,32.7,81.1,32.7,81.1s.8,27.9-16.4,59.8c0,0-21.6,32.9-14.6,75.3h-19.1c3.7-30.5-11.6-53.7-11.6-53.7-13-24.3-12.4-45.4-12.4-45.4s46.6-26.1,24.8-61.5c0,0-17.3-21.7-36-27.3,0,0,10,52.8,0,54s-6.8-59.6-6.8-59.6-49.1-23.6-68.4-21.8c0,0,30.5,51.6,20.5,50.4s-44.1-53.5-44.1-53.5-50.3-9.3-58.4,20.5,5,44.8,12.5,46.6,55.2,1.3,54,7.5-33.5,16.1-51.6,10.5c0,0,19.9,49.1,46,46.6s34.2-18.6,50.3-19.8,28,3.1,19.9,7.4-35.4,1.4-48.4,12.5-23.7,18,.6,22.9,67.7,1.9,76.4-16.7c4.5,2.6,11.2,15,15.8,24.6.7,1.6,1.7,3.8,3.3,6.8.6,1.4,1.1,2.6,1.5,3.4,5.3,13.4,5.6,32.9,5,45.6h-69.1v3.7h4a119.9,119.9,0,0,0,37.5,83.6c32.7-21.1,65.9-50.6,96.2-87.3h-18.6a69,69,0,0,1,10.8-17.5l1.9-2c2.1-1.9,3.6-3.4,4.6-4.4,6.5-6.3,15.4-14.2,19.7-14.9a10,10,0,0,1-.2-2.2c.1.7.1,1.4.2,2.2a19.1,19.1,0,0,0,4,9.6,538.6,538.6,0,0,0,55.9-99.2c-16.2-3.3-33.7-3-40.5-6.7C1572.1,1038.1,1587.7,1032.4,1609,1034Zm-158.2,64.4,1.1-2.3A12,12,0,0,1,1450.8,1098.4Zm94.3-30a11.4,11.4,0,0,1-1.4-3.1C1544.1,1066.3,1544.6,1067.3,1545.1,1068.4Zm-6.2,86.7a71.8,71.8,0,0,0-19.1,23.8h-8.2c-1-16.2-1.4-45.3,6.4-64.6.4-1.1,1.1-2.6,1.9-4.4a90.3,90.3,0,0,0,4.3-9.1c6.2-12.6,15-29,20.9-32.4a27.2,27.2,0,0,0,6.5,8.4c-11.2,20.9,10.3,46,10.3,46S1556.3,1139.7,1538.9,1155.1Zm41.4-65.4,8.3,1.6c-2.8,5.1-5.6,8.3-7.7,7.2S1579,1094.1,1580.3,1089.7Z" fill="#3a49cd"/><path d="M292.8,350.6l6.8-52.2,7.9,51.9a8.6,8.6,0,0,0,5.6,6.7l21.9,6.4-21.8,5.4a10.7,10.7,0,0,0-7.3,7l-6.3,23.6-5.7-24.2a7.1,7.1,0,0,0-6-5.2l-47.6-6.6,47.2-7.3A6.3,6.3,0,0,0,292.8,350.6Z" fill="#fff"/><path d="M120.4,620.8l4.8-36.9,5.6,36.7a5.9,5.9,0,0,0,3.9,4.8l15.5,4.5-15.5,3.8a7.7,7.7,0,0,0-5.1,5l-4.4,16.7-4.1-17.2a5.2,5.2,0,0,0-4.2-3.7l-33.7-4.6,33.4-5.2A4.6,4.6,0,0,0,120.4,620.8Z" fill="#fa7269"/><path d="M233.6,716.2l12.9-17.9L239.1,719a3.6,3.6,0,0,0,.8,3.6l6.8,6.7-9.1-2.3a4.7,4.7,0,0,0-4.1,1.1l-7,7.5,2.7-10a3.1,3.1,0,0,0-1.2-3.2l-16.3-11.8,18.9,6.6A2.5,2.5,0,0,0,233.6,716.2Z" fill="#fff"/><path d="M435.6,759.4l8-11.2-4.6,13a2,2,0,0,0,.5,2.2l4.2,4.2-5.7-1.5a2.7,2.7,0,0,0-2.5.8l-4.4,4.6,1.7-6.3a1.7,1.7,0,0,0-.8-1.9l-10.1-7.4,11.8,4.1A1.6,1.6,0,0,0,435.6,759.4Z" fill="#fa7269"/><path d="M803.3,353.9l23.6-47.1-9.6,51.7a8.6,8.6,0,0,0,3,8.2l18.6,13.2-22.4-2.1a10.9,10.9,0,0,0-9.2,4.2l-13.7,20.2,2.6-24.7a7.4,7.4,0,0,0-4-7l-42.7-21.9,46.9,8.7A6.5,6.5,0,0,0,803.3,353.9Z" fill="#fa7269"/><path d="M621.4,585.6l6.7-52.2,8,51.9a8.3,8.3,0,0,0,5.5,6.7l21.9,6.4-21.8,5.4a10.7,10.7,0,0,0-7.3,7l-6.3,23.6-5.6-24.2a7.3,7.3,0,0,0-6.1-5.2l-47.6-6.6,47.2-7.3A6.5,6.5,0,0,0,621.4,585.6Z" fill="#fff"/><path d="M442.4,529.6l2-15,2.3,14.9a2.4,2.4,0,0,0,1.6,2l6.3,1.8-6.3,1.5a3.2,3.2,0,0,0-2.1,2.1l-1.8,6.8-1.6-7a2.2,2.2,0,0,0-1.8-1.5l-13.7-1.9,13.6-2.1A1.8,1.8,0,0,0,442.4,529.6Z" fill="#fff"/><path d="M236.4,499.3a3.9,3.9,0,1,1,7.8,0,3.9,3.9,0,1,1-7.8,0Z" fill="#fff"/><path d="M634.5,485.5a5.9,5.9,0,1,1,5.9,5.9A5.8,5.8,0,0,1,634.5,485.5Z" fill="#fff"/><path d="M535.9,354.5a2.9,2.9,0,0,1,5.7,0,2.9,2.9,0,0,1-5.7,0Z" fill="#fff"/><path d="M400.5,316.1a1,1,0,0,1,1.1-1,1,1,0,0,1,0,2A1,1,0,0,1,400.5,316.1Z" fill="#fff"/><path d="M1069.9,1011.7c-19-19-57-16.9-73.5-14.8,1-4.9.5-9.9-2.3-12.9a.3.3,0,0,1-.1-.2c-4.7-14.5-10.2-15.4-10.2-15.4a23.9,23.9,0,0,0-5.3,11.6,58.6,58.6,0,0,0-7.6.6c-4.4-11.4-9.1-12.2-9.1-12.2-7.2,8.7-5.4,18.8-5.6,19.9a32.1,32.1,0,0,0,3.4,1.4c-3.4,14.3,19.2,21.3,27.2,19.9a8.9,8.9,0,0,0,4.8-2.8l15.1,42.7h76.2S1094.4,1036.2,1069.9,1011.7Z" fill="#3a49cd"/><path d="M379.3,415.9a2.1,2.1,0,0,1,2.1-2.1,2.1,2.1,0,0,1,2.1,2.1,2.1,2.1,0,0,1-2.1,2.1A2.2,2.2,0,0,1,379.3,415.9Z" fill="#fff"/><path d="M504.6,556.7a2.9,2.9,0,0,1,2.8-2.8,2.8,2.8,0,0,1,2.8,2.8,2.7,2.7,0,0,1-2.8,2.8A2.8,2.8,0,0,1,504.6,556.7Z" fill="#fff"/><path d="M1338.1,338.6V531.9l-7.2,1.5-7.2,1.1c-25.6,3.4-51.5-.3-76.9-14.3-90.7-49.9-89.2-113.9-75.4-154.6,55.4-22.2,106.2-30.6,152.3-28.2l7.2.5Z" fill="#93b3f4" opacity="0.05"/><path d="M834.9,955c-42.3-3.1-186.5,76-244.4,23.6s-181-64.5-181-64.5c9.1-1.2,19-2.3,29.5-3.3,127.1-12.4,227.7,45.1,320.9,41.4A489.1,489.1,0,0,1,834.9,955Z" fill="#dde8fd"/><path d="M1052.9,1051.7c-65.8,31.5-176.6-90-215.6-96.5C981.6,972.7,1052.9,1051.7,1052.9,1051.7Z" fill="#dde8fd"/><path d="M731.4,1065.7c-57.3,13.3-117.4,35.4-158.9,68-76.3,59.8-241.9,83.7-241.9,83.7-89.7-82.6-56.2-153.1-53.9-165.7a12.8,12.8,0,0,1,.9-2.2s31.4,43.9,105.6,47.9C437.9,1100.3,610.5,1080.7,731.4,1065.7Z" fill="#6d89cf"/><path d="M874.4,1049.5v1.3a133.9,133.9,0,0,0-17.6-1.3Z" fill="#100c57"/><path d="M1219,423.8a24.4,24.4,0,1,1,24.4,24.3A24.4,24.4,0,0,1,1219,423.8Z" fill="#93b3f4"/><path d="M1323.7,716.9v162H911.3V547.5l4.1-3.9,8.4-7.8,8.5-7.9,2.5-2.4,5.1-4.8.8-.7,4.3-4.1,1.7-1.6,10.7-10h.1q11.6-10.2,22.8-19.5c25.2,59.9,67.1,129.4,135.5,176.7,4.9,3.4,9.9,6.6,15,9.7C1180.9,701.8,1244.2,720.6,1323.7,716.9Z" fill="#3a49cd" opacity="0.9"/><path d="M1330.9,337.9l-7.2-.5V890.5H911.3v-343l-6.6,6.1-7.8,7.1V904.9h441.2V338.6Z" fill="#100c57"/><path d="M1377.1,904.9H854.5a25.9,25.9,0,0,1,26-26h470.6a25.9,25.9,0,0,1,26,26Z" fill="#100c57"/><path d="M1130.8,383.9v495h-15V391.7Q1123.3,387.7,1130.8,383.9Z" fill="#100c57"/><path d="M452.2,439.1c-36.8,13.3-60.3,25.6-66,28.8a1.7,1.7,0,0,0-.9,2.1,2.2,2.2,0,0,0,3.3,1.1c7-4.6,29.4-18.3,64.1-30.8,39-14.1,101.8-31.9,176.9-39C551.4,408.7,491.3,425.1,452.2,439.1Z" fill="#fff"/><path d="M335.9,946.6s-29.3-12.2-40.4-19.1-29.4-1.5-29.4-1.5c20.6-24.3,59.5,8.6,67.7,18.2Z" fill="#ed6966"/><path d="M1292.5,477a1.9,1.9,0,0,1,1.8-1.9,1.9,1.9,0,1,1,0,3.8A1.9,1.9,0,0,1,1292.5,477Z" fill="#93b3f4"/><path d="M1153,428.4a2.1,2.1,0,1,1,2.1,2.1A2.1,2.1,0,0,1,1153,428.4Z" fill="#93b3f4"/><path d="M1244.1,520.2a1.3,1.3,0,0,1,1.4-1.3,1.3,1.3,0,0,1,1.3,1.3,1.3,1.3,0,0,1-1.3,1.4A1.4,1.4,0,0,1,1244.1,520.2Z" fill="#93b3f4"/><path d="M1059.1,499.9a1.8,1.8,0,0,1,1.8-1.9,1.8,1.8,0,0,1,1.9,1.9,1.8,1.8,0,0,1-1.9,1.8A1.8,1.8,0,0,1,1059.1,499.9Z" fill="#93b3f4"/><path d="M1086.2,577.5a1.3,1.3,0,0,1,1.3-1.4,1.4,1.4,0,0,1,1.4,1.4,1.3,1.3,0,0,1-1.4,1.3A1.3,1.3,0,0,1,1086.2,577.5Z" fill="#93b3f4"/><path d="M1012.5,1132.2c-.8-.7,2.5-16.7,8.2-17.6s11.5,17.6,11.5,17.6S1022.1,1139.6,1012.5,1132.2Z" fill="#6d89cf"/><path d="M330.6,1217.4s-11.3,4.1-13.1,13.9c0,0,4.7,11.2,17,10.1C334.5,1241.4,337.5,1233.8,330.6,1217.4Z" fill="#6d89cf"/><path d="M1667.5,805.4c-21,3.3-30,25.2-63.8,31.1s-64.8-56.3-64.8-56.3c24.1,5.5,65.3-10.8,66.3-19s-61.5-2.6-71.4-4.3-28.5-19.9-21-59.7,74.4-32.7,74.4-32.7,49.9,64.8,63,65.4-31.9-63.7-31.9-63.7c6.6-1.1,16.1-.2,26.4,1.8,5.3,19.2,9.8,38.5,13.4,57.7a593.8,593.8,0,0,1,9.5,79.7Z" fill="#3a49cd"/><path d="M911.3,547.5V878.9H907V551.4Z" fill="#446dc5"/><path d="M1131.2,383.7V878.9h-4.3v-493l3.9-2Z" fill="#446dc5"/><path d="M605.9,307.4c-76.3,1.2-137.6,55.9-196.4,47.1C333.6,343.2,335.9,251,335.9,251h.7A419.3,419.3,0,0,1,446,239.5C501,241.1,558.1,268.2,605.9,307.4Z" fill="#748fd1"/><polygon points="838.6 558.5 780.6 589.2 811.2 547 816.5 555.1 832.3 552.5 838.6 558.5" fill="#e75755"/><polygon points="780.6 589.2 822.1 544.7 871 524.3 780.6 589.2" fill="#a83f3f"/><polygon points="811.2 547 780.6 589.2 796.5 534.7 811.2 547" fill="#a83f3f"/><polygon points="232.4 510.1 296.6 524 255.6 491.6 252.8 500.8 236.8 502.6 232.4 510.1" fill="#e75755"/><polygon points="296.6 524 244.6 492.3 191.9 485.9 296.6 524" fill="#a83f3f"/><polygon points="255.6 491.6 296.6 524 266.5 475.8 255.6 491.6" fill="#a83f3f"/><path d="M547.6,857a2.1,2.1,0,0,1-2.1-1.9,127.9,127.9,0,0,1-.7-14.1v-2.3a2.2,2.2,0,1,1,4.3.1V841a111.9,111.9,0,0,0,.7,13.5,2.3,2.3,0,0,1-1.9,2.5Zm.5-33.4h-.2a2.1,2.1,0,0,1-1.9-2.4,160.1,160.1,0,0,1,3-17.3,2.1,2.1,0,0,1,2.6-1.6,2.1,2.1,0,0,1,1.6,2.6c-1.2,5.5-2.2,11.1-2.9,16.9A2.2,2.2,0,0,1,548.1,823.6Zm8-33.8h-.8a2.1,2.1,0,0,1-1.2-2.8,122.7,122.7,0,0,1,7.1-16.1,2.3,2.3,0,0,1,2.9-.9,2.2,2.2,0,0,1,.9,3,127.8,127.8,0,0,0-6.9,15.5A2,2,0,0,1,556.1,789.8Zm372.8-23.5a2.1,2.1,0,0,1-2.1-2.2,2.1,2.1,0,0,1,2.1-2.2,117.1,117.1,0,0,0,17-1.3,2,2,0,0,1,2.4,1.8,2.2,2.2,0,0,1-1.8,2.5,140.9,140.9,0,0,1-17.5,1.4Zm-17.3-.8h-.2c-5.5-.6-11.4-1.4-17.3-2.5a2.2,2.2,0,0,1-1.8-2.5,2.3,2.3,0,0,1,2.6-1.8c5.8,1.1,11.5,1.9,16.9,2.5a2.1,2.1,0,0,1,2,2.3A2.2,2.2,0,0,1,911.6,765.5Zm51.5-4.4a2.2,2.2,0,0,1-2.1-1.6,2.3,2.3,0,0,1,1.4-2.7,97.5,97.5,0,0,0,15.7-6.4,2.4,2.4,0,0,1,3,.9,2.3,2.3,0,0,1-1,3,112.7,112.7,0,0,1-16.4,6.7Zm-390.8-1.8a2.1,2.1,0,0,1-1.7-3.4,105.5,105.5,0,0,1,11.5-13.4,2.2,2.2,0,1,1,3.1,3.1,111.9,111.9,0,0,0-11.1,12.8A2.3,2.3,0,0,1,572.3,759.3Zm305.2,0H877c-5.3-1.3-11-2.9-16.8-4.7a2.2,2.2,0,0,1-1.4-2.7,2.1,2.1,0,0,1,2.7-1.5c5.7,1.8,11.3,3.4,16.6,4.7a2.2,2.2,0,0,1,1.5,2.6A2.1,2.1,0,0,1,877.5,759.3Zm-33.2-10.1h-.7l-16.3-5.9a2.1,2.1,0,0,1-1.3-2.8,2.2,2.2,0,0,1,2.8-1.3l16.3,5.9a2.1,2.1,0,0,1,1.3,2.7A2.3,2.3,0,0,1,844.3,749.2Zm149.4-4a2.3,2.3,0,0,1-1.7-.8,2.2,2.2,0,0,1,.4-3.1,88.9,88.9,0,0,0,12.1-11.7,2.1,2.1,0,0,1,3-.3,2.2,2.2,0,0,1,.3,3.1,91.9,91.9,0,0,1-12.7,12.3A2.4,2.4,0,0,1,993.7,745.2Zm-181.9-8H811l-6.7-2.6-9.5-3.6a2.2,2.2,0,1,1,1.5-4.1l9.6,3.7,6.6,2.5a2.2,2.2,0,0,1,1.3,2.8A2.1,2.1,0,0,1,811.8,737.2Zm-215-2.2a2.3,2.3,0,0,1-1.8-.9,2.1,2.1,0,0,1,.5-3,133.8,133.8,0,0,1,14.9-9.4,2.2,2.2,0,0,1,3,.9,2.2,2.2,0,0,1-.9,2.9,109.9,109.9,0,0,0-14.4,9.1A3.3,3.3,0,0,1,596.8,735Zm182.5-10-.7-.2-16.4-5.7a2.1,2.1,0,0,1-1.3-2.7,2.1,2.1,0,0,1,2.7-1.4l16.4,5.8a2,2,0,0,1,1.3,2.7A2.1,2.1,0,0,1,779.3,725Zm236.8-6-1.1-.3a2.2,2.2,0,0,1-.7-3,126.4,126.4,0,0,0,7.5-15.2,2.1,2.1,0,0,1,2.8-1.2,2.2,2.2,0,0,1,1.2,2.8,122.2,122.2,0,0,1-7.8,15.8A2.1,2.1,0,0,1,1016.1,719Zm-388.9-.4a2,2,0,0,1-2-1.4,2.1,2.1,0,0,1,1.2-2.8,163.1,163.1,0,0,1,16.7-5.3,2.2,2.2,0,1,1,1.1,4.2,153.5,153.5,0,0,0-16.2,5.2Zm119.2-4.5h-.6c-6-1.7-11.5-3-16.7-4.1a2.2,2.2,0,0,1-1.7-2.6,2.3,2.3,0,0,1,2.6-1.7c5.3,1.2,10.9,2.5,16.9,4.2a2.2,2.2,0,0,1,1.5,2.7A2,2,0,0,1,746.4,714.1Zm-85.8-4.3a2.2,2.2,0,0,1-.3-4.3c5.5-1,11.4-1.7,17.3-2.2a2.1,2.1,0,0,1,2.3,2,2.1,2.1,0,0,1-1.9,2.3c-5.9.5-11.6,1.2-17,2.1Zm51.8-2.5h-.2a113.2,113.2,0,0,0-11.4-.6h-5.7a2.1,2.1,0,0,1-2.2-2.1,2.1,2.1,0,0,1,2.1-2.2h5.8c3.8,0,7.7.2,11.8.6a2.1,2.1,0,0,1,1.9,2.4A2.2,2.2,0,0,1,712.4,707.3ZM1029.3,687h-.6a2.1,2.1,0,0,1-1.5-2.6c1.4-5.4,2.6-11,3.5-16.7a2.3,2.3,0,0,1,2.5-1.9,2.2,2.2,0,0,1,1.8,2.5c-.9,5.9-2.2,11.7-3.6,17.2A2.2,2.2,0,0,1,1029.3,687Zm5.5-34.2h-.2a2.1,2.1,0,0,1-2-2.3c.3-4.3.4-8.6.4-13v-4.1a2.1,2.1,0,0,1,2.1-2.2,2.1,2.1,0,0,1,2.2,2.1c0,1.4.1,2.8.1,4.2,0,4.4-.2,8.9-.5,13.3A2.1,2.1,0,0,1,1034.8,652.8Zm-.7-34.6a2.2,2.2,0,0,1-2.1-2c-.6-5.6-1.4-11.4-2.4-17a2.2,2.2,0,0,1,4.3-.8q1.5,8.7,2.4,17.4a2.3,2.3,0,0,1-2,2.4Zm-6-34.2a2.1,2.1,0,0,1-2.1-1.6c-1.4-5.6-3.1-11.1-4.9-16.4a2.2,2.2,0,1,1,4.1-1.4c1.8,5.4,3.5,11.1,5,16.7a2.2,2.2,0,0,1-1.6,2.7Zm-11.3-32.7a2.3,2.3,0,0,1-2-1.3,167.6,167.6,0,0,0-7.6-15.3,2.1,2.1,0,0,1,.8-3,2.1,2.1,0,0,1,2.9.9,164.3,164.3,0,0,1,7.9,15.7,2.1,2.1,0,0,1-1.1,2.8Zm-17-30.2a2.3,2.3,0,0,1-1.8-.9,127,127,0,0,0-10.7-13.3,2.2,2.2,0,0,1,3.2-2.9,138,138,0,0,1,11.1,13.7,2.2,2.2,0,0,1-1.8,3.4Zm-160.4-7.5a2,2,0,0,1-1.1-.3,2.3,2.3,0,0,1-.8-3,91.7,91.7,0,0,1,11.3-13.8,2.2,2.2,0,0,1,3.1-.1,2.3,2.3,0,0,1,0,3.1,73.9,73.9,0,0,0-10.6,13.1A2.6,2.6,0,0,1,839.4,513.6Zm136.9-17.9a2,2,0,0,1-1.3-.4,89.4,89.4,0,0,0-14.1-9.5,2.2,2.2,0,0,1-.8-3,2.1,2.1,0,0,1,2.9-.8,99.6,99.6,0,0,1,14.7,9.9,2.1,2.1,0,0,1,.3,3A2,2,0,0,1,976.3,495.7Zm-112.8-6.8a2.2,2.2,0,0,1-1.2-3.9,90.9,90.9,0,0,1,15.3-8.9,2.2,2.2,0,1,1,1.8,4,85.9,85.9,0,0,0-14.6,8.4A2,2,0,0,1,863.5,488.9Zm82.6-9.8-.7-.2a114.1,114.1,0,0,0-16.4-4.4,2.1,2.1,0,0,1-1.7-2.5,2.2,2.2,0,0,1,2.5-1.8,128,128,0,0,1,17.1,4.6,2.2,2.2,0,0,1,1.3,2.8A2.3,2.3,0,0,1,946.1,479.1ZM895,474.8a2.1,2.1,0,0,1-2.1-1.7,2.1,2.1,0,0,1,1.6-2.6,94,94,0,0,1,17.7-1.9h0a2.2,2.2,0,0,1,0,4.4,78.6,78.6,0,0,0-16.8,1.8Z" fill="#fa7269"/><path d="M1665.4,1300H2.2a2.3,2.3,0,0,1-2.2-2.4H0a2.4,2.4,0,0,1,2.2-2.5H1665.4a2.4,2.4,0,0,1,2.2,2.5h0A2.3,2.3,0,0,1,1665.4,1300Z" fill="#060632"/></svg>