<?xml version="1.0" encoding="utf-8"?>
<!-- Generator: Adobe Illustrator 26.0.3, SVG Export Plug-In . SVG Version: 6.00 Build 0)  -->
<svg version="1.1" xmlns="http://www.w3.org/2000/svg" xmlns:xlink="http://www.w3.org/1999/xlink" x="0px" y="0px"
	 viewBox="0 0 500 500" enable-background="new 0 0 500 500" xml:space="preserve">
<g id="Background">
	<path id="Background_2_" fill="#222" d="M51,400.7c-74.3-57.5-61.6-161.4,0.7-242.7C147.2,33.4,298-13.5,411.2,64.2
		C510.1,132,511.7,313.6,485.9,369c-24.7,52.8-87.1,100.6-215.7,104.5C156.5,477,91,431.6,51,400.7z"/>
	<g id="Stars_4_">
		<path id="XMLID_919_" fill="#FFFFFF" d="M344.9,84.2c0,0.9-0.7,1.6-1.6,1.6c-0.9,0-1.6-0.7-1.6-1.6c0-0.9,0.7-1.6,1.6-1.6
			C344.2,82.6,344.9,83.3,344.9,84.2z"/>
		<circle id="XMLID_993_" opacity="0.3" fill="#FFFFFF" cx="138.4" cy="138.4" r="1.6"/>
		<path id="XMLID_992_" fill="#FFFFFF" d="M211.9,89.1c0,0.9-0.7,1.6-1.6,1.6c-0.9,0-1.6-0.7-1.6-1.6c0-0.9,0.7-1.6,1.6-1.6
			C211.2,87.5,211.9,88.2,211.9,89.1z"/>
		<g id="XMLID_982_" opacity="0.3">
			<path id="XMLID_984_" fill="#FFFFFF" d="M387.3,110c0.4,0.2,0.6,0.7,0.5,1.1c-0.2,0.4-0.7,0.6-1.1,0.5c-0.4-0.2-0.6-0.7-0.5-1.1
				C386.4,110.1,386.9,109.8,387.3,110z"/>
			<path id="XMLID_983_" fill="#FFFFFF" d="M392.7,115.1c0.9,0.3,1.3,1.3,0.9,2.2c-0.3,0.9-1.3,1.3-2.2,0.9s-1.3-1.3-0.9-2.2
				C390.9,115.2,391.8,114.8,392.7,115.1z"/>
			<g id="XMLID_903_" opacity="0.5">
				<path id="XMLID_905_" fill="#FFFFFF" d="M419,159.8c-0.1,0.9-0.9,1.4-1.8,1.3c-0.9-0.1-1.4-0.9-1.3-1.8c0.1-0.9,0.9-1.4,1.8-1.3
					C418.6,158.1,419.2,158.9,419,159.8z"/>
			</g>
		</g>
		<g id="XMLID_966_" opacity="0.5">
			<path id="XMLID_971_" fill="#FFFFFF" d="M199.4,130.1c0,1-0.8,1.8-1.8,1.8c-1,0-1.8-0.8-1.8-1.8c0-1,0.8-1.8,1.8-1.8
				C198.6,128.3,199.4,129.1,199.4,130.1z"/>
			<path id="XMLID_969_" fill="#FFFFFF" d="M194.1,134.9c0,0.6-0.5,1.1-1.1,1.1c-0.6,0-1.1-0.5-1.1-1.1c0-0.6,0.5-1.1,1.1-1.1
				C193.7,133.9,194.1,134.3,194.1,134.9z"/>
			<path id="XMLID_967_" fill="#FFFFFF" d="M191.2,128.3c0,0.5-0.4,0.8-0.8,0.8c-0.5,0-0.8-0.4-0.8-0.8c0-0.5,0.4-0.8,0.8-0.8
				C190.8,127.5,191.2,127.9,191.2,128.3z"/>
		</g>
		<g id="XMLID_904_" opacity="0.5">
			<path id="XMLID_918_" fill="#FFFFFF" d="M361.3,141c-0.1,0.9-0.9,1.4-1.8,1.3c-0.9-0.1-1.4-0.9-1.3-1.8c0.1-0.9,0.9-1.4,1.8-1.3
				C360.9,139.3,361.5,140.1,361.3,141z"/>
		</g>
	</g>
</g>
<g id="Moon">
	<g id="Moon_1_">
		<g id="Stars_5_">
			<path id="XMLID_927_" fill="#E6E6E6" d="M69.3,46.2c0,2.4,3.7,2.4,3.7,0C73,43.9,69.3,43.9,69.3,46.2z"/>
			<g id="XMLID_925_">
				<path id="XMLID_926_" fill="#E6E6E6" d="M41.5,70.5l3.6,1.2c1.3,5.1,1,5,4.1,0.8c5.3,0.3,5.1,0.7,2-3.6c1.9-4.9,2.2-4.6-2.8-3
					c-4.1-3.3-3.7-3.5-3.8,1.8C44.4,68,40.1,69.8,41.5,70.5z"/>
			</g>
		</g>
		<path id="Moon_2_" fill="#27DEBF" d="M123.3,83.4l0,0.1c-1.4,13.9-13.7,24-27.6,22.6c-13.9-1.4-24-13.7-22.6-27.6
			C74.4,65.2,86,55.3,99.2,55.8c-7.3,2.4-12.8,8.9-13.6,17c-1.1,10.9,6.9,20.7,17.9,21.8C112,95.4,119.8,90.7,123.3,83.4z"/>
		<g id="XMLID_922_">
			<g id="XMLID_923_">
				<path fill="#E0E0E0" d="M162.7,59.6H157c0-0.2,0-0.4,0-0.6v-1.4c0-2.6-2.1-4.6-4.6-4.6c-1,0-2,0.3-2.8,0.9
					c-0.4-3.4-3.3-6.1-6.9-6.1c-3.8,0-6.9,3.1-6.9,6.9v2.2c0,1,0.2,1.9,0.6,2.8h-4.8c-1.4,0-2.6,1.2-2.6,2.6c0,1.4,1.2,2.6,2.6,2.6
					l31.1,0c1.4,0,2.6-1.2,2.6-2.6C165.3,60.8,164.2,59.6,162.7,59.6z"/>
			</g>
		</g>
		<g id="XMLID_906_">
			<g id="XMLID_921_">
				<path fill="#E0E0E0" d="M40.4,124.5l3.2-0.5v-6c0-4.8,4.4-8.1,9.2-8.1l0,0c4.8,0,8.7,3.9,8.7,8.7v0.9c1.1-0.9,2.5-1.5,4-1.5l0,0
					c3.4,0,6.2,2.8,6.2,6.2v0.4l4.4,0c2.3,0,4.1,1.8,4.1,4.1c0,2.3-1.8,4.1-4.1,4.1H40.4c-2.3,0-4.1-1.8-4.1-4.1
					C36.3,126.3,38.1,124.5,40.4,124.5z"/>
			</g>
		</g>
	</g>
</g>
<g id="Shadow">
	<path id="Shadow_51_" fill="#263238" d="M283,453.3l156.3-90.2c2.1-1.2,2.1-3.2,0-4.5L217.9,230.8c-2.1-1.2-5.6-1.2-7.8,0L53.8,321
		c-2.1,1.2-2.1,3.2,0,4.5l221.5,127.9C277.4,454.5,280.9,454.5,283,453.3z"/>
</g>
<g id="Nightstand">
	<g id="Nightstand_1_">
		<polygon id="XMLID_878_" fill="#27DEBF" points="314.4,240.2 307.5,236.3 314.4,234.3 		"/>
		<polygon id="XMLID_877_" opacity="0.6" points="314.4,240.2 307.5,236.3 314.4,234.3 		"/>
		<polygon id="XMLID_876_" fill="#27DEBF" points="280,254.2 280,260.5 240.3,237.6 240.3,231.2 		"/>
		<polygon id="XMLID_875_" opacity="0.6" points="280,254.2 280,260.5 240.3,237.6 240.3,231.2 		"/>
		<polygon id="XMLID_873_" fill="#27DEBF" points="236.8,181.6 276.5,204.5 276.5,256.2 236.8,233.2 		"/>
		<polygon id="XMLID_869_" opacity="0.55" points="236.8,181.6 276.5,204.5 276.5,256.2 236.8,233.2 		"/>
		<polygon id="XMLID_868_" fill="#27DEBF" points="276.5,204.5 321.3,178.6 321.3,230.3 276.5,256.2 		"/>
		<polygon id="XMLID_725_" opacity="0.45" points="276.5,204.5 321.3,178.6 321.3,230.3 276.5,256.2 		"/>
		<polygon id="XMLID_721_" fill="#27DEBF" points="321.3,178.6 281.6,155.7 236.8,181.6 276.5,204.5 		"/>
		<polygon id="XMLID_716_" opacity="0.3" points="321.3,178.6 281.6,155.7 236.8,181.6 276.5,204.5 		"/>
		<polygon id="XMLID_702_" fill="#27DEBF" points="280,206.5 317.9,184.6 317.9,196.5 280,218.4 		"/>
		<polygon id="XMLID_701_" opacity="0.2" points="280,206.5 317.9,184.6 317.9,196.5 280,218.4 		"/>
		<polygon id="XMLID_700_" opacity="0.2" points="280,222.4 317.9,200.5 317.9,228.3 280,250.2 		"/>
		<polygon id="XMLID_699_" fill="#27DEBF" points="280,260.5 283.4,258.5 283.4,252.2 280,254.2 		"/>
		<polygon id="XMLID_689_" opacity="0.55" points="280,260.5 283.4,258.5 283.4,252.2 280,254.2 		"/>
		<polygon id="XMLID_480_" fill="#27DEBF" points="314.4,240.2 317.9,238.3 317.9,232.3 314.4,234.3 		"/>
		<polygon id="XMLID_428_" opacity="0.55" points="314.4,240.2 317.9,238.3 317.9,232.3 314.4,234.3 		"/>
		<path id="XMLID_427_" fill="#37474F" d="M291.7,202.2c0,0.5,1.6,0,3.7-1.1l6.4-3.7c2-1.2,3.7-2.6,3.7-3.1l0-1l-13.8,7.9
			C291.7,201.2,291.7,201.7,291.7,202.2z"/>
		<polygon id="XMLID_422_" opacity="0.2" points="317.9,228.3 293.9,214.3 280,222.4 280,250.2 		"/>
	</g>
</g>
<g id="Lamp">
	<g id="Light">
		
			<ellipse transform="matrix(0.2298 -0.9732 0.9732 0.2298 98.1861 366.5295)" opacity="0.1" fill="#27DEBF" cx="280.7" cy="121.2" rx="30.3" ry="30.3"/>
		
			<ellipse transform="matrix(0.2298 -0.9732 0.9732 0.2298 98.1861 366.5295)" opacity="0.1" fill="#27DEBF" cx="280.7" cy="121.2" rx="40.2" ry="40.2"/>
		
			<ellipse transform="matrix(0.2298 -0.9732 0.9732 0.2298 98.1861 366.5295)" opacity="0.1" fill="#27DEBF" cx="280.7" cy="121.2" rx="50.1" ry="50.1"/>
	</g>
	<g id="Lamp_2_">
		<g id="XMLID_329_">
			<g id="XMLID_419_">
				<path id="XMLID_421_" fill="#263238" d="M290.5,172c0-0.3,0-0.5-0.1-0.8c-0.5-3-3-6.1-4.8-7.2h-10c-1.8,1-4.3,4.2-4.8,7.2
					c-0.1,0.3-0.1,0.5-0.1,0.8c0,0,0,0.1,0,0.1c0.1,1.4,1,2.8,2.9,3.8c3.9,2.2,10.1,2.2,14,0c1.8-1.1,2.8-2.4,2.9-3.8
					C290.5,172.1,290.5,172,290.5,172z"/>
			</g>
			<g id="XMLID_351_">
				<path id="XMLID_365_" fill="#37474F" d="M275.9,163.9c-2.6,1.5-2.6,4,0,5.5c2.6,1.5,6.9,1.5,9.5,0c2.6-1.5,2.6-4,0-5.5
					C282.8,162.4,278.5,162.4,275.9,163.9z"/>
			</g>
		</g>
		<path id="XMLID_323_" fill="#263238" d="M282,130.4h-2.7v35.2h0c0,0.2,0.1,0.5,0.4,0.6c0.5,0.3,1.4,0.3,1.9,0
			c0.3-0.2,0.4-0.4,0.4-0.6h0V130.4z"/>
		<g id="XMLID_288_">
			<g id="XMLID_311_">
				<path id="XMLID_322_" fill="#27DEBF" d="M300.2,129.2L300.2,129.2l-9.2-23.4h-20.7l-9.2,23.4h0c-1.3,3.7,0.5,7.6,5.4,10.5
					c7.8,4.5,20.4,4.5,28.2,0C299.7,136.9,301.5,132.9,300.2,129.2z"/>
				<path id="XMLID_898_" opacity="0.4" fill="#FFFFFF" d="M300.2,129.2L300.2,129.2l-9.2-23.4h-20.7l-9.2,23.4h0
					c-1.3,3.7,0.5,7.6,5.4,10.5c7.8,4.5,20.4,4.5,28.2,0C299.7,136.9,301.5,132.9,300.2,129.2z"/>
				<ellipse id="XMLID_321_" fill="#27DEBF" cx="280.7" cy="107.1" rx="10.6" ry="6.1"/>
				<ellipse id="XMLID_318_" opacity="0.7" fill="#FFFFFF" cx="280.7" cy="107.1" rx="10.6" ry="6.1"/>
				<path id="XMLID_317_" fill="#27DEBF" d="M280.7,111.7c-2.5,0-4.8-0.5-6.5-1.5c-1.5-0.9-2.3-2-2.3-3.1c0-1.1,0.8-2.2,2.3-3.1
					c1.7-1,4-1.5,6.5-1.5c2.5,0,4.8,0.5,6.5,1.5c1.5,0.9,2.3,2,2.3,3.1c0,1.1-0.8,2.2-2.3,3.1C285.4,111.2,283.1,111.7,280.7,111.7z
					"/>
			</g>
		</g>
	</g>
</g>
<g id="Bed_1_">
	<g id="Bed">
		<g>
			<g>
				<path fill="#27DEBF" d="M79.6,328.6l-5.1-2.9c-1.4-0.8-2.6-2.9-2.6-4.5V243c0-1.7,1.2-3.7,2.6-4.5l145.6-84.1
					c1.4-0.8,3.8-0.8,5.2,0l5.1,2.9c1.4,0.8,2.6,2.9,2.6,4.5V240c0,1.7-1.2,3.7-2.6,4.5L84.8,328.6C83.4,329.4,81,329.4,79.6,328.6z
					"/>
				<path opacity="0.3" d="M79.6,328.6l-5.1-2.9c-1.4-0.8-2.6-2.9-2.6-4.5V243c0-1.7,1.2-3.7,2.6-4.5l145.6-84.1
					c1.4-0.8,3.8-0.8,5.2,0l5.1,2.9c1.4,0.8,2.6,2.9,2.6,4.5V240c0,1.7-1.2,3.7-2.6,4.5L84.8,328.6C83.4,329.4,81,329.4,79.6,328.6z
					"/>
				<path fill="#27DEBF" d="M233.1,161.8l0,78.1c0,1.7-1.2,3.7-2.6,4.5L84.8,328.6c-1.4,0.8-2.6,0.2-2.6-1.5l0-78.1
					c0-1.7,1.2-3.7,2.6-4.5l145.6-84.1C231.9,159.5,233.1,160.2,233.1,161.8z"/>
				<path opacity="0.45" d="M233.1,161.8l0,78.1c0,1.7-1.2,3.7-2.6,4.5L84.8,328.6c-1.4,0.8-2.6,0.2-2.6-1.5l0-78.1
					c0-1.7,1.2-3.7,2.6-4.5l145.6-84.1C231.9,159.5,233.1,160.2,233.1,161.8z"/>
				<path fill="#27DEBF" d="M84.2,328.8c-1.4,0.5-3.4,0.4-4.6-0.3l-5.1-2.9c-1.4-0.8-2.6-2.9-2.6-4.5V243c0-0.8,0.3-1.8,0.8-2.6
					l10.3,5.9c-0.5,0.8-0.8,1.7-0.8,2.6V327C82.2,328.5,83,329.2,84.2,328.8z"/>
				<path opacity="0.55" d="M84.2,328.8c-1.4,0.5-3.4,0.4-4.6-0.3l-5.1-2.9c-1.4-0.8-2.6-2.9-2.6-4.5V243c0-0.8,0.3-1.8,0.8-2.6
					l10.3,5.9c-0.5,0.8-0.8,1.7-0.8,2.6V327C82.2,328.5,83,329.2,84.2,328.8z"/>
			</g>
			<g>
				<path fill="#455A64" d="M291.7,411.4l-12.1-7c-0.7-0.4-1.9-0.4-2.6,0l-12.1,7c-0.4,0.2-0.7,0.6-0.9,1l0,0c0,0.1-0.1,0.2-0.1,0.2
					c-0.2,0.3-0.3,0.7-0.3,1l0,19.6v0c0,0.8,0.5,1.7,1.2,2.2c0,0,0.1,0.1,0.1,0.1l12.1,7c0,0,0,0,0,0l0,0c0,0,0.1,0,0.2,0.1
					c0.1,0.1,0.3,0.1,0.5,0.2c0.2,0.1,0.5,0.1,0.7,0.1c0.5,0,0.9-0.1,1.3-0.3l12.1-7c0.7-0.4,1.3-1.4,1.3-2.3l0-19.6
					C293.1,412.8,292.5,411.8,291.7,411.4z"/>
				<path fill="#37474F" d="M279.7,442.6l12.1-7c0.7-0.4,1.3-1.4,1.3-2.3l0-19.6c0-0.8-0.6-1.2-1.3-0.8l-12.1,7
					c-0.7,0.4-1.3,1.4-1.3,2.3l0,19.6C278.3,442.6,278.9,443,279.7,442.6z"/>
			</g>
			<g>
				<path fill="#455A64" d="M423,335.7l-12.1-7c-0.7-0.4-1.9-0.4-2.6,0l-12.1,7c-0.4,0.2-0.7,0.6-0.9,1l0,0c0,0.1-0.1,0.2-0.1,0.2
					c-0.2,0.3-0.3,0.7-0.3,1l0,19.6v0c0,0.8,0.5,1.7,1.2,2.2c0,0,0.1,0.1,0.1,0.1l12.1,7c0,0,0,0,0,0l0,0c0,0,0.1,0,0.2,0.1
					c0.1,0.1,0.3,0.1,0.5,0.2c0.2,0.1,0.5,0.1,0.7,0.1c0.5,0,0.9-0.1,1.3-0.3l12.1-7c0.7-0.4,1.3-1.4,1.3-2.3l0-19.6
					C424.3,337.1,423.7,336.1,423,335.7z"/>
				<path fill="#37474F" d="M410.9,366.8l12.1-7c0.7-0.4,1.3-1.4,1.3-2.3l0-19.6c0-0.8-0.6-1.2-1.3-0.8l-12.1,7
					c-0.7,0.4-1.3,1.4-1.3,2.3l0,19.6C409.6,366.9,410.2,367.2,410.9,366.8z"/>
			</g>
			<g>
				<path fill="#455A64" d="M227.8,217.6l-140.4,81c-2.9,1.7-5.2,5.7-5.2,9.1l0,5c0,3.3,2.3,7.4,5.2,9.1L273.1,429
					c2.9,1.7,7.6,1.7,10.5,0l140.4-81c2.9-1.7,5.2-5.7,5.2-9.1l0-5c0-3.3-2.3-7.4-5.2-9.1L238.3,217.6
					C235.4,216,230.7,216,227.8,217.6z"/>
				<path fill="#263238" d="M429.2,333.9v5c0,3.3-2.3,7.4-5.2,9.1l-140.4,81c-1.4,0.8-3.3,1.2-5.2,1.2v-17c1.9,0,3.8-0.4,5.2-1.2
					l140.4-81c2.7-1.6,2.9-4,0.5-5.7C427.2,327,429.2,330.8,429.2,333.9z"/>
				<path fill="#37474F" d="M87.4,304.7c-2.7-1.6-2.9-4.1-0.4-5.8c-2.7,1.8-4.8,5.6-4.8,8.8l0,5c0,3.3,2.3,7.4,5.2,9.1L273.1,429
					c1.4,0.8,3.3,1.3,5.2,1.2v-17c-1.9,0-3.8-0.4-5.2-1.2L87.4,304.7z"/>
			</g>
			<g>
				<path fill="#27DEBF" d="M227.8,189.4l-140.4,81c-2.9,1.7-5.2,5.7-5.2,9.1l0,10.6c0,3.3,2.3,7.4,5.2,9.1l185.7,107.2
					c2.9,1.7,7.6,1.7,10.5,0l140.4-81c2.9-1.7,5.2-5.7,5.2-9.1l0-10.6c0-3.3-2.3-7.4-5.2-9.1L238.3,189.4
					C235.4,187.7,230.7,187.7,227.8,189.4z"/>
				<path opacity="0.8" fill="#FFFFFF" d="M87.4,276.5l185.7,107.2c2.9,1.7,7.6,1.7,10.5,0l140.4-81c2.9-1.7,2.9-4.4,0-6
					L238.3,189.4c-2.9-1.7-7.6-1.7-10.5,0l-140.4,81C84.5,272.1,84.5,274.8,87.4,276.5z"/>
				<path opacity="0.5" fill="#FFFFFF" d="M429.2,305.6v10.6c0,3.3-2.3,7.4-5.2,9.1l-140.4,81c-1.4,0.8-3.3,1.2-5.2,1.2v-22.6
					c1.9,0,3.8-0.4,5.2-1.2l140.4-81c2.7-1.6,2.9-4,0.5-5.7C427.2,298.8,429.2,302.5,429.2,305.6z"/>
				<path opacity="0.6" fill="#FFFFFF" d="M87.4,276.5c-2.7-1.6-2.9-4.1-0.4-5.8c-2.7,1.8-4.8,5.6-4.8,8.8l0,10.6
					c0,3.3,2.3,7.4,5.2,9.1l185.7,107.2c1.4,0.8,3.3,1.3,5.2,1.2v-22.7c-1.9,0-3.8-0.4-5.2-1.2L87.4,276.5z"/>
			</g>
		</g>
		<g>
			<g>
				<path fill="#27DEBF" d="M112,290.7l0,39.6l166.3,96v-41.4c-1.9,0.1-3.6-0.5-5.2-1.2L112,290.7z"/>
				<path opacity="0.3" d="M112,290.7l0,39.6l166.3,96v-41.4c-1.9,0.1-3.6-0.5-5.2-1.2L112,290.7z"/>
			</g>
			<g>
				<path fill="#27DEBF" d="M424,302.6c2.7-1.6,2.9-4,0.5-5.7c2.6,1.8,4.7,5.6,4.7,8.7v10.6v23l-150.9,87.1v-41.4
					c1.8,0,3.5-0.3,5.2-1.2L424,302.6z"/>
				<path opacity="0.45" d="M424,302.6c2.7-1.6,2.9-4,0.5-5.7c2.6,1.8,4.7,5.6,4.7,8.7v10.6v23l-150.9,87.1v-41.4
					c1.8,0,3.5-0.3,5.2-1.2L424,302.6z"/>
			</g>
			<g>
				<path fill="#27DEBF" d="M424,296.6l-161.1-93L112,290.7l161.1,93c2.9,1.7,7.6,1.7,10.5,0l140.4-81
					C426.9,301,426.9,298.3,424,296.6z"/>
				<path opacity="0.2" d="M424,296.6l-161.1-93L112,290.7l161.1,93c2.9,1.7,7.6,1.7,10.5,0l140.4-81
					C426.9,301,426.9,298.3,424,296.6z"/>
				<polygon opacity="0.2" points="131.6,302 131.6,341.7 134.1,343.1 134.1,303.4 				"/>
				<polygon opacity="0.1" points="131.6,302 282.5,214.9 285.1,216.4 134.1,303.4 				"/>
			</g>
		</g>
		<g>
			<path fill="#F0F0F0" d="M262.8,213.3c1.7-6.2-0.8-9.5-4.2-15.2c-3.4-5.8-11.4-16.9-14.6-21.7c-3.3-4.8-6.9-9.5-8.8-10.1
				c-2-0.7-3.3-1.4-8.4,0.4c-5.2,1.9-15.9,8.2-29.2,15.6c-13.3,7.3-31,17.7-31.8,24.9c-0.5,4.4,22.9,43.4,28.6,44
				c12.6,1.3,26-8.1,33-12.4c11.7-7.1,20.1-12.3,28.3-17.8C259.2,218.4,262,216.1,262.8,213.3z"/>
			<path fill="#E0E0E0" d="M171.9,222.7c3.1,5,12.1,18.6,15.2,22.7c3.1,4,8.6,8.6,9.8,3.4c1.3-5.2-3.6-11.7-6.9-16.8
				c-3.3-5.1-12.5-17.2-15.4-21.2c-3-3.9-7.9-7.8-9.1-3.2C164.3,212.3,168.8,217.7,171.9,222.7z"/>
		</g>
		<g>
			<path fill="#F0F0F0" d="M192,254.6c1.7-6.2-0.8-9.5-4.2-15.2c-3.4-5.8-11.4-16.9-14.6-21.7c-3.3-4.8-6.9-9.5-8.8-10.1
				c-2-0.7-3.3-1.4-8.4,0.4c-5.2,1.9-15.9,8.2-29.2,15.6c-13.3,7.3-31,17.7-31.8,24.9c-0.5,4.4,22.9,43.4,28.6,44
				c12.6,1.3,26-8.1,33-12.4c11.7-7.1,20.1-12.3,28.3-17.8C188.4,259.7,191.2,257.5,192,254.6z"/>
			<path fill="#E0E0E0" d="M101,264.1c3.1,5,12.1,18.6,15.2,22.7c3.1,4,8.6,8.6,9.8,3.4c1.3-5.2-3.6-11.7-6.9-16.8
				s-12.5-17.2-15.4-21.2c-3-3.9-7.9-7.8-9.1-3.2C93.5,253.6,97.9,259,101,264.1z"/>
		</g>
	</g>
</g>
<g id="Character">
	<path id="Shadow_3_" opacity="0.2" d="M349.1,299.6c-3.3-1.6-6.8-2.5-10.4-3.3c-7.7-1.6-15.6-2.3-23.2-4.2
		c-8-2.1-15.9-4.3-24.1-5.6c-8.4-1.4-16.6-4-24.5-7.2c-0.3-0.1-0.6-0.3-0.9-0.4c-12.2-4.9-23.9-12.8-36.8-15.6
		c-7.4-1.6-15-1.6-22.4-0.1c-1.6,0.3-3.5,0.9-4.1,2.5c-0.8,2.1,1.2,4.2,2.6,5.9c4.6,5.4,5.2,13.2,9.2,19c4.1,6,12,11.2,18.7,14.1
		c10.2,4.3,17.5,6.8,28,10.5c5.3,1.8,12.7,3.2,17.6,5.9c6.5,3.6,14.3,8.3,20.4,12.5c7.2,4.9,16,9.2,24.6,10.7
		c4.7,0.8,9.8,0.3,13.9-2.2c0.6-0.4,1.2-0.9,1.1-1.6c-0.1-0.7-1-1-1.7-1.2c-1.4-0.3-2.8-0.7-4.3-1c-0.4-0.1-1-0.3-0.9-0.8
		c0-0.4,0.5-0.6,0.9-0.7c0.6-0.2,1.2-0.3,1.7-0.7c0.5-0.4,0.8-1.1,0.5-1.6c-0.3-0.7-1.3-0.8-2.1-0.8c-6.3,0.1-12.7-0.2-18.5-2.8
		c-1.5-0.7-2.8-1.4-2.9-3.1c-0.1-1.8,0.3-3.6,1.5-5c1.2-1.5,3-2.4,4.7-3.2c2.7-1.2,5.5-1.8,8.1-3.3c2.5-1.5,4.7-3.5,6.4-5.9
		c0.4-0.6,0.9-1.3,1.5-1.7c1.2-0.8,2.4-0.5,3.8-0.4c1.6,0.1,3.3,0,4.9,0c3.2-0.1,6.5-0.5,9.5-1.5c0.9-0.3,1.9-0.8,2.4-1.6
		C356,302.6,350.8,300.5,349.1,299.6z"/>
	<g id="Light_1_">
		
			<ellipse transform="matrix(0.7071 -0.7071 0.7071 0.7071 -76.353 320.4053)" opacity="0.1" fill="#27DEBF" cx="348.6" cy="252.4" rx="30.3" ry="30.3"/>
		
			<ellipse transform="matrix(0.7071 -0.7071 0.7071 0.7071 -76.353 320.4053)" opacity="0.1" fill="#27DEBF" cx="348.6" cy="252.4" rx="40.2" ry="40.2"/>
		
			<ellipse transform="matrix(0.1602 -0.9871 0.9871 0.1602 43.6393 556.0296)" opacity="0.1" fill="#27DEBF" cx="348.6" cy="252.4" rx="50.1" ry="50.1"/>
	</g>
	<g id="Character_1_">
		<path fill="#263238" d="M317.1,242.7c-0.1,3.5-0.3,7.1-0.6,10.6c-0.3,2.9-0.6,5.8-1.8,8.4c-1.3,2.9-3.6,5.2-6.2,6.9
			s-5.7,2.7-8.7,3.3c-3.7,0.7-7.8,0.3-11.2-1.5c-2.8-1.5-5.1-4.3-5.2-7.5c-0.1-3.2,2.5-6.4,5.6-6.4c-1.8-1.5-2.7-4-2.3-6.3
			c0.4-2.3,2.1-4.3,4.4-5.1c1.5-0.5,3.1-0.5,4.6-0.7c1.9-0.2,3.7-0.6,5.1-2.1c0.9-1,1.6-2.2,2.1-3.5c1.2-2.6,2.2-5.2,3.6-7.7
			c1.4-2.5,3.2-4.8,5.7-6.1c1.1-0.6,3-1.7,6.7-1.2c1.3,0.2,2.2,0.3,1.6,2.1c-0.3,0.8-2.1,2.5-2.2,3.4c-0.4,2.1-0.9,4.1-1.1,6.2
			C317,237.8,317.1,240.3,317.1,242.7z"/>
		<g id="XMLID_924_">
			<g id="XMLID_4745_">
				<path id="XMLID_4752_" fill="#FFA8A7" d="M347,263.4c0.8-0.4,1.8-5.9,1.4-9.9c-0.4-4,1.4-4.8,2.2-3.4c0.7,1.3,0.8,2.4,0.8,2.4
					s2.8,0.8,4.6,3.2c1.9,2.4,4.1,5.3,2.7,11.1c-0.3,1.1-1.5,2.5-2.1,4.1c-1,2.5-0.2,13.2-1.1,24.3c-0.3,3.2-1.2,8.5-4.2,9.6
					c-3.3,1.1-7.3-2.3-9.7-4.8c-7.3-7.4-13.3-15.1-13.3-15.1l-5.7-27.3c7-2.2,9.6,1.4,13.4,8.3c4.8,8.6,9,17.3,9,17.3
					c1.1-7,1.9-8.3,0.5-11.2"/>
			</g>
			<g id="XMLID_4662_">
				<g id="XMLID_4693_">
					<path id="XMLID_4742_" fill="#27DEBF" d="M360,253.4l-18.4-11.5c-0.4-0.3-0.9-0.3-1.2-0.1c-0.3,0.2-1.5,0.7-1.8,0.9
						c-0.3,0.1-0.6,0.5-0.6,0.9l-1.9,11.2c-0.2,0.9,0.4,2.1,1.2,2.6l18.4,11.5c0.4,0.3,0.8,0.3,1.1,0.2c0.3-0.1,1.6-0.8,1.9-0.9
						c0.3-0.2,0.5-0.5,0.6-0.9c0.5-2.8,1.4-8.4,1.9-11.2C361.3,255.1,360.8,253.9,360,253.4z"/>
					<path id="XMLID_4740_" opacity="0.35" d="M358.1,254.3l-18.4-11.5c-0.4-0.3-0.9-0.3-1.2-0.1c0,0,0.1,0,0.1-0.1
						c0.3-0.1,1.5-0.7,1.8-0.9c0.3-0.2,0.8-0.1,1.2,0.1l18.4,11.5c0.2,0.2,0.5,0.4,0.6,0.6l-1.8,0.9c0,0,0,0.1,0.1,0.1
						C358.7,254.7,358.4,254.4,358.1,254.3z"/>
					<path id="XMLID_4699_" opacity="0.45" d="M337.2,257.4l18.4,11.5c0.8,0.5,1.6,0.2,1.8-0.8c0.5-2.8,1.4-8.4,1.9-11.2
						c0.2-0.9-0.4-2.1-1.2-2.6l-18.4-11.5c-0.8-0.5-1.6-0.2-1.8,0.8l-1.9,11.2C335.9,255.7,336.4,256.9,337.2,257.4z"/>
					<path id="XMLID_4698_" opacity="0.35" d="M357.4,261.2c0.3,0.2,0.5,0.7,0.5,1.2c-0.1,0.4-0.4,0.6-0.7,0.3
						c-0.3-0.2-0.6-0.7-0.5-1.2C356.7,261.1,357.1,261,357.4,261.2z"/>
					<path id="XMLID_4697_" fill="#27DEBF" d="M338.6,256.6c-0.3-0.2-0.6-0.8-0.5-1.2l2-11.2l16.5,10.4c0.3,0.2,0.6,0.8,0.5,1.2
						l-2,11.2L338.6,256.6z"/>
					<path id="XMLID_4696_" opacity="0.7" fill="#FFFFFF" d="M338.6,256.6c-0.3-0.2-0.6-0.8-0.5-1.2l2-11.2l16.5,10.4
						c0.3,0.2,0.6,0.8,0.5,1.2l-2,11.2L338.6,256.6z"/>
					<path id="XMLID_4695_" fill="#27DEBF" d="M355.2,266.5l-0.1,0.5l-16.5-10.4c-0.3-0.2-0.6-0.8-0.5-1.2l2-11.2l0.4,0.3l-1.9,10.7
						c-0.1,0.4,0.2,1,0.5,1.2L355.2,266.5z"/>
					<path id="XMLID_4694_" opacity="0.55" d="M361.2,256c-0.5,2.8-1.5,8.4-1.9,11.2c-0.1,0.4-0.3,0.8-0.6,0.9
						c-0.3,0.2-1.6,0.8-1.9,0.9c0,0,0,0-0.1,0c0.4-0.1,0.6-0.5,0.7-1c0.5-2.8,1.4-8.4,1.9-11.2c0.1-0.7-0.1-1.4-0.5-2l1.8-0.9
						C361,254.6,361.3,255.3,361.2,256z"/>
				</g>
				<path id="XMLID_4690_" fill="#FFA8A7" d="M346.7,263.4c-0.6-0.6-0.6-2.4-1.5-4c-1.1-1.9-4-1.7-3.2-0.2c0.7,1.5,0.9,2.8,1.2,6.6
					c0.3,3.7,1.1,4.1,2.4,6.2l1.5-8.3L346.7,263.4z"/>
			</g>
			<g id="XMLID_946_">
				<g>
					<path fill="#27DEBF" d="M357.2,245.5C357.1,245.5,357.1,245.5,357.2,245.5c-0.5,0-0.8-0.4-0.7-0.8l0.5-5.8
						c0-0.4,0.4-0.7,0.8-0.7c0.4,0,0.7,0.4,0.7,0.8l-0.5,5.8C357.9,245.2,357.6,245.5,357.2,245.5z"/>
				</g>
				<g>
					<path fill="#27DEBF" d="M361.9,247.6c-0.2,0-0.3-0.1-0.5-0.2c-0.3-0.3-0.4-0.7-0.1-1.1l3.9-5.1c0.3-0.3,0.7-0.4,1.1-0.1
						c0.3,0.3,0.4,0.7,0.1,1.1l-3.9,5.1C362.4,247.5,362.1,247.6,361.9,247.6z"/>
				</g>
				<g>
					<path fill="#27DEBF" d="M364.8,252c-0.3,0-0.6-0.2-0.7-0.5c-0.1-0.4,0.1-0.8,0.5-1l5.8-2c0.4-0.1,0.8,0.1,1,0.5
						c0.1,0.4-0.1,0.8-0.5,1l-5.8,2C364.9,252,364.9,252,364.8,252z"/>
				</g>
			</g>
			<path fill="#F28F8F" d="M345,283.2c-0.9,3.2-3,8.8-2,11.5c0,0-3-4.1,0.7-14.1L345,283.2z"/>
		</g>
		<g id="XMLID_910_">
			<g>
				<path id="XMLID_912_" fill="#FFA8A7" d="M225.6,206.4c1.5,0.7,2.9,1.3,3.9,2.7c1.1,1.5,1.6,3.5,1.4,5.3
					c-0.2,1.5-0.9,3.3-0.9,4.8c0,1.6,0.8,4.1,1.3,6.1c2.2,7.5,5.3,14.5,8.6,21.6c2.9,6.3,6.4,12.9,7.8,19.8
					c7.8,1.4,15.7,3.4,19.3,4.2c3.9,0,6.9,0.6,8.3,1.2c12,4.4,13.3,14.3,16.7,20.3l-8.9,8.8c-12.2-6.9-38.2-19-44.6-22
					c-6.4-3-8.7-3.6-10.3-6.3c-1.5-2.5-2.3-5.6-2.9-8.4c-1.9-7.8-2.5-16.5-3.9-24.5c-0.8-4.2-1.6-8.5-2.4-12.7
					c-0.3-1.7-0.7-3.4-1.3-5.1c-0.7-2.2-2-4.3-3.4-6.2c-2.4-3.2-4.9-6.3-7.1-9.7c-0.9-1.3-1.7-2.7-2-4.2c-0.4-1.9,0-3.9,0.7-5.8
					c0.6-1.7,1.2-3.4,1.8-5.2c0.2-0.5,0.4-1.1,0.8-1.5c1.2-1,2.9,0.2,3.7,1.2c0.5,0.7,0.9,1.6,1.5,2.2c0.4,0.4,0.9,0.8,1.4,1.1
					c1.5,1.1,2.7,2.5,3.7,4.1c1,1.6,1.6,3.3,2.6,4.9C222.3,204.6,224,205.6,225.6,206.4z"/>
				<path fill="#F28F8F" d="M231.1,224.7l-8.5,24.3c0,0,0,0,0,0c0.7,5.2,1.4,10.5,2.6,15.5c0.7,2.8,1.4,5.9,2.9,8.4
					c1.6,2.8,3.9,3.3,10.3,6.3c0.1,0.1,0.2,0.1,0.4,0.2c0.1,0.1,0.3,0.1,0.4,0.2c0.2,0.1,0.4,0.2,0.7,0.3c0.2,0.1,0.3,0.2,0.5,0.3
					c0.2,0.1,0.4,0.2,0.6,0.3c0.2,0.1,0.4,0.2,0.6,0.3c0.8,0.4,1.6,0.8,2.5,1.2c0.1,0.1,0.2,0.1,0.3,0.2c0.4,0.2,0.8,0.4,1.2,0.6
					c0.1,0,0.2,0.1,0.3,0.1c0.5,0.2,1,0.5,1.5,0.7c0,0,0.1,0,0.1,0.1c0.6,0.3,1.1,0.5,1.7,0.8c0,0,0,0,0.1,0l2.5-9.6
					c-0.2,0.1-12.3-2-12.3-2s1.7-3.1,2-8.6c0.1-3.2,0.1-9,0-13.5c-0.6-1.2-1.2-2.5-1.7-3.7c-3.3-7.1-6.4-14.1-8.6-21.6
					C231.2,225.1,231.2,224.9,231.1,224.7z"/>
			</g>
			<g>
				<path fill="#27DEBF" d="M280.6,274.8c-2.7-2.2-4.5-2.9-7.7-3.5c-3.2-0.6-4.4-0.4-6.8-0.9c-2.4-0.5-6.3-1.4-6.3-1.4
					s-2.1-0.2-5.5,1.8c-3.5,2-8.5,7.1-9.2,13.8c-0.7,6.6,2.3,9.7,2.3,9.7l20.4,6.3L280.6,274.8z"/>
				<path opacity="0.3" fill="#FFFFFF" d="M280.6,274.8c-2.7-2.2-4.5-2.9-7.7-3.5c-3.2-0.6-4.4-0.4-6.8-0.9
					c-2.4-0.5-6.3-1.4-6.3-1.4s-2.1-0.2-5.5,1.8c-3.5,2-8.5,7.1-9.2,13.8c-0.7,6.6,2.3,9.7,2.3,9.7l20.4,6.3L280.6,274.8z"/>
				<path opacity="0.1" d="M272.7,277.9c-5.3-4.3-13.9-1.7-13.9-1.7s-6.6-1.5-8.9-1.8c-0.8,0.8-1.5,1.8-2.1,2.8l2.6,4.4l9.6,1.9
					C259.9,283.5,278,282.2,272.7,277.9z"/>
			</g>
		</g>
		<g>
			<g>
				<path fill="#FFA8A7" d="M277.9,280.6l-6.3,14.6l-6.6,15.4c-20-6.9-43.2-18.8-47.6-24.8c-2.3-3.1,1.7-19.3,6.1-34.1
					c3.5-11.9,7.3-23,8.2-25.5v0c0-0.1,0.1-0.1,0.1-0.2c0-0.3-0.2-0.5-0.4-0.7c-0.6-2-1.4-4.5-1.4-6.1c0-1.5,0.7-3.3,0.9-4.8
					c0.1-0.4,0.1-0.8,0.1-1.2c0.7-0.2,1.3-0.3,1.9-0.3c1.5-0.1,2.9-0.5,4.4-0.6c2.8-0.2,6.2,0.7,7.3,3.6c0.4,1.2,0.5,2.5,0.4,3.7
					c0,0.4-0.1,0.7-0.2,1.1c-0.6,3.3-2.6,6.3-3.1,9.6c-0.6,4.8-0.9,11.2-1.3,17.7c-0.5,10.7-1.2,21.6-3.7,26.5c0,0,9.7,1,21.2,4.1
					C268.7,275,277.9,280.6,277.9,280.6z"/>
				<path fill="#F28F8F" d="M230.9,214.5c-0.2,1.5-0.9,3.3-0.9,4.8c0,1.6,0.8,4.1,1.4,6.1c0.2,0.2,0.4,0.5,0.4,0.7
					c0.1-1-0.1-2.7-0.4-4.9c-0.3-2.2,1.1-5.6,0.9-8.3c-0.4,0.1-0.9,0.1-1.3,0.3C230.9,213.7,230.9,214.1,230.9,214.5z"/>
				<path opacity="5.000000e-02" d="M227.1,275.7c6.2,0.5,9.6-1.4,9.6-1.4c0.9-1.8,1.4-4,1.9-6.7
					C236.7,273.1,227.1,275.7,227.1,275.7z"/>
			</g>
			<g>
				<path fill="#27DEBF" d="M278.5,280.1c-4.8-2.1-8.5-3.1-12.6-3.3c-4-0.1-6.5,1-8.1,1.1c-1.6,0.1-3.7-1.2-9.1-2.1
					c0,0-1.5-0.5-4.5,1.5c-2.9,1.9-5.8,6.9-6,9.4c0,0,7.3,4.5,6.9,4.9c-0.4,0.4-7.8-2-7.8-2s-1,2.5-0.8,5.7c0.2,2.4,1.9,5.3,1.9,5.3
					s19.9,10,27.5,10.4C273.3,311.4,278.5,280.1,278.5,280.1z"/>
				<path opacity="0.5" fill="#FFFFFF" d="M278.5,280.1c-4.8-2.1-8.5-3.1-12.6-3.3c-4-0.1-6.5,1-8.1,1.1c-1.6,0.1-3.7-1.2-9.1-2.1
					c0,0-1.5-0.5-4.5,1.5c-2.9,1.9-5.8,6.9-6,9.4c0,0,7.3,4.5,6.9,4.9c-0.4,0.4-7.8-2-7.8-2s-1,2.5-0.8,5.7c0.2,2.4,1.9,5.3,1.9,5.3
					s19.9,10,27.5,10.4C273.3,311.4,278.5,280.1,278.5,280.1z"/>
			</g>
		</g>
		<g>
			<path fill="#455A64" d="M311,258.4c-4.8,0.6-12.6,2.9-15.9,4.6c-3.7,1.9-5.4,14.3-7.9,17.9c-1.7-2.2-4.2-4.7-6.7-6.4
				c-2.4-0.2-10.5,3.5-15.1,12.4c-4.9,9.5-3.9,19.1-0.7,24.3c7.3,2.3,16,5.3,30.6,4.2c6.7-0.5,16.2-6,20.8-9.4
				c3-2.2,4.3-3.3,6.7-5.3c10.3-2.1,10.7-11.1,8.8-18.7c-2.2-9.1-2.8-14.5-6.4-20.5C323.6,258.9,318,257.4,311,258.4z"/>
			<path fill="#37474F" d="M318.3,300.5c-2.8,1.7-7.1,1.8-11,0.4c-3.9-1.4-6.1-5.9-6-9.4c0,0-2.2,8,4.8,11
				C313.7,305.8,318.2,301.5,318.3,300.5z"/>
		</g>
		<g id="XMLID_879_">
			<g id="XMLID_896_">
				
					<ellipse transform="matrix(0.9239 -0.3827 0.3827 0.9239 -66.2142 144.553)" fill="#263238" cx="330.3" cy="238.7" rx="15.5" ry="15.5"/>
				<path fill="#FFA8A7" d="M314.1,249.7l-3.7,10.4l-6.4,1.5c0.6,1.9,6.4,16.7,9.6,17.9c2.8,1.1,10.2,1.2,11.7-2.4
					c0.5-1.4-1.6-12.5-1.6-12.5l0.3-0.8L314.1,249.7z"/>
				<path fill="#263238" d="M329.7,253.1c1-0.7,2-1.4,3.3-0.8c0.6,0.3,1,0.8,1.4,1.3c1.8,2.4,2.7,5.4,2.7,8.4
					c-0.1,1.7-0.5,3.5-1.2,5.1c-0.7,1.5-1.8,2.7-2.3,4.2c-0.6,2.1-0.2,4.4,0.1,6.6c0.2,2.2-0.1,4.7-1.5,6.3
					c-0.5-2.2-0.8-3.9-1.6-5.2c-1-1.5-1.8-2.3-3-3.7c-1.5-1.7-2.5-3.1-3.6-5.2c-0.8-1.6-1.2-3.3-1.2-3.3c0,0,1.2-3.1,1.2-3.1
					c0.9-2.1,1.2-3.7,2-5.8c0.4-1.1,0.9-2.2,1.5-3.2C327.9,254.1,329,253.7,329.7,253.1z"/>
				<path fill="#FFA8A7" d="M337.1,232.1l-1,0.5c0,0-11-6.1-17.2-2.7c-6.2,3.4-5.8,10.5-5.3,13.2c-0.1-0.1-0.1-0.1-0.2-0.2
					c-0.3-0.9-0.7-1.7-1.3-2.5c-0.9-1.1-4.6-1.8-6.3,1.5c-1.6,3,0.4,7.1,2.6,8.5c0.2,0.2,0.5,0.3,0.7,0.4c1,0.4,1.9,0.5,2.5,0.5
					c2,0,2.5-1.6,2.5-1.6l0,0l1.2,4.2c0.3,2.2,1.1,4.1,2.1,6.1c1.2,1.3,4.5,3.4,5.2,3.4l1.1,0.4c3.3,1.1,6.7,2.1,8.6,1.6
					c1.9-0.5,5.9-2.7,8-13.7C342.6,238.8,339.4,234,337.1,232.1z"/>
				<path id="XMLID_901_" fill="#263238" d="M309.7,236.1c0.1-0.2-0.1-1.9,0-2.1c2.4-8.3,8.1-12.1,18.2-12.1c2.4,0,6.2,1.1,9.2,3
					c4.1,2.6,2.8,8.3,1.1,12.7c-1,2.5-3.2,4.7-5.9,5.2c-0.4,0.1-0.9,0.1-1.2-0.3c-0.2-0.2-0.1-0.5-0.1-0.8c0.1-1.5,0.2-2.9,0.2-4.4
					c-2.9,4.9-8.2,8.2-13.8,8.8c-0.7,0.1-1.4,0.1-2.1-0.1c-1.4-0.4-1.3-1.3-1.7-2.5c-0.3-0.7-0.6-1.5-1.1-2.2
					c-0.6-0.8-1.7-1.2-2.3-1.9C309.4,238.5,309.5,237.2,309.7,236.1z"/>
				<path id="XMLID_897_" fill="#F28F8F" d="M315,252.5c0,0,0.3,6.3,1.6,8.3c0.4,0.7,2.6,3.5,6.4,4.7l0.8-1.6c0,0-1.6-0.6-2.7-1.2
					c-1.1-0.6-2.2-1.4-2.9-2C316.7,259.1,315.4,253.5,315,252.5z"/>
				<path fill="#F28F8F" d="M323.1,263.6c0,0-2.9,7.9-3.9,9.3c-0.7,0.8-2.1,0.5-3.1,0.1c0,0,1.9,1.7,3.4,0.3
					c1.4-1.3,4.4-9.4,4.4-9.4L323.1,263.6z"/>
			</g>
			<g id="XMLID_880_">
				<path id="XMLID_894_" fill="#263238" d="M328.9,249.3c-0.1,0.8-0.7,1.4-1.5,1.4c-0.8-0.1-1.4-0.8-1.3-1.6
					c0.1-0.8,0.7-1.4,1.5-1.4C328.4,247.8,329,248.5,328.9,249.3z"/>
				<path id="XMLID_893_" fill="#263238" d="M328.6,244.5l-3.4,0.8c-0.2-1,0.4-1.9,1.3-2.1C327.5,242.9,328.4,243.5,328.6,244.5z"/>
				<path id="XMLID_886_" fill="#F28F8F" d="M327.3,256.9l3.9,2.5c-0.7,1.1-2.1,1.5-3.2,0.8C327,259.5,326.6,258.1,327.3,256.9z"/>
				<path id="XMLID_885_" fill="#263238" d="M339.7,245.7l-3.1-1.5c0.4-0.9,1.4-1.3,2.3-0.9C339.7,243.7,340.1,244.8,339.7,245.7z"
					/>
				<path id="XMLID_884_" fill="#263238" d="M338.7,249.3c-0.1,0.8-0.7,1.4-1.5,1.4c-0.8-0.1-1.4-0.8-1.3-1.6
					c0.1-0.8,0.7-1.4,1.5-1.4C338.2,247.8,338.8,248.5,338.7,249.3z"/>
				<polygon id="XMLID_883_" fill="#F28F8F" points="333,248.5 331.7,257 335.9,256.5 				"/>
			</g>
		</g>
		<g>
			<path fill="#FFA8A7" d="M298.6,261.6c-9.3,2.2-12.4,6.4-13.6,21.3c-0.6,7.3-1.7,25.3-1.2,29.1c0.7,5.2,1.1,8,4.1,10.2
				c4.7,3.4,27.4,16.4,33.3,18.4c4.8,1.7,10.9,2.3,15.6,0.2c0.9-0.4,1.9-1.1,1.7-2.1c-0.1-0.5-0.5-0.9-1-1.1c-0.5-0.2-1-0.2-1.5-0.3
				c-3.3-0.3-6.6-1.1-9.7-2.4c-0.3-0.1-0.7-0.4-0.5-0.7c0.1-0.2,0.3-0.2,0.5-0.2c2-0.3,4.2-0.5,5.7-2c1-1,0.2-2-3-1.8
				c-3.1,0.3-7.1-1.6-11.1-1.1l-19.8-16.3l2.4-26.9C300.5,285.8,303.7,266.4,298.6,261.6z"/>
		</g>
	</g>
</g>
</svg>
