<svg xmlns="http://www.w3.org/2000/svg" xmlns:xlink="http://www.w3.org/1999/xlink" viewBox="0 0 724 111.1"><defs><clipPath id="a"><path d="M179.4,85.9s48-26.3,75-26.3,40.7-35.9,40.7-35.9L293.9,7.6H403l-1,16.1s33.4,40,60.1,40c45.4,0,59.4,22.2,59.4,22.2v28.4H179.4Z" fill="none"/></clipPath></defs><path d="M13.5,0V31.5a24.7,24.7,0,0,1,7.1-7,16.9,16.9,0,0,1,8.5-2.3,16.1,16.1,0,0,1,10.2,3.2,18.2,18.2,0,0,1,5.9,9.2q1.2,4.4,1.2,14.7V85.9H32.9V53c0-7.7-.5-12.4-1.4-14.3s-3.7-3.9-7-3.9A9.2,9.2,0,0,0,16.4,39c-1.9,2.8-2.9,8-2.9,15.7V85.9H0V0Z" fill="#0fb293"/><path d="M70.2,42.6,58,39.9c1.5-6.3,3.9-10.8,7.3-13.6s8.3-4.1,14.8-4.1,10,.8,13,2.4a14.6,14.6,0,0,1,6.5,6.5c1.2,2.8,1.9,7.8,1.9,15.1V65.4a86.6,86.6,0,0,0,.6,12,37.8,37.8,0,0,0,2.4,8.5H91.1l-1.8-6.8a25.8,25.8,0,0,1-7.4,6.1,17.4,17.4,0,0,1-8.4,2.1,16.2,16.2,0,0,1-12.2-5C58.2,79,56.6,74.5,56.6,69a20.2,20.2,0,0,1,1.9-9.2,15.2,15.2,0,0,1,5.4-6.3c2.4-1.6,6.1-3,11.3-4.2a67.8,67.8,0,0,0,13.1-4c0-3.5-.3-5.8-.8-6.8a5.9,5.9,0,0,0-2.7-2.7,11.7,11.7,0,0,0-5.5-1,9,9,0,0,0-5.7,1.6C72.2,37.5,71.1,39.6,70.2,42.6ZM88.3,56c-1.8.7-4.4,1.5-8.1,2.5s-6.9,2.3-8.2,3.6a6.9,6.9,0,0,0-1.9,5.2,9,9,0,0,0,2.1,6,7,7,0,0,0,5.4,2.4,10,10,0,0,0,5.7-1.9,12.3,12.3,0,0,0,3.9-4.7c.7-1.8,1.1-5.1,1.1-9.8Z" fill="#0fb293"/><path d="M127.8,85.9H114.3V23.7h12.5v8.8c2.1-4.1,4.1-6.9,5.8-8.3a9.1,9.1,0,0,1,5.8-2,14.6,14.6,0,0,1,8.9,3.1l-4.2,14.3c-2.3-1.7-4.4-2.6-6.4-2.6a6.7,6.7,0,0,0-4.9,2c-1.4,1.4-2.5,3.9-3.1,7.6s-.9,10.3-.9,20Z" fill="#0fb293"/><path d="M153.1,85.9V23.7h13.5V85.9Z" fill="#0fb293"/><path d="M179.4,23.7h12.4v8.4a24.5,24.5,0,0,1,7.3-7.4,15.7,15.7,0,0,1,8.6-2.5,14.2,14.2,0,0,1,8.5,2.5,17.2,17.2,0,0,1,5.9,7.4,25.7,25.7,0,0,1,7.3-7.4,14.9,14.9,0,0,1,8.3-2.5,15.6,15.6,0,0,1,9,2.5,15.1,15.1,0,0,1,5.7,7.1c1.3,3.1,2,7.8,2,14.3V85.9H240.9V50.3c0-6.3-.6-10.4-1.7-12.4a5.7,5.7,0,0,0-5.5-3.1c-3,0-5.4,1.4-7.2,4.3s-2.8,8.5-2.8,16.9V85.9H210.2V51.7c0-6.7-.4-11.1-1.1-13s-3-3.9-6-3.9a8.5,8.5,0,0,0-5.5,2,12,12,0,0,0-3.6,5.8c-.7,2.6-1.1,6.9-1.1,13V85.9H179.4Z" fill="#0fb293"/><path d="M267.9,85.9V23.7h13.5V85.9Z" fill="#0fb293"/><path d="M414.1,89.9l15.4,2.3c.3,2.3,1,3.9,2.2,4.9a9.4,9.4,0,0,0,5.6,1.4,14.8,14.8,0,0,0,7.2-1.5,6.6,6.6,0,0,0,3-3.5c.7-1.6,1.1-4.5,1.1-8.6V75.8c-2.1,3.3-4.3,5.9-6.9,7.5a14.6,14.6,0,0,1-8.4,2.6c-5.7,0-10.4-2.6-14.3-7.7s-6.7-13.8-6.7-23.8,2.1-18.7,6.3-24.1,9.3-8.1,15.3-8.1a15.4,15.4,0,0,1,8.6,2.5,24,24,0,0,1,7,7.7V23.7h12.6V79.5c0,8.9-.8,15.4-2.5,19.4a17.9,17.9,0,0,1-7.5,9.1c-3.5,2.1-8.2,3.1-14.2,3.1a35.9,35.9,0,0,1-13.5-2.2,16.8,16.8,0,0,1-7.7-6.7A19.8,19.8,0,0,1,414.1,92Zm12-36.5c0,6.7,1.1,11.5,3.2,14.6s4.7,4.6,7.7,4.6,6-1.6,8.4-4.7,3.4-7.8,3.4-14.1-1.1-11.2-3.3-14.4-4.9-4.6-8.2-4.6-5.8,1.5-8,4.6S426.1,47.1,426.1,53.4Z" fill="#0fb293"/><path d="M508.9,85.9V76.5a21.2,21.2,0,0,1-7.4,8,17.5,17.5,0,0,1-9.5,2.8,16.1,16.1,0,0,1-9-2.6,15.8,15.8,0,0,1-5.9-7.5c-1.3-3.3-2-8-2-14.2V23.7h13.5V52.2q0,12.3.6,15.6a9.1,9.1,0,0,0,2.8,5.1,7.5,7.5,0,0,0,5,1.8,10,10,0,0,0,6.3-2.3,11.4,11.4,0,0,0,3.7-6.1c.7-2.5,1-8,1-16.4V23.7h13.5V85.9Z" fill="#0fb293"/><g clip-path="url(#a)"><path d="M179.4,23.7h12.4v8.4a24.5,24.5,0,0,1,7.3-7.4,15.7,15.7,0,0,1,8.6-2.5,14.2,14.2,0,0,1,8.5,2.5,17.2,17.2,0,0,1,5.9,7.4,25.7,25.7,0,0,1,7.3-7.4,14.9,14.9,0,0,1,8.3-2.5,15.6,15.6,0,0,1,9,2.5,15.1,15.1,0,0,1,5.7,7.1c1.3,3.1,2,7.8,2,14.3V85.9H240.9V50.3c0-6.3-.6-10.4-1.7-12.4a5.7,5.7,0,0,0-5.5-3.1c-3,0-5.4,1.4-7.2,4.3s-2.8,8.5-2.8,16.9V85.9H210.2V51.7c0-6.7-.4-11.1-1.1-13s-3-3.9-6-3.9a8.5,8.5,0,0,0-5.5,2,12,12,0,0,0-3.6,5.8c-.7,2.6-1.1,6.9-1.1,13V85.9H179.4Z" fill="#36f"/><path d="M267.9,15.2V0h13.5V15.2Zm0,70.7V23.7h13.5V85.9Z" fill="#36f"/><path d="M341.6,85.9H328.1V54.1c0-6.4-.3-10.6-.8-12.7a8.7,8.7,0,0,0-2.8-4.9,7.6,7.6,0,0,0-4.8-1.7,9.4,9.4,0,0,0-6.1,2.2,12,12,0,0,0-3.9,6.1c-.7,2.5-1.1,7.4-1.1,14.6V85.9H295.1V23.7h12.5v9a26,26,0,0,1,7.5-7.9,17.6,17.6,0,0,1,9.3-2.6,15.7,15.7,0,0,1,10,3.1,15.4,15.4,0,0,1,5.6,7.9c1.1,3.2,1.6,7.9,1.6,14Z" fill="#36f"/><path d="M354,89.9l15.5,2.3c.2,2.3.9,3.9,2.1,4.9a9.4,9.4,0,0,0,5.6,1.4,15.5,15.5,0,0,0,7.3-1.5,6.9,6.9,0,0,0,2.9-3.5c.7-1.6,1.1-4.5,1.1-8.6V75.8a22,22,0,0,1-6.9,7.5,14.6,14.6,0,0,1-8.4,2.6c-5.7,0-10.4-2.6-14.3-7.7s-6.7-13.8-6.7-23.8,2.1-18.7,6.3-24.1,9.3-8.1,15.3-8.1a15.2,15.2,0,0,1,8.6,2.5,24,24,0,0,1,7,7.7V23.7H402V79.5c0,8.9-.8,15.4-2.4,19.4A18.6,18.6,0,0,1,392,108c-3.4,2.1-8.2,3.1-14.2,3.1s-10.1-.8-13.4-2.2a15.9,15.9,0,0,1-7.7-6.7A18.9,18.9,0,0,1,354,92Zm12.1-36.5c0,6.7,1,11.5,3.2,14.6s4.6,4.6,7.7,4.6,6-1.6,8.3-4.7,3.4-7.8,3.4-14.1-1.1-11.2-3.3-14.4-4.9-4.6-8.2-4.6-5.8,1.5-7.9,4.6S366.1,47.1,366.1,53.4Z" fill="#36f"/><path d="M414.1,89.9l15.4,2.3c.3,2.3,1,3.9,2.2,4.9a9.4,9.4,0,0,0,5.6,1.4,14.8,14.8,0,0,0,7.2-1.5,6.6,6.6,0,0,0,3-3.5c.7-1.6,1.1-4.5,1.1-8.6V75.8c-2.1,3.3-4.3,5.9-6.9,7.5a14.6,14.6,0,0,1-8.4,2.6c-5.7,0-10.4-2.6-14.3-7.7s-6.7-13.8-6.7-23.8,2.1-18.7,6.3-24.1,9.3-8.1,15.3-8.1a15.4,15.4,0,0,1,8.6,2.5,24,24,0,0,1,7,7.7V23.7h12.6V79.5c0,8.9-.8,15.4-2.5,19.4a17.9,17.9,0,0,1-7.5,9.1c-3.5,2.1-8.2,3.1-14.2,3.1a35.9,35.9,0,0,1-13.5-2.2,16.8,16.8,0,0,1-7.7-6.7A19.8,19.8,0,0,1,414.1,92Zm12-36.5c0,6.7,1.1,11.5,3.2,14.6s4.7,4.6,7.7,4.6,6-1.6,8.4-4.7,3.4-7.8,3.4-14.1-1.1-11.2-3.3-14.4-4.9-4.6-8.2-4.6-5.8,1.5-8,4.6S426.1,47.1,426.1,53.4Z" fill="#36f"/><path d="M508.9,85.9V76.5a21.2,21.2,0,0,1-7.4,8,17.5,17.5,0,0,1-9.5,2.8,16.1,16.1,0,0,1-9-2.6,15.8,15.8,0,0,1-5.9-7.5c-1.3-3.3-2-8-2-14.2V23.7h13.5V52.2q0,12.3.6,15.6a9.1,9.1,0,0,0,2.8,5.1,7.5,7.5,0,0,0,5,1.8,10,10,0,0,0,6.3-2.3,11.4,11.4,0,0,0,3.7-6.1c.7-2.5,1-8,1-16.4V23.7h13.5V85.9Z" fill="#36f"/></g><path d="M539.7,63.7c-3.5,0-6,1.1-7.7,3.4a13.1,13.1,0,0,0-2.5,7.7,12.6,12.6,0,0,0,2.5,8.1c1.7,2,4.2,3,7.7,3s6-1.2,7.7-3.5a13,13,0,0,0,2.5-7.6,11.9,11.9,0,0,0-2.5-8.1C545.7,64.7,543.2,63.7,539.7,63.7Z" fill="#36f"/><path d="M574.6,46.1a13.8,13.8,0,0,1,14.8.1,16.4,16.4,0,0,1,5.9,5.2l5-6.3a18,18,0,0,0-7.5-6.7,26,26,0,0,0-11.6-2.7,22.4,22.4,0,0,0-11.5,3.2,23.3,23.3,0,0,0-8.1,8.7,26.9,26.9,0,0,0,0,24.7,24.1,24.1,0,0,0,8.1,8.7,22.4,22.4,0,0,0,11.5,3.2,26.7,26.7,0,0,0,7.9-1.3,27.5,27.5,0,0,0,6.6-3.4,17.9,17.9,0,0,0,4.6-4.5l-5-6.2a30.9,30.9,0,0,1-5.4,4.8,13.7,13.7,0,0,1-7.7,2.3,13.5,13.5,0,0,1-7.3-2.1,15.8,15.8,0,0,1-5.5-5.7,16.7,16.7,0,0,1-2.1-8.2,18.1,18.1,0,0,1,2-8.2A15.8,15.8,0,0,1,574.6,46.1Z" fill="#36f"/><path d="M637.4,38.9a24.1,24.1,0,0,0-24,0,22,22,0,0,0-8.6,8.5A25,25,0,0,0,601.7,60a24.9,24.9,0,0,0,3.1,12.5,22.9,22.9,0,0,0,8.6,8.6,24.8,24.8,0,0,0,24,0,22.6,22.6,0,0,0,8.5-8.6A24,24,0,0,0,649.1,60a24.1,24.1,0,0,0-3.2-12.6A21.7,21.7,0,0,0,637.4,38.9Zm.6,29.3a14.7,14.7,0,0,1-5.2,5.6,13.7,13.7,0,0,1-7.4,2,13.9,13.9,0,0,1-12.6-7.6A15.9,15.9,0,0,1,611,60a15.8,15.8,0,0,1,1.8-8.3,14.2,14.2,0,0,1,25.2,0,16.8,16.8,0,0,1,1.8,8.3A16.9,16.9,0,0,1,638,68.2Z" fill="#36f"/><path d="M722.6,45.5a13.9,13.9,0,0,0-4.7-7c-2.2-1.7-5.4-2.6-9.4-2.6a15.7,15.7,0,0,0-6.8,1.5,22.1,22.1,0,0,0-5.6,3.8,20.2,20.2,0,0,0-3.7,4.5,13.6,13.6,0,0,0-5-7.2,15,15,0,0,0-9.2-2.6,15.3,15.3,0,0,0-8.6,2.6,19.2,19.2,0,0,0-6,5.7V36.7h-9.2V83.3h9.2v-28a10.3,10.3,0,0,1,1.5-5.5,11.7,11.7,0,0,1,10.2-5.5c3.3,0,5.6,1.1,7,3.2a13.7,13.7,0,0,1,2.1,8.1V83.2h9.3V55.4a10.1,10.1,0,0,1,3.3-7.8,11.7,11.7,0,0,1,8.5-3.3c3.6,0,6,1.1,7.3,3.2a15.6,15.6,0,0,1,2,8.4V83.3H724v-28A29.8,29.8,0,0,0,722.6,45.5Z" fill="#36f"/></svg>