<svg id="Layer_1" data-name="Layer 1" xmlns="http://www.w3.org/2000/svg" viewBox="0 0 781 111.09"><defs><style>.cls-1{fill:none;}.cls-2{fill:#0dad8e;}.cls-3{fill:#0038de;}</style></defs><path class="cls-1" d="M135.19,57.1a23.54,23.54,0,0,0-8.28-9.4,22.26,22.26,0,0,0-12.42-3.47,22,22,0,0,0-12.13,3.4A23.07,23.07,0,0,0,94.07,57a29.71,29.71,0,0,0-3,13.46,30.16,30.16,0,0,0,3,13.53,23.43,23.43,0,0,0,8.29,9.47,21.67,21.67,0,0,0,12.13,3.48,22.19,22.19,0,0,0,12.42-3.48,23.41,23.41,0,0,0,8.28-9.47,30.16,30.16,0,0,0,3-13.53A29.36,29.36,0,0,0,135.19,57.1Z"/><path class="cls-1" d="M370.82,61.09a16.91,16.91,0,0,0-3.33-8.88,20.07,20.07,0,0,0-7.17-6,20.36,20.36,0,0,0-9.17-2.14,28.18,28.18,0,0,0-15.24,4.07q-6.51,4.07-8.58,14h43.49Z"/><path class="cls-2" d="M57,34.46q-5.78-4.28-16.27-4.29a28.06,28.06,0,0,0-15.09,4.22,32.16,32.16,0,0,0-10.35,9.69V0H0V109.46H15.24v-47a16.57,16.57,0,0,1,2.66-9.17,19.68,19.68,0,0,1,7.25-6.66,21.51,21.51,0,0,1,10.5-2.51q6.36-.45,9.91,2.07a13.53,13.53,0,0,1,5,7,31.91,31.91,0,0,1,1.48,10.06v46.3H67.3V62.12A53.25,53.25,0,0,0,65,46,22.46,22.46,0,0,0,57,34.46Z"/><path class="cls-2" d="M152.94,109.46V31.8H137.56V42a33.56,33.56,0,0,0-9.84-8.28,28,28,0,0,0-14.27-3.56,37.49,37.49,0,0,0-19.53,5.11,35.9,35.9,0,0,0-13.46,14.2,43.61,43.61,0,0,0-4.88,20.93,45.06,45.06,0,0,0,4.74,21,36.5,36.5,0,0,0,12.79,14.35,32.33,32.33,0,0,0,17.83,5.18,30.08,30.08,0,0,0,16.12-4.29,36.5,36.5,0,0,0,10.5-9.17v12ZM135.19,83.94a23.41,23.41,0,0,1-8.28,9.47,22.19,22.19,0,0,1-12.42,3.48,21.67,21.67,0,0,1-12.13-3.48,23.43,23.43,0,0,1-8.29-9.47,30.16,30.16,0,0,1-3-13.53,29.71,29.71,0,0,1,3-13.46,23.07,23.07,0,0,1,8.29-9.32,22,22,0,0,1,12.13-3.4,22.26,22.26,0,0,1,12.42,3.47,23.54,23.54,0,0,1,8.28,9.4,29.36,29.36,0,0,1,3,13.31A30.16,30.16,0,0,1,135.19,83.94Z"/><path class="cls-2" d="M182.23,94V66.56a18.77,18.77,0,0,1,3-10.72,20.84,20.84,0,0,1,7.62-7A19.37,19.37,0,0,1,206.71,47a17.44,17.44,0,0,1,3.62,1.26l4-16.57a19.42,19.42,0,0,0-8.43-1.48,23.84,23.84,0,0,0-13.83,4.59,28.51,28.51,0,0,0-9.84,11.69V31.8H166.85v77.66h1.92A135.87,135.87,0,0,1,182.23,94Z"/><path class="cls-2" d="M237.11,31.8H221.87V66.74A133.57,133.57,0,0,1,237.11,61Z"/><path class="cls-2" d="M265.21,52.07a7.77,7.77,0,0,1,2.07-5.85,10.88,10.88,0,0,1,5.11-2.73,25.9,25.9,0,0,1,6.13-.74,21.7,21.7,0,0,1,9.69,2.66,37.19,37.19,0,0,1,9.4,6.8l8.72-9.61a30.59,30.59,0,0,0-13.46-9.47,44.41,44.41,0,0,0-15.09-3,34.11,34.11,0,0,0-13.6,2.74A25.9,25.9,0,0,0,253.9,40.6,18.59,18.59,0,0,0,250,52.51a28.37,28.37,0,0,0,.44,5,135.17,135.17,0,0,1,15.43-2.21A9.5,9.5,0,0,1,265.21,52.07Z"/><path d="M383,99.25"/><path d="M370.53,91.83q5,4.68,9.43,9.84"/><path class="cls-2" d="M386.21,74.25l.14-6.5a39.48,39.48,0,0,0-4.73-19.68A35.42,35.42,0,0,0,368.9,34.83,33.81,33.81,0,0,0,351.15,30,40.21,40.21,0,0,0,331.48,35,38.17,38.17,0,0,0,312.85,59.5a135,135,0,0,1,34.58,14.75Zm-50.3-26.1a28.18,28.18,0,0,1,15.24-4.07,20.36,20.36,0,0,1,9.17,2.14,20.07,20.07,0,0,1,7.17,6,16.91,16.91,0,0,1,3.33,8.88v1H327.33Q329.4,52.22,335.91,48.15Z"/><path class="cls-2" d="M452.47,34.46q-5.76-4.28-16.27-4.29a28.11,28.11,0,0,0-15.09,4.22,32.37,32.37,0,0,0-10.35,9.69V31.8H395.52v77.66h15.24v-47a16.65,16.65,0,0,1,2.66-9.17,19.75,19.75,0,0,1,7.25-6.66,21.56,21.56,0,0,1,10.5-2.51q6.36-.45,9.91,2.07a13.42,13.42,0,0,1,5,7,31.63,31.63,0,0,1,1.48,10.06v46.3h15.24V62.12A53.24,53.24,0,0,0,460.53,46,22.4,22.4,0,0,0,452.47,34.46Z"/><rect class="cls-2" x="478.95" y="31.8" width="15.24" height="77.66"/><path class="cls-2" d="M566.81,34.46q-5.77-4.28-16.27-4.29a28.11,28.11,0,0,0-15.09,4.22,32.16,32.16,0,0,0-10.35,9.69V31.8H509.86v77.66H525.1v-47a16.57,16.57,0,0,1,2.66-9.17A19.68,19.68,0,0,1,535,46.59a21.51,21.51,0,0,1,10.5-2.51q6.36-.45,9.91,2.07a13.48,13.48,0,0,1,5,7,31.91,31.91,0,0,1,1.48,10.06v46.3h15.23V62.12A53.25,53.25,0,0,0,574.87,46,22.4,22.4,0,0,0,566.81,34.46Z"/><path class="cls-3" d="M596.69,88.9c-3.46,0-6,1.13-7.7,3.4a12.65,12.65,0,0,0-2.51,7.69,12.24,12.24,0,0,0,2.51,8.06c1.68,2,4.24,3,7.7,3s6-1.16,7.69-3.48a12.77,12.77,0,0,0,2.51-7.62,12.26,12.26,0,0,0-2.51-8.06Q601.86,88.9,596.69,88.9Z"/><path class="cls-3" d="M631.58,71.27a14,14,0,0,1,7.54-2.08,14.6,14.6,0,0,1,7.31,2.17,17.18,17.18,0,0,1,5.81,5.19l5.06-6.21a18.21,18.21,0,0,0-7.54-6.78,24.64,24.64,0,0,0-11.53-2.62,21.51,21.51,0,0,0-11.53,3.19,22.89,22.89,0,0,0-8.11,8.65,27.16,27.16,0,0,0,0,24.7,22.85,22.85,0,0,0,8.11,8.69,21.51,21.51,0,0,0,11.53,3.19,23.74,23.74,0,0,0,7.81-1.29,25.81,25.81,0,0,0,6.65-3.37,19.13,19.13,0,0,0,4.61-4.47L652.24,94a26.85,26.85,0,0,1-5.32,4.79,13.12,13.12,0,0,1-7.71,2.3A13.82,13.82,0,0,1,631.89,99a15.86,15.86,0,0,1-5.5-5.68,16,16,0,0,1-2.08-8.2,16.9,16.9,0,0,1,2-8.2A14.85,14.85,0,0,1,631.58,71.27Z"/><path class="cls-3" d="M694.41,64.05a23.56,23.56,0,0,0-12-3.11,23.81,23.81,0,0,0-12.06,3.11,22.86,22.86,0,0,0-8.55,8.55,24.65,24.65,0,0,0-3.15,12.55,24.65,24.65,0,0,0,3.15,12.55,22.88,22.88,0,0,0,8.55,8.56,23.81,23.81,0,0,0,12.06,3.1,23.55,23.55,0,0,0,12-3.1,23.07,23.07,0,0,0,8.51-8.56,24.65,24.65,0,0,0,3.15-12.55,24.65,24.65,0,0,0-3.15-12.55A23,23,0,0,0,694.41,64.05Zm.53,29.3A14.41,14.41,0,0,1,689.75,99a13.66,13.66,0,0,1-7.36,2,13.85,13.85,0,0,1-7.4-2,14.28,14.28,0,0,1-5.23-5.63,16.41,16.41,0,0,1-1.82-8.2,16.61,16.61,0,0,1,1.82-8.29,14.16,14.16,0,0,1,25.18,0,16.72,16.72,0,0,1,1.82,8.29A16.52,16.52,0,0,1,694.94,93.35Z"/><path class="cls-3" d="M779.63,70.74a13.88,13.88,0,0,0-4.75-7q-3.37-2.61-9.4-2.61a15.75,15.75,0,0,0-6.83,1.51,21.14,21.14,0,0,0-5.58,3.77,19.18,19.18,0,0,0-3.64,4.47,14.43,14.43,0,0,0-5-7.14c-2.31-1.74-5.38-2.61-9.23-2.61a15.38,15.38,0,0,0-8.64,2.53,20.59,20.59,0,0,0-6,5.72V61.92h-9.22v46.55h9.22v-28A10.09,10.09,0,0,1,722.12,75a11.33,11.33,0,0,1,4.17-4,12,12,0,0,1,6-1.51q4.88,0,7,3.2a14.37,14.37,0,0,1,2.13,8.15v27.58h9.22V80.63A10.54,10.54,0,0,1,754,72.78a11.62,11.62,0,0,1,8.47-3.24c3.6,0,6.06,1.07,7.36,3.2a15.78,15.78,0,0,1,1.95,8.33v27.4H781V80.54A32.92,32.92,0,0,0,779.63,70.74Z"/><path class="cls-3" d="M182.23,94a135.87,135.87,0,0,0-13.46,15.48h13.46Z"/><path class="cls-3" d="M237.11,109.46V61a133.57,133.57,0,0,0-15.24,5.79v42.72Z"/><path class="cls-3" d="M264.25,73a104.56,104.56,0,0,0,12.5,4.36c2.86.69,5.47,1.46,7.84,2.29a16.16,16.16,0,0,1,5.69,3.26,7.2,7.2,0,0,1,2.15,5.54,8.25,8.25,0,0,1-2,5.85,11.53,11.53,0,0,1-4.81,3.1,17,17,0,0,1-5.62,1,27.52,27.52,0,0,1-12.5-2.58,30,30,0,0,1-9.09-7.18l-10.36,8.88a31.33,31.33,0,0,0,14,10.43,47.72,47.72,0,0,0,16.64,3,34.31,34.31,0,0,0,13.54-2.74,26,26,0,0,0,10.5-7.91,19.51,19.51,0,0,0,4.07-12.43q0-8.43-3.78-13.09a24.18,24.18,0,0,0-9.54-7.1,90.73,90.73,0,0,0-11.83-4.07,64,64,0,0,1-11.61-4,7.88,7.88,0,0,1-4.17-4.28,135.17,135.17,0,0,0-15.43,2.21A17.13,17.13,0,0,0,254,65.6,26.84,26.84,0,0,0,264.25,73Z"/><path class="cls-3" d="M316.68,91.78a36.93,36.93,0,0,0,14.43,14,45.73,45.73,0,0,0,38.68,1.56A49,49,0,0,0,380,101.67q-4.47-5.16-9.43-9.84c-1.07.71-2.18,1.44-3.41,2.17q-5,3-13.16,3-11.25,0-18.56-6.14t-8.66-16.64h20.69A135,135,0,0,0,312.85,59.5a50.59,50.59,0,0,0-1.34,11.94A39.85,39.85,0,0,0,316.68,91.78Z"/></svg>