<?xml version="1.0" encoding="utf-8"?>
<!-- Generator: Adobe Illustrator 26.0.3, SVG Export Plug-In . SVG Version: 6.00 Build 0)  -->
<svg version="1.1" id="Ñëîé_1" xmlns="http://www.w3.org/2000/svg" xmlns:xlink="http://www.w3.org/1999/xlink" x="0px" y="0px"
	 viewBox="0 0 2000 2000" enable-background="new 0 0 2000 2000" xml:space="preserve">
<rect id="_x38_" display="none" fill="#FFFFFF" width="2000" height="2000"/>
<path fill="#222" d="M1993.1,1025.1c-89.1,685.8-617.7,1078.1-1159.5,951.3C266.5,1843.6,0,1581.5,0,1025.1
	s250.8-690.7,986.9-776.6C1539.6,183.9,2064.8,473.3,1993.1,1025.1z"/>
<g id="_x37_">
	<path fill="#7689D6" d="M1839.9,1041c-23.7-26.9-57.4-41.6-97.6-42.3l-0.1,0l-0.1,0c-40.2,0.7-73.9,15.3-97.6,42.3
		c-21,23.9-32.6,55.8-32.6,89.8c0,34.1,11.6,66,32.6,89.9c23.7,26.9,57.4,41.6,97.6,42.3l0.1,0l0.1,0c40.2-0.7,73.9-15.3,97.6-42.3
		c21-23.9,32.6-55.8,32.6-89.8C1872.5,1096.8,1860.9,1064.9,1839.9,1041z M1841.8,1130.8c0,47.8-31.2,99.9-99.6,101.1
		c-68.4-1.3-99.6-53.3-99.6-101.1c0-47.8,31.2-99.9,99.6-101.1C1810.6,1031,1841.8,1083,1841.8,1130.8z"/>
	<path fill="#EB5648" d="M1755.8,1186.4c-12.1,4.5-73.7-68.3-82.6-74.1c-18.8-18.9,9.9-47.6,28.8-28.8c0,0,53.7,53.7,53.7,53.7
		l120.8-120.8c18.9-18.7,47.6,9.9,28.8,28.8C1899.6,1047.9,1762.2,1196.7,1755.8,1186.4z"/>
</g>
<g id="_x36_">
	<path fill="#677CC1" d="M381.2,1226c0,61.7-50,111.7-111.7,111.7c-22.3,0-43-6.5-60.5-17.8c-30.8-19.9-51.3-54.5-51.3-93.9
		c0-61.7,50-111.7,111.7-111.7c13.6,0,26.7,2.4,38.8,6.9C350.8,1137,381.2,1178,381.2,1226z"/>
	<path fill="#8A9EDD" d="M359.5,1215.2c0,61.7-50,111.7-111.7,111.7c-13.6,0-26.7-2.4-38.8-6.9c-2.1-1.4-4.2-2.8-6.3-4.4
		c-27.3-20.3-45-52.9-45-89.6c0-61.7,50-111.7,111.7-111.7c11.3,0,22.2,1.7,32.5,4.8c2.1,0.6,4.2,1.4,6.3,2.1
		C339.1,1141.1,359.5,1175.8,359.5,1215.2z"/>
	<path fill="#7689D6" d="M359.5,1215.2c0,61.7-50,111.7-111.7,111.7c-13.6,0-26.7-2.4-38.8-6.9c-2.1-1.4-4.2-2.8-6.3-4.4
		c-18.4-20.9-29.6-48.3-29.6-78.4c0-65.5,53.1-118.6,118.6-118.6c3.4,0,6.9,0.2,10.2,0.4c2.1,0.6,4.2,1.4,6.3,2.1
		C339.1,1141.1,359.5,1175.8,359.5,1215.2z"/>
	<path fill="#FFFFFF" d="M247,1195.6c0,6.6-5.4,12-12,12c-6.6,0-12-5.4-12-12c0-6.6,5.4-12,12-12
		C241.6,1183.6,247,1188.9,247,1195.6z"/>
	<path fill="#FFFFFF" d="M315.9,1195.6c0,6.6-5.4,12-12,12c-6.6,0-12-5.4-12-12c0-6.6,5.4-12,12-12
		C310.5,1183.6,315.9,1188.9,315.9,1195.6z"/>
	<path fill="#FFFFFF" d="M328.8,1222.1c0,32.8-26.6,59.4-59.4,59.4c-32.8,0-59.4-26.6-59.4-59.4H328.8z"/>
</g>
<g id="_x35_">
	<path fill="#7689D6" d="M1840,364v151.9c0,25.2-20.5,45.7-45.7,45.7H1430c-25.2,0-45.7-20.4-45.7-45.7V364
		c0-25.2,20.5-45.7,45.7-45.7h364.3C1819.6,318.3,1840,338.8,1840,364z"/>
	<path fill="#677CC1" d="M1384.3,515.9c0,25.2,20.5,45.7,45.7,45.7h18.6v65.2l88-65.2h257.6c25.2,0,45.7-20.4,45.7-45.7V364
		C1668,536,1384.3,515.9,1384.3,515.9z"/>
	<path fill="#FFFFFF" d="M1673.2,392.6h-242.7c-7,0-12.7-5.7-12.7-12.7s5.7-12.7,12.7-12.7h242.7
		C1689.6,367.3,1689.8,392.5,1673.2,392.6z"/>
	<path fill="#FFFFFF" d="M1528.4,452.6h-97.9c-16.5-0.1-16.6-25.2,0-25.3c0,0,97.9,0,97.9,0C1544.9,427.4,1544.9,452.5,1528.4,452.6
		z"/>
	<path fill="#FFFFFF" d="M1793.9,452.6h-206.6c-7,0-12.7-5.7-12.7-12.7c0-7,5.7-12.7,12.7-12.7h206.6
		C1810.3,427.4,1810.5,452.5,1793.9,452.6z"/>
	<path fill="#FFFFFF" d="M1630.6,512.6h-200.1c-16.5-0.1-16.6-25.2,0-25.3c0,0,200.1,0,200.1,0
		C1647.1,487.4,1647.2,512.6,1630.6,512.6z"/>
	<path fill="#8A9EDD" d="M1773,318.3c-307.1,0-378.5,51.2-388.7,60.2c-3.8-30.3,12.6-60,45.7-60.2C1430,318.3,1773,318.3,1773,318.3
		z"/>
</g>
<g id="_x34_">
	<path fill="#7689D6" d="M198.2,711.7v151.9c0,25.2,20.5,45.7,45.7,45.7h364.3c25.2,0,45.7-20.4,45.7-45.7V711.7
		c0-25.2-20.5-45.7-45.7-45.7H243.9C218.7,666.1,198.2,686.5,198.2,711.7z"/>
	<path fill="#677CC1" d="M653.9,863.6c0,25.2-20.5,45.7-45.7,45.7h-18.6v65.2l-88-65.2H243.9c-25.2,0-45.7-20.4-45.7-45.7V711.7
		C370.2,883.7,653.9,863.6,653.9,863.6z"/>
	<path fill="#FFFFFF" d="M365.1,740.3h242.7c7,0,12.7-5.7,12.7-12.7s-5.7-12.7-12.7-12.7H365.1C348.6,715.1,348.5,740.2,365.1,740.3
		z"/>
	<path fill="#FFFFFF" d="M509.9,800.3h97.9c16.5-0.1,16.6-25.2,0-25.3c0,0-97.9,0-97.9,0C493.3,775.1,493.3,800.3,509.9,800.3z"/>
	<path fill="#FFFFFF" d="M244.4,800.3H451c7,0,12.7-5.7,12.7-12.7S458,775,451,775H244.4C227.9,775.1,227.8,800.3,244.4,800.3z"/>
	<path fill="#FFFFFF" d="M407.6,860.4h200.1c16.5-0.1,16.6-25.2,0-25.3c0,0-200.1,0-200.1,0C391.2,835.1,391,860.3,407.6,860.4z"/>
	<path fill="#8A9EDD" d="M265.2,666.1c307.1,0,378.5,51.2,388.7,60.2c3.8-30.3-12.6-60-45.7-60.2
		C608.2,666.1,265.2,666.1,265.2,666.1z"/>
</g>
<g id="_x33__2_">
	<path fill="#7689D6" d="M741.2,144.7l-0.7,184.5c-0.1,21,16.9,38.2,37.9,38.2l184.5,0.7c21,0.1,38.2-16.9,38.2-37.9l0.7-184.5
		c0.1-21-16.9-38.2-37.9-38.2l-184.5-0.7C758.4,106.7,741.3,123.7,741.2,144.7z"/>
	<path fill="#FFFFFF" d="M811.4,195.6c14.2-14,37-13.9,51,0.2l8.9,9l9-8.9c7.1-7,16.3-10.5,25.6-10.5c9.2,0,18.5,3.6,25.5,10.7
		c14,14.1,13.9,37-0.2,51l-9,8.9L871,306.8l-50.8-51.2l-8.9-9c-7-7.1-10.5-16.3-10.5-25.6C800.8,211.8,804.4,202.6,811.4,195.6z"/>
	<path fill="#677CC1" d="M778.4,367.5l185,0.7c20.8,0.1,37.7-16.7,37.8-37.5l0.4-92.7C1001.6,238,936.2,368.1,778.4,367.5z"/>
	<path fill="#8A9EDD" d="M964,107.5l-184.7-0.7c-21-0.1-38,16.8-38.1,37.8l-0.4,92.4C740.9,237,806.3,106.9,964,107.5z"/>
	<polygon fill="#677CC1" points="870.5,432.5 833.4,367.7 908,368 	"/>
</g>
<g>
	<defs>
		<path id="SVGID_1_" d="M1993.1,1025.1c-89.1,685.8-617.7,1078.1-1159.5,951.3C266.5,1843.6,0,1581.5,0,1025.1
			s250.8-690.7,986.9-776.6C1539.6,183.9,2064.8,473.3,1993.1,1025.1z"/>
	</defs>
	<clipPath id="SVGID_00000132063529190039652060000001782250824110052267_">
		<use xlink:href="#SVGID_1_"  overflow="visible"/>
	</clipPath>
	<g id="_x32_" clip-path="url(#SVGID_00000132063529190039652060000001782250824110052267_)">
		<path fill="#1D3F70" d="M1360.6,2000H662.9c3.4-26.8,8.2-58.1,14.9-90.8c7.6-37.8,17.8-77.5,31-114.2l610.5,6.8
			C1319.2,1801.8,1349.3,1886.2,1360.6,2000z"/>
		<path fill="#F99370" d="M936.6,1222.4c-107.4,29.5-301.8,176.9-367.3,268.2c-61.8,88.8,6,197.8,64.8,269.5c0,0,4.3,5,4.3,5
			l2.1,2.4l1,1.2l0.5,0.5c0.1,0.2,0.1,0.2,0.2,0.4c32.2,36.2-7.3,88.9-49.7,64.3c-61.3-38.6-115.1-90.2-152.1-152.9
			c-58.8-96.3-56.3-223.3,13.4-313.5c90.1-118.5,212.6-219.9,344.2-290c21.7-10.9,43.4-20.5,67.5-28.1
			C1008.5,989.3,1080.4,1183.7,936.6,1222.4z"/>
		<rect x="961.7" y="927.2" fill="#EA876C" width="97" height="114.5"/>
		<path fill="#9358E0" d="M1319.2,1801.8c0,0-334.2,61.5-610.5-6.8c0,0-70.2-28.8,9-387.6c24.2-109.7,34.7-263.8,216.2-385
			c0,0-3.3-27.4,27.6-42c0,0,44,11.4,97-0.3c0,0,30.5,13.1,24.5,41.8C1357.4,1223.7,1347,1801.8,1319.2,1801.8z"/>
		<path fill="#F99370" d="M1169.4,782.1c-11.8,54.4-78.2,40.4-66.9-14.2C1114.2,713.5,1180.6,727.6,1169.4,782.1z"/>
		<path fill="#F99370" d="M844.9,782.1c11.8,54.4,78.2,40.4,66.9-14.2C900,713.5,833.6,727.6,844.9,782.1z"/>
		<path fill="#F99370" d="M1143.6,840.8c-7.6,182.1-299.7,155.4-270.8-27.5c4-36.3,17-60.4,23.1-118.2c14.1-133.8,204.3-141,221.4-1
			C1124,749.3,1144.1,790,1143.6,840.8z"/>
		<path fill="#C16256" d="M1043.7,758.8c-4.4-8.3,8.8-15,12.9-6.6C1061,760.6,1047.9,767.3,1043.7,758.8z"/>
		<path fill="#C16256" d="M956.9,759c-4.4-8.3,8.8-15,12.9-6.6C974.2,760.8,961,767.4,956.9,759z"/>
		<path fill="#C16256" d="M1000.8,815.8c-13.3-0.2-33.9-9.1-17.1-20.9c13.7-7.4,23.7-35.8,23.8-36.1c1.1-3.4,6.4-1.5,5.2,1.8
			c-0.4,1.2-10.9,30.7-26.4,39.1c-10.7,6.6,11.6,12.9,20.9,9.7c1.5-0.5,3,0.3,3.4,1.8C1011.4,816.1,1004.2,815.4,1000.8,815.8z"/>
		<path fill="#E57D61" d="M917.7,686.6c65.7,30.5,141.1-68.8,181.3-23.3l4.9-27.8l-76.6-35.9L905,642.1L917.7,686.6z"/>
		<path fill="#8C4225" d="M1125.3,736.3c0,0-22.9-43.9-26.3-72.9s-42.3-34.1-74.3-11.4c-32,22.7-71.9,33-113.9,17.5
			c-42-15.5-69.1-79.1-26.4-116.6c42.3-37.2,86.2-8.2,124.2,6.2C1057.7,577.7,1180.9,540.2,1125.3,736.3z"/>
		<path fill="#8C4225" d="M890.3,734.2c0,0,34.3-38.9,36.4-90.5l-36.7-14.4C889.9,629.3,875,679.5,890.3,734.2z"/>
		<path fill="#C16256" d="M1155.5,792.9c-1.8,0-3.1-1.8-2.6-3.5c9.4-26.7-0.4-40.4-21.5-32.3c-3.2,1.3-5.2-3.8-2-5
			c22.3-9.1,40.6,5,28.5,38.8C1157.7,792.2,1156.6,792.9,1155.5,792.9z"/>
		<path fill="#C16256" d="M1130.5,789.2c-8.3-0.7,7.5-26.3,27.8-27.7c1.5-0.1,2.8,1,2.8,2.5c0.1,1.5-1,2.8-2.5,2.8
			C1137.9,769,1135.4,788.5,1130.5,789.2z"/>
		<path fill="#C16256" d="M860.4,792.9c-1.1,0-2.2-0.7-2.6-1.9c-12.1-33.8,6.3-48,28.5-38.8c3.2,1.2,1.3,6.3-2,5
			c-19.1-7.8-31.6,4-21.5,32.3C863.6,791.1,862.2,792.9,860.4,792.9z"/>
		<path fill="#C16256" d="M885.4,789.2c-4.9-0.6-7.5-20.2-28.2-22.3c-1.5-0.1-2.6-1.4-2.5-2.8c0.1-1.5,1.4-2.6,2.8-2.5
			C877.9,762.8,893.7,788.5,885.4,789.2z"/>
		<path fill="#8C4225" d="M1143.7,815.1c0-0.1,0-0.1,0-0.2c-2.1-13.1-4.2-24.3-6.4-34.3c-0.5-2.5-1.1-4.9-1.6-7.2
			c-1.3-5.8-2.7-11.2-4.1-16.2c-0.5-1.8-1-3.5-1.4-5.2c-1.6-5.4-3.2-10.6-4.8-15.6c0,0,0-0.1,0-0.1c-0.3-1-0.7-2-1-3
			c-3.3-9.9-6.9-19.7-10.8-30.5c0.4,3.7,1.2,8.2,2.2,13.4c1.3,6.7,3,14.4,4.8,22.7c3,14.1,6.3,29.8,8.3,44.8
			c0.2,1.8,0.5,3.6,0.7,5.3c1.2,9.8,1.7,19.2,1.3,27.4c-1.3,26.9-13.2,42.3-49.6,22.9c-52.1-27.7-108-15.3-154.6,6.8
			c-22,8.2-44.5,6.7-41.7-26.1c0.1-1.3,0.2-2.6,0.3-3.9c1.7-19.5,3.6-46.4,8.5-77.2c0.6-3.9,1.3-7.8,2-11.8c0.9-5,1.9-10.1,2.9-15.3
			c-3.3,5.2-6.1,13-8.5,22.4c-0.2,0.8-0.4,1.5-0.6,2.3c-0.4,1.6-0.8,3.3-1.2,5c0,0.1-0.1,0.3-0.1,0.4c-0.5,1.9-0.9,3.9-1.3,6
			c0,0.2-0.1,0.3-0.1,0.5c-0.3,1.2-0.5,2.4-0.8,3.7c-0.4,1.7-0.7,3.5-1.1,5.3c-1.2,5.6-2.3,11.5-3.5,17.4c-0.5,2.6-1,5.2-1.6,7.8
			c-2.1,10.4-4.5,20.9-7.2,30.8v0c-0.1,0.7-0.2,1.4-0.3,2.1c-0.7,5.1-1.2,10-1.5,14.9c0,0.7-0.1,1.3-0.1,2
			c-3.3,70.7,38.7,114.2,90.8,129.8c31.3,9.4,66.1,8.7,97-2.1C1111.3,941.5,1152.3,893.4,1143.7,815.1z M937.4,863.2
			c19-12.9,44.7-22.8,70.3-23.8c24.2-1,48.3,5.2,67.6,15.5c37.9,22.9,9.5,67.4-25,68.6c-26.9,0.8-22.6-36.1-42.9-35.6
			c-16.3,0.4-13.7,55.7-64.8,34C918,911.7,915.4,878,937.4,863.2z"/>
		<path fill="#C16256" d="M993.1,866.9c-7.8,0-12.6-1.2-13.1-1.3c-3.5-0.8-2.1-6.2,1.4-5.3c0.2,0.1,24,5.8,52.1-9.9
			c1.3-0.7,3-0.3,3.7,1C1034.1,863.8,996.7,867.1,993.1,866.9z"/>
		<path fill="#7640CC" d="M1083.2,1021.8c0.1,0.1,0.2,0.2,0.2,0.4c-74.9,19.4-149.5,0.1-149.4,0.1c0,0-3.3-27.4,27.6-42
			c0,0,44,11.4,97-0.3C1058.7,980,1089.2,993.2,1083.2,1021.8z"/>
		<path fill="#C16256" d="M1071,741c-0.8,0-1.7-0.4-2.2-1.1c-13.4-18.8-38.6-13.5-38.9-13.4c-1.5,0.3-2.9-0.6-3.2-2.1
			c-0.3-1.5,0.6-2.9,2-3.2c1.2-0.3,29-6.2,44.4,15.6c0.9,1.2,0.6,2.9-0.6,3.8C1072.1,740.9,1071.6,741,1071,741z"/>
		<path fill="#C16256" d="M942.5,741c-0.5,0-1.1-0.2-1.6-0.5c-1.2-0.9-1.5-2.6-0.6-3.8c15.5-21.7,43.3-15.8,44.4-15.6
			c1.5,0.3,2.4,1.8,2,3.2c-0.3,1.5-1.8,2.4-3.2,2c-0.3-0.1-25.5-5.3-38.9,13.4C944.2,740.6,943.4,741,942.5,741z"/>
		<path fill="#F99370" d="M981.5,1572.8c0,0-100.7,2.8-133.8-30.8c-13.1-13.3-6.1-36.9-0.1-59.8c6.2-23.3,11.8-45.7,20.7-46.3
			c17.7-1.2,88.7,19.3,136.9,48.6C1005.1,1484.5,1001.5,1537.2,981.5,1572.8z"/>
		<path fill="#F99370" d="M914.8,1446.2l-5.9-31.7c-6.3-20.8-2.1-32.8,7.5-36c10.5-3.5,7.6,11.2,13,24.2c7.6,18.3,38,52.7,50.8,73.7
			C993.6,1498.3,899.1,1471.8,914.8,1446.2z"/>
		<path fill="#F99370" d="M871.3,1556.8c-65.8-19.9-38.6-70.1-6-35.9c0,0-0.1-0.1-0.1-0.1C873.4,1522.9,874.8,1549,871.3,1556.8z"/>
		<path fill="#F99370" d="M876.6,1499.4c-1-0.8-2.2-1.6-3.5-2.2c0,0,0,0,0,0c-1.1-0.7-2.4-1.5-3-2.4c-0.6-8.7-12.2-15-22.2-14.1
			c-17.4,0.5-18,18.3-6.9,29.2C857.6,1530.6,896.7,1521.3,876.6,1499.4z M870.2,1495c0-0.1,0-0.1,0-0.2
			C870.2,1494.8,870.2,1494.9,870.2,1495z"/>
		<path fill="#F99370" d="M880.3,1494.2c-1,0.6-2,1-3.1,1.4l0,0c-14.6,5.6-25.3-5-34.9-13.9c-17.2-18.1,13.5-39,32.7-12.6
			c0.4,0.5,3.7,3.2,4.1,3.6l0,0C887.2,1478.4,889.5,1488.9,880.3,1494.2z"/>
		<path fill="#F99370" d="M884.2,1469.9c-24.8,15.7-80-46.9-6.1-33.5C886.5,1444,900.2,1459.4,884.2,1469.9z"/>
		<path fill="#9358E0" d="M1444,1657.7c-119.6,54-334.2,4.5-438.9-61c-12.4-7.8-23.3-15.8-32.3-23.9c0,0,1.1-60.6,32.3-88.3
			c0,0,15.3,1.4,39,3c66.8,4.5,200,10.7,242.8-9c25.4-11.7,5-91.6,5-91.6s-42-225.1-208.7-365c0,0,188,4.8,336.1,174.4
			C1534.2,1327.9,1616.9,1579.7,1444,1657.7z"/>
		<path fill="#F99370" d="M708.8,1795c19.7,17.5,45.9,22.1,45.9,22.3c31.5,8.6,62.5,20.4,94.7,26c22.3,3.9,18,21.7-2.1,19.4
			c-31.7-3.6-64-9.8-95.6-14.2c-0.1,0.2,61.9,35.2,93.9,47.1c23.8,8.8,15.5,22-4.9,16.5c-35.1-9.5-102.9-35.2-102.9-35.2
			c0.1-0.1,53.8,37.1,83.5,50.5c22.6,10.2,14.4,21.9-5.9,16.2c-35.8-10.1-69.9-26-101.8-45.3c-0.1,0.1,38.4,34.6,59.7,49.4
			c18.9,13.1,8.9,24.4-8.8,14.9c-25.2-13.6-50.5-27.2-73.4-44.7c-17.6-12.6-49.4-25-92.8-77.8c-12.1-14.8,29.9-64.9,48.4-68.2
			c17.3-3,41.3,0.7,45.7,0.1L708.8,1795z"/>
		<path fill="#9358E0" d="M934.1,1022.3c-63.3,48.5-113.2,130.5-149.1,206.5c-44.4,93.9-67.2,178.6-67.2,178.6
			c-141.9,88.7-161.7,205.1-71,364.4c-39.7,21.8-48.4,68.2-48.4,68.2s-13.7-5.3-34.3-16.4v0C51.8,1526.9,711,999,934.1,1022.3z"/>
		<path fill="#7640CC" d="M1044.1,1487.5L1044.1,1487.5c0,0-37.1,44.7-39,109.2c-12.4-7.8-23.3-15.8-32.3-23.9
			c0,0,1.1-60.6,32.3-88.3C1005.1,1484.5,1020.4,1485.9,1044.1,1487.5z"/>
		<path fill="#7640CC" d="M1174.6,1498.2c-27.8,0-56.7-1-82.2-1.9c-27.4-1-51.1-1.8-61.2-0.7c-2.1,0.2-3.9-1.3-4.2-3.4
			c-0.2-2.1,1.3-3.9,3.4-4.2c10.6-1.1,33.4-0.3,62.2,0.7c66.6,2.3,167.2,5.9,191.9-13.3c13.4-10.4,12.7-48.7-2.1-107.8
			c-11.6-46.3-27.8-89.7-28-90.2c-0.7-2,0.3-4.1,2.2-4.9c2-0.7,4.1,0.3,4.9,2.2c0.2,0.4,16.6,44.3,28.3,91c16,64,15.8,103-0.6,115.7
			C1271.9,1494.9,1225,1498.2,1174.6,1498.2z"/>
		<path fill="#7640CC" d="M1328.3,1684.2C1328.3,1684.2,1328.3,1684.2,1328.3,1684.2c-115.8-2.2-199.6-27.3-249.6-48.1
			c-54.3-22.5-80.9-44.3-82-45.2c-1.6-1.3-1.8-3.7-0.5-5.3c1.3-1.6,3.7-1.8,5.3-0.5c0.4,0.3,27.1,22.2,80.4,44.2
			c49.3,20.4,132.1,45.2,246.4,47.3c2.1,0,3.7,1.8,3.7,3.9C1332.1,1682.6,1330.4,1684.2,1328.3,1684.2z"/>
		<path fill="#7640CC" d="M646.8,1771.7c-39.7,21.8-48.4,68.2-48.4,68.2s-13.7-5.3-34.3-16.4v0c0,0,11.7-44.8,67.9-79.6
			C640.4,1761.2,646.8,1771.7,646.8,1771.7z"/>
		<path fill="#7640CC" d="M785,1228.8c-44.4,94-67.2,178.6-67.2,178.6s-86.1,51.8-116.1,125.8c-3.8,9.4-6.5,19.1-8.2,29
			c6.3-82.2,82-135,110.7-193.5C732.7,1310.7,784.2,1230.1,785,1228.8z"/>
	</g>
</g>
<g id="_x31__1_">
	<polygon fill="#F9B233" points="329.8,217.8 376.6,275.2 448.1,256 408,318.2 448.3,380.2 376.8,361.3 330.3,418.8 326.1,345 
		257,318.5 326,291.7 	"/>
	<polygon fill="#F9B233" points="1483.2,812.6 1490.3,880.7 1555.3,902.1 1492.8,929.9 1492.5,998.3 1446.7,947.4 1381.6,968.3 
		1415.8,909 1375.8,853.5 1442.8,867.8 	"/>
	<polygon fill="#F9B233" points="1243.5,108.4 1249.5,154.9 1294.4,168.4 1252,188.5 1253,235.4 1220.8,201.3 1176.6,216.7 
		1199,175.6 1170.7,138.3 1216.7,146.9 	"/>
</g>
</svg>
