<?xml version="1.0" encoding="utf-8"?>
<!-- Generator: Adobe Illustrator 26.0.3, SVG Export Plug-In . SVG Version: 6.00 Build 0)  -->
<svg version="1.1" xmlns="http://www.w3.org/2000/svg" xmlns:xlink="http://www.w3.org/1999/xlink" x="0px" y="0px"
	 viewBox="0 0 2265 1766.8" enable-background="new 0 0 2265 1766.8" xml:space="preserve">
<g id="Bg" display="none">
	<rect display="inline" opacity="0" fill="#FFFFFF" width="2265" height="1766.8"/>
</g>
<g id="Layer_1">
	<path fill="#222" d="M2200.9,935.9c-352.8,713.2-494.6,818.2-1121,779.6C393.7,1673.3,142.6,1615.1,20,987.3
		c-120.3-616,313.9-751.1,1136.1-873C1804.8,18.1,2479.2,373.4,2200.9,935.9z"/>
	<g>
		<path fill="#5891F9" d="M1751.8,945.9l-1.9,0.5c5.5-2.1,6.1-3.6,6.6-7.1c-49.1,14.4-48.3,12.4-49.3,19.7l-5.6,1.6
			c-4.2,1.2-5.9,6.4-4.4,13l18.3,79.8c1.5,6.7-0.2,11-3.4,12.6c2.4-1.2,4-4,3.9-8.3c-3-1.1-6.3-3.5-9.3-7.6
			c-54.2-74.6-56.6-81.6-66.1-79.5l-51.8,11.4c-9.7,2.2-22.6-15.9-19.1-27c18.6-59.7,23.2-63.4,13.8-76.9
			c-52.7-76.3-55.3-77.4-55.2-87c0.6,0.2,1.3,0.5,2,0.9l63.1,34.9c5.2,2.9,9.8,1.7,11.6-3l1.5-4.2c8.8,2.5,7.4-0.3,27.9-56.2
			c5.8,1.7,12.5,8.6,14.9,17.7c21.6,83.9,20.7,89.7,32.3,96.6l63.1,37.9C1756.3,923,1761.2,943.1,1751.8,945.9z M1632.9,763.3
			c0.4,0.1,0.9,0.2,1.3,0.4c0,0,0,0,0,0C1633.8,763.5,1633.4,763.4,1632.9,763.3z M1708.5,1066.7c0.4,0,0.7,0,1.1-0.1
			C1709.3,1066.7,1708.9,1066.7,1708.5,1066.7z M1708.5,1066.7c-0.7,0-1.3-0.1-2-0.3C1707.2,1066.6,1707.9,1066.7,1708.5,1066.7z
			 M1710.4,1066.5c-0.2,0-0.5,0.1-0.7,0.1C1709.9,1066.6,1710.1,1066.6,1710.4,1066.5z M1711.9,1066c-0.1,0.1-0.2,0.1-0.3,0.1
			C1711.7,1066.1,1711.8,1066,1711.9,1066z M1710.4,1066.5c0.4-0.1,0.8-0.2,1.2-0.4C1711.2,1066.3,1710.8,1066.4,1710.4,1066.5z
			 M1625.5,767.7l-0.5,1.3c1.1-2.4,2.1-3.9,3.1-4.8C1627,764.9,1626.1,766.1,1625.5,767.7z M1565.6,984c3.8,4.4,8.6,7.3,12.8,6.4
			C1574.2,991.2,1569.4,988.4,1565.6,984z M1696.3,1058.3c-27.2-37.5-41.3-57.9-50-68.7C1654.8,1000.4,1668.9,1020.8,1696.3,1058.3z
			 M1573.1,886.5c6.4,9.3,6.2,13.9-0.5,35.3C1579.6,899.8,1579.6,895.8,1573.1,886.5z M1835.3,1037.8c6.6,9.6,6.2,14.4-1.3,37.8
			C1841.7,1051.5,1842,1047.5,1835.3,1037.8z M1958.4,1209.7c-27.2-37.5-41.4-57.9-50-68.7
			C1916.9,1151.7,1931.1,1172.1,1958.4,1209.7z M1887.6,919l-0.5,1.3c1.1-2.4,2.1-3.9,3.1-4.8C1889.2,916.3,1888.2,917.4,1887.6,919
			z M1973.7,1217.5c-0.4,0.2-0.8,0.3-1.2,0.4C1972.9,1217.8,1973.3,1217.6,1973.7,1217.5z M1970.7,1218c-0.7,0-1.3-0.1-2.1-0.3
			C1969.3,1217.9,1970,1218,1970.7,1218z M1972.5,1217.9c-0.2,0-0.5,0.1-0.8,0.1C1972,1217.9,1972.3,1217.9,1972.5,1217.9z
			 M2006.6,1067.2l-63.1-37.9c-11.6-7-10.6-12.7-32.3-96.6c-2.4-9.1-9.1-16-14.9-17.7c-20.5,55.9-19.1,58.8-27.9,56.3
			c0-0.1,0.1-0.1,0.1-0.2l-1.6,4.4c-1.7,4.7-6.3,5.9-11.6,3l-63.1-34.9c-0.7-0.4-1.3-0.7-2-0.9c-0.1,9.5,2.5,10.7,55.2,87
			c9.3,13.5,4.7,17.2-13.8,76.9c-3.4,11,9.4,29.1,19.1,27l51.8-11.4c9.5-2.1,11.8,4.8,66.1,79.5c3,4.1,6.3,6.5,9.3,7.6
			c0.1,4.2-1.5,7-3.9,8.3c3.2-1.6,5-5.9,3.4-12.5l-18.3-79.8c-1.5-6.6,0.2-11.8,4.4-13l5.6-1.6c1.1-7.3,0.1-5.3,49.3-19.7
			c-0.5,3.6-1,5.1-6.6,7.1l1.9-0.5C2023.4,1094.4,2018.5,1074.3,2006.6,1067.2z M1895.1,914.6c0.4,0.1,0.9,0.2,1.4,0.4c0,0,0,0,0,0
			C1895.9,914.8,1895.5,914.7,1895.1,914.6z M1970.7,1218c0.4,0,0.7,0,1.1-0.1C1971.4,1218,1971,1218,1970.7,1218z M1973.7,1217.5
			c0.1,0,0.2-0.1,0.3-0.2C1974,1217.4,1973.8,1217.4,1973.7,1217.5z M222,698.2C222,698.2,222,698.3,222,698.2L222,698.2L222,698.2z
			 M248.9,669.3c-3.4-3.1-7.1-5.2-10.7-6.6c-1.5,8.3-3.2,15-4.7,17.4c-0.4,0.7-1,1.2-1.5,1.8c4.9,10.9,5.4,15.8,3.8,31.4l-13.6-14.9
			c8.1,19.9,9.5,36.4,12.6,65.3l-6.1,1.8c-0.9-26.4-4.8-38.6-11.4-63.5l-8.1,23.4c-19.2-11.9-28.7-27.8-40.5-48.2
			c-0.4-3.8,0.1-6.7,1.1-8.9c-3.3,1.7-6.5,3.7-9.5,6.3c-26,22.4-38.7,32.1-44.4,49.9c-11.9,37.5,20.5,90.1,17.5,115.3
			c-1.5,12.9-13.3,101.8-14.6,110.9c-0.5,3.3,0.7,6.3,3.2,9.1c18.3,20,108.9,21.6,139.4-15.1c1.5-1.8,2.9-3.7,4.1-5.7
			c0,0,0.9-8.2,1.4-19.1c-1.1-1-1.9-2-2.2-3.2c-0.6,0.3-0.2,0.5-0.1-19.7c-17.7-5.7-45.8-16.7-60-26c-13.1-8.5-32.8-4.8-42.8-25.9
			c-6-12.7-11.7-25.9-15.2-34.5l43.9-20.2c2,7.3,8.9,30,16.8,35.7c9.4,6.8,39.7,22.2,54.8,28.7c-0.2-3.5-0.3-7-0.4-10.5
			c-5.5-4.2-11.9-9-19.5-14.9c-4.2-3.2-3.3-4.8-3.3-28.9l0.4,0.4c0.5-4.3,6.5-8.1,15-8.1c3.9,0,7.6,0.1,11.1,0.1
			c0.6-5.3,1-9.4,0.8-11.7c-0.5-7.2,0-16.9,0.5-27.6l14.4-6.6l5-2.3c-8.6-25.2-16.7-51-29.5-66.1C254.4,675.2,252,672,248.9,669.3z"
			/>
		<path fill="#412E69" d="M1301.7,997.3c-8.1-12.2-11.1-24.8-10.2-36.4c2.2-28.5,27.4-50.7,54.8-45.3c23.3,4.5,32.1,20.6,32.3,27.8
			c0.1,2.1-0.5,4.8-1.6,7.2c-1.6,3.4-4.4,6.4-8.6,6.7c-7.2,0.5-10.7,9.1-9.1,13.1c1.6,4,0.5,5.1,0.5,5.1c-10.1-4-10.2,8.4-5.3,19
			c1.6,3.5-10.4,14.2-20.3,15c-9.5,0.8-22.2-0.2-26.9-4.8c-0.2-0.2-0.4-0.3-0.6-0.5C1304.9,1001.8,1303.2,999.5,1301.7,997.3z
			 M1542.5,1128.1c-0.7-0.3-1.1-0.4-0.9-0.3c-11.6,2.2-21.7,3.9-30.4,5.1c-1.4,0.2-2.7,0.3-4,0.5c-39.7,4.9-51.3-1.3-68.9-17.6
			c-7.5-7-16.1-15.7-28.5-26.3c-3.9-3.3-7.4-6.4-10.7-9.1c-1.4-3.2-3.1-6.2-5.4-9c-0.7-0.9-1.4-1.6-2.1-2.4
			c-5.5-7.3-11.1-15.1-17-21.9l10.2-2.5l17.6-4.2c3.7-13.7,6.8-32.2-4.3-38.8c-0.8-0.5-1.8-1-2.8-1.3c0,0-12.1,3.3-24.3,6.1
			c-2,0.5-4.1,0.9-6,1.3c-0.8,0.8-1.4,2-1.7,4.2c-1.1,7.5,1.1,19.8,1.1,19.8l-51.1-11.5c-0.8-0.4-1.6-0.8-2.2-1.3
			c-1.7-1.2-3-2.4-4-3.4c0.2-0.8,0.5-1.7,0.6-2.5c-0.9,0.1-1.8,0.1-2.7,0.2c-4.5-6.1,1.6-6.2-18.1,1.1c0,0.2,0.1,0.3,0.1,0.4
			c-5.2,0.2-11,0.5-15.4,1.2c-10.7,1.6-27,11.5-25.9,31.5c3.7,69.6,25.6,83,13.4,150.2c-5.1,28.1-22.7,89.5-21.4,96.2
			c0.9,4.3,7.4,15.5,21.1,26.2c7.8,6.1,17.8,12.1,30.5,16.5c34.1,12,90.1,15,114.8-9.8c0.7-0.7,1.4-1.3,2-2
			c21.2-24.4-5.9-73.3-8-145c-0.2-7.4,0.1-14.6,0.5-21.6c17.3,11.9,35,22.1,44.8,24.3c18.2,4.1,81.5-8.3,100.5-12.1
			c3.4-0.7,5.4-1.1,5.4-1.1c0.4-2.6,0.7-5.1,0.9-7.4C1552.6,1135.9,1545.2,1129.5,1542.5,1128.1z M176.2,587
			c-30.1,21.5-13.2,59.1-5.1,67.1c-0.1-0.2-0.3-0.8-0.6-1.6c-1.4-3.6-3.9-12.1,2.1-14c4.4-1.3,6.6,1.9,11.5,7.2
			c0,0,0.8-5.4,3.2-15.3c1.5-6.5,9.6-12.2,26.3-10.6c8.9,0.8,20,5.3,26.1,0.5c0.5-0.4,1-0.9,1.4-1.4
			C251.7,605.1,211.4,561.9,176.2,587z"/>
		<path fill="#EFF2FF" d="M2151.8,1146v118.8c0,120.6-73.3,176-163.7,123.8l-382.8-218.3c-1.3-5.5-2.9-11.7-4.6-18.9
			c-5.2,4.4-10.1,7.4-18.6,9c2.9,12,6.6,27.3,11,46.8c0.3,2,0.5,3.6,0.5,5c-0.1,3.1-0.9,5.4-2.5,6.8c0.3-0.2,0.5-0.3,0.8-0.4
			c-0.6,0.6-1.2,1-2.1,1.4c0.1-0.1,0.1-0.1,0.2-0.2c3.6-4.1,2.5-7.1-9.6-59c-7,1.2-16.6,1.5-30.3,1c2.5-25.9-4.9-32.3-7.6-33.7
			c1.3-0.7,2.5-1.4,3.6-2.3c0.5-0.4,0.9-0.6,1.3-0.9c22.5-20.5,28-30.3,32.1-26.2c4,4-6.4,17.6-12.6,25c1.8,0.1,3.7,0.1,5.8-0.1
			c0.3-3,1.5-5.3,3.4-6.4c-0.7,0.9-1.2,2.1-1.4,3.6c-0.1,0.6-0.2,1.3-0.2,1.9c0,0,0.1,0,0.1,0c0,0.2,0,0.4,0,0.6
			c4.9-0.7,10.7-2.5,17.8-6.4c3-1.7,6.2-3.6,9.7-6.1c4.3-3,6.5-3.9,7.5-0.3c0.7,2.3-1.2,5.3-2.6,7.3c3.4-2.8,6,2.7,0.7,9.5
			c3.4-2.7,5.9,4.3-0.9,11.1c0,0,2.7-3.2,3.5-1.7c0.9,1.7,0.4,3.7-1,5.8c444.2,254.1,416.6,239.1,443.7,239.1
			c53.7,0,72.2-63,72.2-116.9V1146c0-110-68.9-242.7-150.5-289.8C610.4,65.3,706.3,114.9,672,114.9c-43.8,0-72.2,45.9-72.2,116.9
			v118.8c0,110,68.9,242.7,150.4,289.8l273.3,167.2l61.5,348.4l117.3-245.9c30.9,17.6,60.5,34.5,89.2,50.8
			c-0.9,11.6,2.1,24.1,10.2,36.4l-87.7-50l51,29.5l-109.5,217.4l-82.1,48.1L999.6,824L737,663.4c-90.4-52.2-163.7-192.2-163.7-312.8
			V231.8c0-120.6,73.3-176,163.7-123.8l1251,725.2C2078.5,885.4,2151.8,1025.4,2151.8,1146z M1430.6,1031.5
			c4.5-1.4,7.6-2.8,11.2-4.4l-18-26.1c4-1.8,8.8-3.7,14.9-6.1c11.9-4.8,9.1-10.5,6.8-11.7c-2.3-1.2-5.2,2.5-10.8,3.2
			c-9.1,1.2-13.9,2-18.3,3.8c-4.8,1.9-9.2,5.1-18.3,11.2c11.1,6.6,8,25.1,4.3,38.8l-17.6,4.2l64.7,36.9c4.3-13.2,6.5-20.9,6.7-26.5
			c-12.2-7-24.7-14.1-37.4-21.4C1423.1,1033,1426.9,1032.7,1430.6,1031.5z M1327.2,681.5c-4.8,2.3-4.4,1.2-70.9-35.7
			c-0.6-0.3-1.2-0.5-1.7-0.7c-0.1,0-0.1-0.1-0.2-0.1c-0.2-0.1-0.4-0.2-0.5-0.2c-0.1,0-0.1-0.1-0.2-0.1c-0.3-0.1-0.6-0.2-0.9-0.2
			c-0.1,0-0.2,0-0.2,0c-2.7-0.5-4.9,0.2-6.3,1.9c2.1-1,4.8-0.9,8.2,0.9C1321.2,684.4,1322.3,687.2,1327.2,681.5z M1420.5,828
			c18.8,82.4,21,85.5,16.8,90.3c-0.1,0.1-0.1,0.1-0.2,0.2c0.8-0.4,1.4-0.8,1.9-1.3c4.8-4.5,0.1-17.3-16.7-90.7c0,0,0,0,0,0
			c-0.4-1.8-0.5-3.4-0.4-5c0.1-2.5,0.7-4.7,2-6.1C1420.5,817.1,1419.1,821.9,1420.5,828z M1469.5,769
			c-65.7-39.5-70.5-39.3-74.3-53.9l-20.6-79.9c-2-7.8-7.3-13.9-12.4-16.6c0,0-0.1,0-0.1,0c-3.7-1.9-7.3-2-9.6,0.5
			c6.1-2.8,17,5.4,20.1,17.6l20.6,79.9c3.8,14.7,8.7,14.6,74.3,53.9c10.2,6.1,15.2,21.8,10.3,27.8c0,0,0,0.1-0.1,0.1
			c0.1,0,0.1-0.1,0.2-0.2C1485.6,793.9,1480.7,775.7,1469.5,769z M1057.4,529.8c-7.6-3.7-23.7-13-62.2-34.3
			c-0.6-0.3-1.2-0.5-1.8-0.7c-0.1,0-0.1-0.1-0.2-0.1c-0.2-0.1-0.4-0.2-0.5-0.2c-0.1,0-0.1-0.1-0.2-0.1c-0.3-0.1-0.6-0.2-0.9-0.2
			c-0.1,0-0.2,0-0.2,0c-2.7-0.5-4.9,0.2-6.3,1.9c2.1-1,4.8-0.9,8.2,0.9c66.9,37,67.9,39.9,72.8,34.2
			C1064.1,532.1,1063,532.4,1057.4,529.8C1057.4,529.8,1057.4,529.8,1057.4,529.8z M1176.1,768c0.8-0.4,1.4-0.8,2-1.3
			c4.8-4.4,0.2-16.8-16.7-90.7c0,0,0,0,0-0.1c-0.4-1.8-0.5-3.5-0.4-5c0.1-2.5,0.7-4.6,2-6.1c-3.4,1.7-4.8,6.5-3.4,12.6
			c18.8,82.4,21,85.5,16.8,90.3C1176.2,767.9,1176.1,768,1176.1,768z M1216.8,647.9c0.1,0,0.1-0.1,0.2-0.2
			c7.5-4.3,2.6-22.5-8.6-29.2c-65.7-39.5-70.5-39.3-74.3-53.9l-20.6-79.9c-2-7.8-7.2-13.9-12.3-16.6c0,0-0.1,0-0.1-0.1
			c-3.7-1.9-7.3-2-9.6,0.5c6.1-2.8,17,5.5,20.1,17.6l20.6,79.9c3.8,14.7,8.7,14.6,74.3,53.9c10.2,6.1,15.2,21.8,10.3,27.8
			C1216.9,647.8,1216.9,647.9,1216.8,647.9z M794.4,378.8C794.3,378.8,794.3,378.8,794.4,378.8c-7.6-3.6-23.6-12.9-62.4-34.4
			c-0.6-0.3-1.2-0.5-1.8-0.7c-0.1,0-0.1-0.1-0.2-0.1c-0.2-0.1-0.4-0.2-0.5-0.2c-0.1,0-0.1-0.1-0.2-0.1c-0.3-0.1-0.6-0.2-0.9-0.2
			c-0.1,0-0.2,0-0.2,0c-2.7-0.5-4.9,0.2-6.3,1.9c2.1-1,4.8-0.9,8.2,1c65,36,67.8,39.7,72.4,34.6c0,0,0,0,0,0
			c0.1-0.1,0.3-0.3,0.4-0.4c-0.6,0.3-1.1,0.5-1.6,0.6c0,0,0,0,0,0C799.9,381,798.2,380.7,794.4,378.8z M912.8,617
			c0.8-0.4,1.4-0.8,1.9-1.3c4.8-4.5,0.1-17.2-16.7-90.8c-0.1-0.2-0.1-0.4-0.1-0.7c-0.3-1.5-0.4-2.9-0.4-4.2c0.1-2.6,0.7-4.8,2-6.2
			c-3.4,1.7-4.8,6.5-3.4,12.6c18.8,82.3,21,85.5,16.8,90.3C912.9,616.9,912.8,617,912.8,617z M953.5,496.9c0.1,0,0.1-0.1,0.2-0.2
			c7.5-4.3,2.6-22.5-8.6-29.2c-65.7-39.5-70.5-39.3-74.3-53.9l-20.6-79.9c-2-7.8-7.2-13.9-12.3-16.6c0,0-0.1,0-0.1-0.1
			c-3.7-1.9-7.3-2-9.6,0.5c6.1-2.8,17,5.5,20.1,17.6l20.6,79.9c3.8,14.7,8.7,14.6,74.3,53.9c10.2,6.1,15.2,21.8,10.3,27.8
			C953.6,496.8,953.6,496.9,953.5,496.9z M1478.2,983.6c-1.2,0.3-2.8,0-6-1.5c-9.2-3.6-26.8-14.5-63.5-34.8
			c-0.6-0.3-1.1-0.5-1.5-0.7c-0.1,0-0.1-0.1-0.2-0.1c-0.2-0.1-0.4-0.2-0.5-0.2c-0.1,0-0.1-0.1-0.2-0.1c-0.3-0.1-0.6-0.2-0.9-0.3
			c-0.1,0-0.2,0-0.2,0c-0.8-0.1-1.5-0.3-2.2-0.2c0,0,0,0,0,0c-0.7,0.1-1.3,0.3-1.9,0.6c-0.2,0.1-0.4,0.2-0.5,0.2
			c-0.6,0.4-1.2,0.8-1.7,1.4c2.1-1,4.8-0.9,8.2,1c65,36,67.8,39.7,72.4,34.6c0,0,0.1-0.1,0.1-0.1c-0.3,0.1-0.7,0.2-1,0.2
			C1478.4,983.6,1478.3,983.6,1478.2,983.6z M1620.3,1071.9c10.2,6.1,15.2,21.8,10.3,27.8c0,0,0,0.1-0.1,0.1c0.1,0,0.1-0.1,0.2-0.2
			c0.2-0.1,0.3-0.3,0.5-0.5c6.4-5,1.4-22.2-9.3-28.7c-65.5-39.4-70.5-39.3-74.3-53.9l-20.6-79.9c-2-7.7-7.1-13.8-12.1-16.5
			c0,0,0,0-0.1,0c0,0-0.1,0-0.1-0.1c-0.8-0.4-1.6-0.7-2.3-0.9c-0.4-0.1-0.8-0.2-1.2-0.3c-0.4-0.1-0.9-0.1-1.3-0.1
			c-0.7,0-1.5,0-2.1,0.3c-0.1,0-0.2,0.1-0.3,0.1c-0.8,0.3-1.6,0.8-2.3,1.6c6.1-2.8,17,5.4,20.1,17.6l20.6,79.9
			C1549.8,1032.7,1554.8,1032.5,1620.3,1071.9z M1377.1,950.6c-1.6,3.4-4.4,6.4-8.6,6.7c-7.2,0.5-10.7,9.1-9.1,13.1
			c1.6,4,0.5,5.1,0.5,5.1c-10.1-4-10.2,8.4-5.3,19c1.6,3.5-10.4,14.2-20.3,15c-9.5,0.8-22.2-0.2-26.9-4.8c0.5,2.7,0.7,5.4,0.2,8.3
			c-0.1,0.8-0.3,1.7-0.6,2.5c1,1,2.3,2.1,4,3.4c0.6,0.4,1.4,0.9,2.2,1.3l51.1,11.5c0,0-2.1-12.3-1.1-19.8c0.3-2.3,0.9-3.5,1.7-4.2
			c2-0.4,4-0.9,6-1.3c-0.3-0.2-0.5-0.3-0.8-0.5c1.1-0.3,2.2-0.7,3.4-1.5c5.3-3.5,5.1-16.3,4.5-43
			C1378,957.4,1377.6,953.9,1377.1,950.6z M717.8,1219.8c-9.3-3.6-11.6-3.5-16.6-2.5L631,1231c-9.2,1.8-18.2-1.8-19.7-6.8
			c0,0-0.1,0-0.1,0c0,0.6,0,1.7,0,4.1l0.1,0c1.5,4.9,10.4,8.6,19.7,6.8c74.3-14.4,75.5-16.1,84.1-12.4l2.8,1.2
			C717.8,1222.7,717.8,1221.3,717.8,1219.8z M585.5,1130.7c0-0.1-0.1-0.1-0.1-0.2c0,8.8-2.9,6.3,25.7,28c0-1.1,0-2.5,0.1-4.4
			c-6.1-4.6-13.5-10.2-22.4-17.1C586.6,1135.4,585.8,1134.2,585.5,1130.7z M586.1,1107c-0.2,0.5-0.3,1-0.4,1.5
			c-0.2,1.9,0.5,4,2.9,5.8l22.5,17.4c0,0.7,0,1.7,0,3.3l0.1,0c0.1,0.2,0.2,0.4,0.3,0.6c-2.7,6.5,8,12.5,19.3,10.3l70.3-13.7
			c9.9-1.9,9-0.8,73.5,27.1c10,4.3,24.1,0.2,23.9-7l-0.1-3.7c0-0.2,0.1-0.3,0.1-0.5l-0.1-3.7c-0.4,6.9-14.1,10.8-23.8,6.6
			c-64.4-27.8-63.5-29-73.5-27.1l-70.3,13.7c-9.2,1.8-18.2-1.8-19.7-6.8c-0.5,0.2-0.3,0.4-0.2-7.7c-6.1-4.6-13.5-10.2-22.4-17.1
			c-2-1.6-2.9-2.8-3.2-6.2c0-0.1-0.1-0.1-0.1-0.2C585.4,1103.2,584.9,1104.9,586.1,1107z M631,1208.3l70.3-13.7
			c5-1,7.3-1.2,16.5,2.5c0-2.3,0-5,0.1-8.2c-9.3-3.6-11.6-3.5-16.6-2.5l-70.3,13.7c-9.2,1.8-18.2-1.8-19.7-6.8c0,0-0.1,0-0.1,0
			c0,0.6,0,1.7,0,4.1l0.1,0c0.1,0.2,0.2,0.4,0.3,0.6c-0.4,0.8-0.5,1.7-0.4,2.5C611.7,1206,621.1,1210.3,631,1208.3z M588.6,1043.6
			c-2-1.6-2.9-2.8-3.2-6.2c0-0.1-0.1-0.1-0.1-0.2c0,3.5-0.4,5.2,0.8,7.4c-0.2,0.5-0.3,1-0.4,1.5c-0.2,1.9,0.5,4,2.9,5.8l37.1,28.6
			c-2.5,4.2-5.5,9.2-9.1,15.3c-7-5.3-16.1-12.1-28-21.3c-2-1.6-2.9-2.8-3.2-6.2c0-0.1-0.1-0.1-0.1-0.2c0,3.7-0.5,5.4,1,7.7
			c-0.3,0.6-0.5,1.2-0.6,1.9c-0.2,1.9,0.5,4,2.9,5.8l24.3,18.7c-0.4,0.6-0.7,1.2-1.1,1.8c-4,6.8,7.3,13.3,19.1,11l70.3-13.7
			c9.9-1.9,9-0.8,73.5,27.1c10,4.3,24.1,0.2,23.9-7l-0.4-15.1c2.8-4.1,15.4-8.1,66.1-28.8c3.8-1.5,5.8-3.7,6.2-6c0-0.3,0-0.5,0-0.8
			c0-0.1,0-0.3,0-0.4c0-0.6-0.1-1.2-0.3-1.8c0.8-1.8,0.4-4,0.4-7.4c0,0.1,0,0.1,0,0.2c0.1,0.8-0.1,1.5-0.3,2.3
			c-0.7,3-2.3,4.2-5.8,5.6c-51.9,21.1-63.9,24.7-66.3,29.2l-0.6-20c-0.2-6.2,4.3-6.4,66.8-31.8c3.8-1.5,5.8-3.7,6.2-6
			c0-0.3,0-0.5,0-0.8c0-0.1,0-0.3,0-0.4c-0.1-3.5-3.8-6.9-10.5-8.1l-71-12.9c-10.1-1.8-8.1-2.3-32.2-46.7
			c-3.7-6.9-19.4-8.3-26.6-2.5l-42.7,34.9c-6.1,5-8.5,3.7-86.7,3c-8.6-0.1-14.5,3.8-15,8.1c-0.2,1.9,0.5,4,2.9,5.8l44.6,34.5
			c4.4,3.4,4.6,4.5-4.1,19.2C622.4,1069,609.9,1060,588.6,1043.6z M870.6,1092.1c0,0.1,0,0.1,0,0.2c0.1,0.8-0.1,1.5-0.3,2.3
			c-0.7,3-2.3,4.2-5.8,5.6c-50.6,20.6-63.2,24.6-66.1,28.8l0.2,8.6c3.2-4,16.3-8.3,65.8-28.5c3.8-1.5,5.8-3.7,6.2-6
			c0-0.3,0-0.5,0-0.8c0-0.1,0-0.3,0-0.4c0-0.7-0.2-1.4-0.5-2C871.2,1097.9,870.6,1095.8,870.6,1092.1z M907.3,1350.4
			c-64.5-27.8-63.5-29-73.5-27.1l-70.3,13.6c-9.2,1.8-18.2-1.8-19.7-6.8c0,0-0.1,0-0.1,0c0,0.6,0,1.7,0,4.1l0.1,0
			c1.5,4.9,10.4,8.6,19.7,6.8c74.5-14.5,75.6-16.1,84.1-12.4l59.7,25.8c10,4.3,24.1,0.2,23.9-7l-0.1-3.7
			C930.7,1350.7,917,1354.6,907.3,1350.4z M1003,1260.7c0.1,0.8-0.1,1.5-0.3,2.3c-0.7,3-2.3,4.2-5.8,5.6
			c-50.7,20.7-63.3,24.6-66.1,28.8l0.1,4.4c0.9-1.4,2.5-3.2,5.4-4.4c73.5-29.9,66.9-24.6,66.7-36.9
			C1003.1,1260.6,1003.1,1260.6,1003,1260.7z M931.1,1313.6c-0.4,6.9-14.1,10.8-23.8,6.6c-64.5-27.8-63.5-29-73.5-27.1l-70.3,13.7
			c-9.2,1.8-18.2-1.8-19.7-6.8c0,0-0.1,0-0.1,0c0,0.6,0,1.7,0,4.1l0.1,0c0,0.1,0.1,0.2,0.2,0.4c-0.2,0.7-0.4,1.4-0.3,2
			c0.5,5.4,9.9,9.7,19.8,7.8l70.3-13.7c9.9-1.9,9-0.8,73.5,27.1c8.8,3.8,20.7,1.1,23.4-4.5c0.4-0.8,0.6-1.6,0.6-2.5l-0.1-3.1
			c0-0.1,0.1-0.2,0.1-0.4L931.1,1313.6z M744.4,1273.1c-0.6,1.1-0.8,2.2-0.7,3.2c0.5,5.4,9.9,9.7,19.8,7.8l70.3-13.7
			c10-1.9,9.1-0.7,73.5,27.1c10,4.3,24.1,0.2,23.9-7l-0.4-15.8c2.8-4.1,15.3-8.1,66.1-28.8c3.8-1.5,5.8-3.7,6.2-6
			c0.1-0.3,0-0.5,0-0.8c0-0.1,0-0.3,0-0.4c0-0.5,0-0.9-0.2-1.4c0.7-1.8,0.2-3.8,0.2-7.1c0,0.1,0,0.1,0,0.2c0.1,0.8-0.1,1.5-0.3,2.3
			c-0.7,3-2.3,4.2-5.8,5.6c-52.2,21.3-64,24.8-66.3,29.2l-0.6-20c-0.2-6.2,4.3-6.4,66.8-31.8c3.8-1.5,5.8-3.7,6.2-6
			c0.1-0.3,0-0.5,0-0.8c0-0.1,0-0.3,0-0.4c-0.1-3.5-3.7-6.9-10.5-8.1l-71-12.9c-10.1-1.8-8.2-2.5-32.2-46.7
			c-2.7-4.9-11.4-7-18.8-5.7c-0.2,0-0.3,0-0.5,0.1c0.2-0.4,0.4-0.8,0.5-1.2c0-0.3,0-0.5,0-0.8c0-0.1,0-0.3,0-0.4
			c0-0.6-0.1-1.1-0.3-1.7c0.9-1.9,0.4-3.9,0.3-7.4c0,0.1,0,0.1,0,0.2c0.1,0.8-0.1,1.5-0.3,2.3c-0.7,3-2.3,4.2-5.8,5.6
			c-50.4,20.5-63.1,24.6-66.1,28.7l0.2,8c3-3.8,15.1-7.9,58.6-25.5l-37.1,30.3c-3.5,2.8-6,3.6-21.4,3.7l0-1.6c0,0.5-0.2,1.1-0.3,1.6
			c-8,0-19.3-0.2-35.9-0.4c-51.9-22.6-51.8-23.5-61.1-21.7l-70.3,13.7c-9.2,1.8-18.2-1.8-19.7-6.8c0,0-0.1,0-0.1,0
			c0,0.6,0,1.7,0,4.1l0.1,0c0.1,0.3,0.3,0.6,0.5,0.9c-0.5,1-0.6,1.9-0.6,2.9c0.5,5.4,9.9,9.7,19.8,7.8l70.3-13.7
			c7.8-1.5,8.9-1.1,40.1,12.5c-2.6,0-5.2-0.1-8-0.1c-12.4-0.1-19.6,8.1-12.1,13.8l44.6,34.5c4.4,3.4,4.6,4.5-4.1,19.2
			c-6.8-5.7-19.3-14.7-40.5-31.1c-2-1.6-2.9-2.8-3.2-6.2c0-0.1-0.1-0.1-0.1-0.2c0,3.3-0.4,5,0.6,7c-0.8,2.3-0.1,4.8,2.7,6.9
			l37.4,28.9c-2.5,4.2-5.5,9.2-9.1,15.3c-7-5.3-16.2-12.2-28.3-21.5c-2-1.6-2.9-2.8-3.2-6.2c0-0.1-0.1-0.1-0.1-0.2
			c0,9.2-3.2,6,29.7,31.1C746.6,1269.3,745.5,1271.1,744.4,1273.1z M316.2,793.6c-7.9-4.2-14.7-8.2-18.4-10.8
			c-8-5.7-14.8-28.5-16.8-35.7l-14.4,6.6c-0.5,10.7-1,20.4-0.5,27.6c0.2,2.3-0.2,6.4-0.8,11.7C289.7,793.3,305.6,793.6,316.2,793.6z
			 M171.2,653.4c0.9,0.9,4,3.3,5.8,4.8l-2.1,4.7l-0.3,0.7c0,0,12.9,21.3,22.5,27.4c15.1,9.6,21.2,12,25,7.4c0,0,0.1-0.1,0.1-0.1
			c2-2.5,3.4-7,5.2-13.6c1.9-0.5,3.5-1.5,4.8-2.8c0.5-0.5,1.1-1.1,1.5-1.8c1.5-2.4,3.2-9,4.7-17.4c2.5-13.9,4.2-32.4,3-43.8
			c-0.4,0.5-0.8,1-1.4,1.4c-6.1,4.8-17.2,0.3-26.1-0.5c-16.7-1.5-24.8,4.2-26.3,10.6c-2.4,10-3.2,15.3-3.2,15.3
			c-5-5.4-7.2-8.6-11.5-7.2c-6,1.8-3.5,10.3-2.1,14C170.8,653,171.1,653.3,171.2,653.4z M278.9,900.6c4,0.4,18.3,13.5,24.9,19.1
			c0.4,0.4,0.9,0.8,1.3,1.1c5.9,4.8,20.5,10,33.1,9.5c7.3-0.3,13.2-1.2,21.7-7.1c3.6-2.5,5.8-4.9,6.5-7.3c0.5-1.3,0.4-2.7-0.3-4
			c0-0.1,0-0.1-0.1-0.2c-0.1-0.3-0.4-0.5-0.6-0.7c-0.1-0.1-0.2-0.3-0.3-0.4c0,0,0,0,0,0c-0.3-0.3-0.7-0.5-1.2-0.7
			c-3.7-1.9-11.2-1.9-16.7-5c-6.9-3.9-18.1-15.5-18.1-15.5c22.8,1.7,27.1,5.9,26.6,0.5c-0.5-5.1-19.5-10.8-25.5-12.9
			c-6.4-2.2-25.8-1.5-31.6-2c-3.2-0.3-10.8-5-18.6-9.9c-6.3-3.9-12.8-8-17.2-9.9c-0.2-0.1-0.5-0.2-0.7-0.3
			c-15.1-6.5-45.4-22-54.8-28.7c-8-5.7-14.8-28.5-16.8-35.7l-43.9,20.2c3.6,8.6,9.2,21.8,15.2,34.5c10,21.1,29.7,17.4,42.8,25.9
			c14.3,9.2,42.3,20.3,60,26C271.1,899,276.3,900.4,278.9,900.6z M413.3,1426.3c-89.6,0-162.3-42.3-162.3-94.5
			c0,68.1,93.5,97.8,162.3,97.8c68.7,0,162.3-29.8,162.3-97.8C575.6,1384,502.9,1426.3,413.3,1426.3z M575.5,1129.1
			c0,0.2,0,0.4,0,0.7c0,52.2-72.7,94.5-162.3,94.5c-89.6,0-162.3-42.3-162.3-94.5c0-9.9,2.7-19.5,7.5-28.5
			c20.8-38.2,82.2-66,154.7-66C502.5,1035.2,574.9,1077.2,575.5,1129.1z M560.5,1129.8c0-3.3-0.3-6.5-0.9-9.6
			c-3.3-19.5-17.2-35.4-36.4-47.4c-27-17.6-66.2-28.7-109.9-28.7c-2.1,0-4.2,0-6.3,0.1c-38.3,0.9-72.8,10.4-98.1,25.2
			c-22.2,12.5-38.4,29.6-41.9,51c-0.6,3.1-0.9,6.3-0.9,9.5c0,47.4,65.9,85.7,147.2,85.7C494.6,1215.5,560.5,1177.1,560.5,1129.8z"/>
		<path fill="#FFD88F" d="M1437.3,918.3c4.2-4.9,2-8-16.8-90.3c-1.4-6,0-10.9,3.4-12.6c-1.2,1.4-1.9,3.6-2,6.1c0,1.4,0.2,3,0.4,5
			c16.8,73.5,21.5,86.2,16.7,90.7c16.5-7.2,14,0.3-7.8-95.1c-0.6-2.4,0.5-7.9,1-10.3l44.3-13c0.5-0.1,0.9-0.4,1.4-0.6
			c4.8-6-0.2-21.7-10.3-27.8c-65.5-39.4-70.5-39.3-74.3-53.9l-20.6-79.9c-3.1-12.1-14-20.4-20.1-17.6c2.3-2.6,5.9-2.4,9.6-0.5
			c0,0,0.1,0,0.1,0.1c0,0,0,0-0.1,0c5.1,2.7,10.3,8.7,12.4,16.6l20.6,79.9c3.8,14.6,8.5,14.4,74.3,53.9c11.2,6.7,16.1,24.9,8.6,29.2
			c0.1-0.1,0.2-0.2,0.3-0.3l8.2-3.8c8.1-3.8,3.2-22.6-8.2-29.5c-65.7-39.5-70.5-39.3-74.3-53.9l-20.6-79.9
			c-3.4-13.2-15.9-21.8-21.6-16.6l-8.1,3.5l0.1,0.1c-1.3,0.7-2.4,1.9-3.1,3.8l-20.6,56.1c-80-44.4-65.3-40.2-83-32.6
			c0,0,0.1,0,0.2,0c-4.9,2.8-5.3,12.7,1.3,22.3l50,72.4c9.3,13.4,4.6,17.3-13.8,76.5c-3.4,11,9.3,29,19,26.9l51.5-11.4
			c9.4-2.1,11.8,4.8,65.7,79.1C1426.9,918.4,1433.4,920.6,1437.3,918.3z M1254.4,647.3c-3.4-1.9-6.1-2-8.2-0.9
			c1.4-1.7,3.6-2.4,6.3-1.9c-0.8-0.2-1.5-0.3-2.1-0.2c0.6-0.1,1.4,0,2.4,0.2c0.3,0.1,0.6,0.2,0.9,0.2c0.3,0.1,0.6,0.3,1,0.4
			c0.6,0.2,1.1,0.4,1.7,0.7c66.5,36.8,66.1,38,70.9,35.7C1322.3,687.2,1321.2,684.4,1254.4,647.3z M1217.3,614.2
			c-65.7-39.5-70.5-39.3-74.3-53.9l-20.6-79.9c-3.4-13.2-15.9-21.8-21.6-16.6l-8.1,3.5l0.1,0.1c0,0,0,0,0,0
			c-1.3,0.7-2.4,1.9-3.1,3.8l-20.6,56.1c-80-44.4-65.3-40.2-83-32.6c0,0,0.1,0,0.2,0c-4.9,2.8-5.3,12.7,1.3,22.3l50,72.4
			c9.3,13.4,4.6,17.3-13.8,76.5c-3.4,11,9.3,29,19,26.9l51.5-11.4c9.4-2.1,11.8,4.8,65.7,79.1c5.5,7.6,12,9.8,16,7.5
			c4.2-4.9,2-8-16.8-90.3c-1.4-6,0-10.9,3.4-12.6c-1.2,1.4-1.9,3.6-2,6.1c0,1.4,0.2,3.1,0.5,5.1c16.9,73.9,21.5,86.2,16.7,90.7
			c16.4-7.2,14,0.4-7.8-95.1c-0.6-2.4,0.5-7.9,1-10.3l44.3-13c0.5-0.1,0.9-0.4,1.4-0.6c4.8-6-0.2-21.7-10.3-27.8
			c-65.5-39.4-70.5-39.3-74.3-53.9l-20.6-79.9c-3.1-12.1-14-20.4-20.1-17.6c2.3-2.6,5.9-2.4,9.6-0.5c0,0,0.1,0.1,0.1,0.1
			c0,0,0,0,0,0c5.1,2.7,10.3,8.7,12.3,16.6l20.6,79.9c3.8,14.6,8.5,14.4,74.3,53.9c11.2,6.7,16.1,24.9,8.6,29.2
			c0.1-0.1,0.2-0.2,0.3-0.3l8.2-3.8C1233.6,639.8,1228.7,621,1217.3,614.2z M993.3,496.9c-3.4-1.9-6.1-2-8.2-0.9
			c1.4-1.7,3.6-2.4,6.3-1.9c-0.7-0.2-1.5-0.3-2.1-0.2c0.6-0.1,1.4,0,2.4,0.2c0.3,0.1,0.6,0.2,0.9,0.2c0.3,0.1,0.6,0.2,0.9,0.4
			c0.6,0.2,1.1,0.4,1.8,0.7c38.5,21.3,54.6,30.7,62.2,34.3c2.6,1.1,4.6,1.8,6.1,2c-1.5-0.2-3.5-0.9-6.1-2c5.6,2.7,6.7,2.3,8.7,1.3
			C1061.2,536.8,1060.2,533.9,993.3,496.9z M954.1,463.2c-65.7-39.5-70.5-39.3-74.3-53.9l-20.6-79.9c-3.4-13.2-15.9-21.8-21.6-16.6
			l-8.1,3.5l0.1,0.1c-1.3,0.7-2.4,1.9-3.1,3.8L806,376.2c-80-44.4-65.3-40.2-83-32.6c0,0,0.1,0,0.2,0c-4.9,2.8-5.3,12.7,1.3,22.3
			l50,72.4c9.3,13.4,4.6,17.3-13.8,76.5c-3.4,11,9.3,29,19,26.9l51.5-11.4c9.4-2.1,11.8,4.8,65.7,79.1c5.5,7.6,12,9.8,16,7.5
			c4.2-4.9,2-8-16.8-90.3c-1.4-6,0-10.9,3.4-12.6c-1.3,1.5-1.9,3.7-2,6.2c0,1.2,0.1,2.6,0.4,4.2c0,0.2,0,0.4,0.1,0.7
			c16.8,73.5,21.5,86.2,16.7,90.8c16.4-7.2,14.1,0.5-7.8-95.1c-0.6-2.4,0.5-7.9,1-10.3l44.3-13c0.5-0.1,0.9-0.4,1.4-0.6
			c4.8-6-0.2-21.7-10.3-27.8c-65.5-39.4-70.5-39.3-74.3-53.9l-20.6-79.9c-3.1-12.1-14-20.4-20.1-17.6c2.3-2.6,5.9-2.4,9.6-0.5
			c0,0,0.1,0.1,0.1,0.1c0,0,0,0-0.1,0c5.1,2.7,10.3,8.7,12.3,16.6l20.6,79.9c3.8,14.6,8.5,14.4,74.3,53.9
			c11.2,6.7,16.1,24.9,8.6,29.2c0.1-0.1,0.2-0.2,0.3-0.3l8.2-3.8C970.3,488.8,965.4,470,954.1,463.2z M802.5,380.5
			c-4.6,5-7.4,1.4-72.4-34.6c-3.4-1.9-6.1-2-8.2-1c1.4-1.7,3.6-2.4,6.3-1.9c-0.7-0.2-1.5-0.3-2.1-0.2c0.6-0.1,1.4,0,2.4,0.2
			c0.3,0.1,0.6,0.2,0.9,0.2c0.3,0.1,0.6,0.2,0.9,0.4c0.6,0.2,1.1,0.4,1.8,0.7c38.8,21.5,54.8,30.8,62.4,34.4
			c3.1,1.3,5.3,1.9,6.9,1.9c0.6-0.1,1.1-0.3,1.6-0.6C802.7,380.2,802.6,380.4,802.5,380.5c0.8-0.2,1.4-0.6,1.9-1.2
			C803.9,379.9,803.2,380.3,802.5,380.5z M794.4,378.8c3.1,1.3,5.3,1.9,6.9,1.9C799.9,381,798.2,380.7,794.4,378.8z M1590,1219.8
			c-4,2.3-10.5,0.1-16-7.5c-12.7-17.5-22.5-31.2-30.3-41.9c3.4-0.7,5.4-1.1,5.4-1.1c0.4-2.6,0.7-5.1,0.9-7.4
			c13.8,0.5,23.3,0.2,30.3-1C1592.5,1212.7,1593.5,1215.6,1590,1219.8z M1605.2,1170.3c10.2,41.5,7.8,36.9-13.3,48.3
			c-0.3,0.1-0.5,0.3-0.8,0.4c1.5-1.4,2.4-3.7,2.5-6.8c-0.1-1.4-0.2-3-0.5-5c-4.5-19.5-8.2-34.8-11-46.8c8.5-1.7,13.4-4.7,18.6-9
			C1602.3,1158.6,1603.9,1164.8,1605.2,1170.3z M1639.8,1060.7c-65.7-39.5-70.5-39.3-74.3-53.9l-20.6-79.9
			c-3.4-13.2-15.9-21.8-21.6-16.6l-16.8,8.9l0.1,0.1c-1.3,0.7-2.4,1.9-3.1,3.8l-17.5,47.6c0,0,0,0,0,0l-59.6-33
			c-5.8-3.2-5.7-2-26.5,8.9c0,0,0.1,0,0.2,0c-4.9,2.8-5.3,12.7,1.3,22.3l14.9,21.5c4.4-1.8,9.1-2.6,18.3-3.8
			c5.6-0.7,8.5-4.4,10.8-3.2c2.3,1.2,5.2,6.8-6.8,11.7c-6.1,2.5-10.9,4.3-14.9,6.1l18,26.1l9.7,14c3.3,4.8,4.8,8.4,4.6,13.7
			c-0.2,5.7-2.5,13.3-6.7,26.5c-2.8,8.7-6.5,19.8-11,34.4c17.6,16.3,29.2,22.5,68.9,17.6l1.1-0.2c1-0.2,2-0.3,2.9-0.3
			c8.7-1.2,18.8-2.9,30.4-5.1c-0.2-0.1,0.2-0.1,0.9,0.3c1.3-0.7,2.5-1.4,3.6-2.3c0.5-0.4,0.9-0.6,1.3-0.9
			c22.5-20.5,28-30.3,32.1-26.2c4,4-6.4,17.6-12.6,25c1.8,0.1,3.7,0.1,5.8-0.1c0.3-3,1.5-5.3,3.4-6.4c-0.7,0.9-1.2,2.1-1.4,3.6
			c-0.1,0.6-0.1,1.3-0.2,2c0,0.2,0,0.4,0,0.6c4.9-0.7,10.7-2.5,17.8-6.4c-0.3-2.1-0.4-4.1-0.1-5.8l36.9-10.8
			c0.5-0.1,0.9-0.4,1.4-0.6c4.8-6-0.2-21.7-10.3-27.8c-65.5-39.4-70.5-39.3-74.3-53.9l-20.6-79.9c-3.1-12.1-14-20.4-20.1-17.6
			c0.6-0.7,1.4-1.2,2.3-1.6c0.1,0,0.2-0.1,0.3-0.1c0.7-0.2,1.4-0.3,2.1-0.3c0.4,0,0.9,0.1,1.3,0.1c0.4,0.1,0.8,0.2,1.2,0.3
			c0.8,0.2,1.5,0.5,2.3,0.9c0,0,0.1,0,0.1,0.1c0,0,0,0,0,0c0,0,0,0,0.1,0c5,2.7,10.1,8.9,12.1,16.5l20.6,79.9
			c3.8,14.7,8.7,14.6,74.3,53.9c10.8,6.5,15.7,23.7,9.3,28.7c-0.2,0.1-0.3,0.4-0.5,0.5c0.1-0.1,0.2-0.2,0.3-0.3v0l16.9-9.2
			C1656.1,1086.3,1651.2,1067.5,1639.8,1060.7z M1479.5,983.4c-4.6,5-7.4,1.4-72.4-34.6c-3.4-1.9-6.1-2-8.2-1c0.5-0.6,1.1-1,1.7-1.4
			c0.1-0.1,0.3-0.1,0.5-0.2c0.6-0.3,1.2-0.5,1.9-0.6c0,0,0,0,0,0c0.7-0.1,1.4,0.1,2.2,0.2c-0.7-0.2-1.4-0.2-2.1-0.2
			c0.6-0.1,1.4,0,2.3,0.2c0.3,0.1,0.6,0.1,0.9,0.3c0.3,0.1,0.6,0.2,0.9,0.4c0.5,0.2,1,0.4,1.5,0.7c36.7,20.3,54.4,31.2,63.5,34.8
			c3.2,1.5,4.7,1.7,6,1.5c-1,0-2.2-0.2-3.7-0.7c1.6,0.5,2.9,0.7,4,0.6c0.4,0,0.7-0.1,1-0.2c0.9-0.3,1.6-0.8,2.1-1.6
			C1481.1,982.6,1480.4,983.2,1479.5,983.4z M450.4,949.4c3.5,18.8,15.8,32.3,15.8,41c0,20.9-31.6,20.9-31.6,0
			C434.6,981.7,441.5,964.2,450.4,949.4z M282.6,860.5c-4.4-3.6-11.1-8.7-21-16.1c-5.5-4.2-11.9-9-19.5-14.9
			c-4.2-3.2-3.3-4.8-3.3-28.9l0.4,0.4c0.5-4.3,6.5-8.1,15-8.1c3.9,0,7.6,0.1,11.1,0.1c24.4,0.3,40.3,0.6,50.9,0.6
			c18.7,0.1,21-0.6,24.7-3.7l42.7-35c7.2-5.9,22.9-4.4,26.6,2.5c24.1,44.4,22.1,44.9,32.2,46.7l71,12.9c6.7,1.2,10.3,4.6,10.5,8.1
			l0,0c0,0.1,0,0.3,0,0.4c0,0.3,0.1,0.5,0,0.8c0.1,23.4,1.6,25.5-6.2,28.7c-52.2,21.3-64,24.8-66.3,29.2l0.6,22.9
			c0,0.9-0.2,1.7-0.6,2.5l0.6,20.1c0.1,2.4-1.6,4.5-4.1,6c-3.8,6.7-5.4,12.3-12.9,11c-8.9-1.5-2.7-6-8.1-10.6
			c-2.5-1.1-4.9-2.1-7.1-3.1c-12.4-0.6,7.2,41.6-11,36.8c-21.4-5.7,9.9-37.4-0.6-41.6c-8.7-3.5-0.8,9.9-10.8,6.8
			c-8.2-2.5,2.7-10.6-5-13.1c-9.1-3-4.3,6.3-13.9,3.2c-6.3-2-4.1-7.8-8.5-13.5c-2.5-1-4.5-1.6-6.1-2c-3.7-1.9-11.2-1.9-16.7-5
			c-6.9-3.9-18.1-15.5-18.1-15.5c22.8,1.7,27.1,5.9,26.6,0.5c-0.5-5.1-19.5-10.8-25.5-12.9c-6.4-2.2-25.8-1.5-31.6-2
			c-3.2-0.3-10.8-5-18.6-9.9C280.9,863.4,281.8,861.9,282.6,860.5z M267,919.9c-1.1-1-1.9-2-2.2-3.2c-0.6,0.3-0.2,0.5-0.1-19.7
			c6.5,2.1,11.7,3.5,14.2,3.7c4,0.4,18.3,13.5,24.9,19.1l-19.3,3.8C277.3,924.8,270.5,923,267,919.9z M559.6,1120.1
			c0.6,3.2,0.9,6.4,0.9,9.6c0,47.4-65.9,85.7-147.2,85.7c-81.3,0-147.2-38.4-147.2-85.7c0-3.2,0.3-6.4,0.9-9.5
			c3.5-21.4,19.7-38.5,41.9-51c25.3-14.8,59.8-24.2,98.1-25.2c2.1-0.1,4.2-0.1,6.3-0.1c43.7,0,82.9,11.1,109.9,28.7
			C542.4,1084.8,556.3,1100.6,559.6,1120.1z"/>
		<path fill="#293B91" d="M726,342.8c0.6-0.1,1.4,0,2.4,0.2c-0.1,0-0.2,0-0.2,0C727.4,342.9,726.6,342.8,726,342.8z M1441.8,1027.2
			c-3.6,1.6-6.7,2.9-11.2,4.4c-3.6,1.2-7.5,1.5-12,2c12.7,7.3,25.2,14.4,37.4,21.4c0.2-5.3-1.3-8.9-4.6-13.7L1441.8,1027.2z
			 M1407,946.5c0.1,0,0.1,0.1,0.2,0.1c-0.3-0.1-0.6-0.3-0.9-0.4c0.1,0,0.1,0.1,0.2,0.1C1406.6,946.3,1406.8,946.4,1407,946.5z
			 M729.4,343.4c0.2,0.1,0.4,0.1,0.5,0.2c0.1,0,0.1,0.1,0.2,0.1c-0.3-0.1-0.6-0.3-0.9-0.4C729.3,343.3,729.4,343.4,729.4,343.4z
			 M1479.6,983.3c0,0-0.1,0.1-0.1,0.1c0.9-0.3,1.7-0.9,2.2-1.7C1481.1,982.5,1480.4,983,1479.6,983.3z M1405.4,945.9
			c-0.9-0.2-1.7-0.3-2.3-0.2c0.7,0,1.4,0.1,2.1,0.2C1405.2,945.9,1405.3,945.9,1405.4,945.9z M1478.2,983.6c0.1,0,0.2,0,0.3-0.1
			c-1.1,0.1-2.4-0.1-4-0.6C1476,983.4,1477.2,983.6,1478.2,983.6z M1574.7,1122.7c0-0.7,0.1-1.4,0.2-2
			C1574.7,1121.3,1574.7,1122,1574.7,1122.7C1574.7,1122.7,1574.7,1122.7,1574.7,1122.7z M993.3,494.6c0.1,0,0.1,0.1,0.2,0.1
			c-0.2-0.1-0.3-0.1-0.4-0.2C993.1,494.5,993.2,494.6,993.3,494.6z M992.7,494.4c0.1,0,0.2,0.1,0.3,0.1c-0.2-0.1-0.3-0.1-0.5-0.2
			C992.6,494.3,992.7,494.4,992.7,494.4z M1362.3,618.5C1362.3,618.5,1362.4,618.6,1362.3,618.5
			C1362.3,618.5,1362.3,618.5,1362.3,618.5C1362.3,618.5,1362.3,618.5,1362.3,618.5z M1252.5,644.5c0.1,0,0.2,0,0.2,0
			c-0.9-0.2-1.7-0.3-2.4-0.2C1251,644.2,1251.7,644.3,1252.5,644.5z M1606.2,1129.1c0.6-0.6,1.1-1.2,1.5-1.9
			C1607.3,1127.7,1606.7,1128.3,1606.2,1129.1z M2125.2,1146v118.8c0,53.9-18.4,116.9-72.2,116.9c-27.1,0,0.5,15-443.7-239.1
			c1.4-2.1,2-4.1,1-5.8c-0.8-1.5-3.5,1.7-3.5,1.7c6.8-6.8,4.3-13.9,0.9-11.1c5.3-6.8,2.7-12.3-0.7-9.5c1.5-2,3.3-5,2.6-7.3
			c-1.1-3.6-3.2-2.8-7.5,0.3c-3.5,2.5-6.7,4.4-9.7,6.1c-0.3-2.1-0.4-4.1-0.1-5.8l36.9-10.8c0.5-0.1,0.9-0.4,1.4-0.6
			c0,0,0,0.1-0.1,0.1c0.1,0,0.1-0.1,0.2-0.2c0.1-0.1,0.2-0.2,0.3-0.3v0l16.9-9.2c8.1-3.8,3.2-22.6-8.2-29.5
			c-65.7-39.5-70.5-39.3-74.3-53.9l-20.6-79.9c-3.4-13.2-15.9-21.8-21.6-16.6l-16.8,8.9l0.1,0.1c-1.3,0.7-2.4,1.9-3.1,3.8
			l-17.5,47.6c0,0,0,0,0,0l-59.6-33c-5.8-3.2-5.7-2-26.5,8.9c0,0,0.1,0,0.2,0c-4.9,2.8-5.3,12.7,1.3,22.3l14.9,21.5
			c-4.8,1.9-9.2,5.1-18.3,11.2c-0.8-0.5-1.8-1-2.8-1.3c0,0-12.1,3.3-24.3,6.1c-0.3-0.2-0.5-0.3-0.8-0.5c1.1-0.3,2.2-0.7,3.4-1.5
			c5.3-3.5,5.1-16.3,4.5-43c-0.1-3.9-0.5-7.4-1-10.7c1.1-2.4,1.7-5.1,1.6-7.2c-0.3-7.2-9.1-23.2-32.3-27.8
			c-27.4-5.3-52.6,16.8-54.8,45.3c-28.6-16.3-58.2-33.2-89.2-50.8l-117.3,245.9l-61.5-348.4L750.3,640.4
			c-81.5-47.1-150.4-179.8-150.4-289.8V231.8c0-71,28.3-116.9,72.2-116.9c34.2,0-61.6-49.6,1302.7,741.2
			C2056.3,903.2,2125.2,1035.9,2125.2,1146z M954.1,463.2c-65.7-39.5-70.5-39.3-74.3-53.9l-20.6-79.9c-3.4-13.2-15.9-21.8-21.6-16.6
			l-8.1,3.5l0.1,0.1c-1.3,0.7-2.4,1.9-3.1,3.8L806,376.2c-80-44.4-65.3-40.2-83-32.6c0,0,0.1,0,0.2,0c-4.9,2.8-5.3,12.7,1.3,22.3
			l50,72.4c9.3,13.4,4.6,17.3-13.8,76.5c-3.4,11,9.3,29,19,26.9l51.5-11.4c9.4-2.1,11.8,4.8,65.7,79.1c5.5,7.6,12,9.8,16,7.5
			c-0.1,0.1-0.1,0.1-0.2,0.2c0.8-0.4,1.4-0.8,1.9-1.3c16.4-7.2,14.1,0.5-7.8-95.1c-0.6-2.4,0.5-7.9,1-10.3l44.3-13
			c0.5-0.1,0.9-0.4,1.4-0.6c0,0,0,0.1-0.1,0.1c0.1,0,0.1-0.1,0.2-0.2c0.1-0.1,0.2-0.2,0.3-0.3l8.2-3.8
			C970.3,488.8,965.4,470,954.1,463.2z M1217.3,614.2c-65.7-39.5-70.5-39.3-74.3-53.9l-20.6-79.9c-3.4-13.2-15.9-21.8-21.6-16.6
			l-8.1,3.5l0.1,0.1c0,0,0,0,0,0c-1.3,0.7-2.4,1.9-3.1,3.8l-20.6,56.1c-80-44.4-65.3-40.2-83-32.6c0,0,0.1,0,0.2,0
			c-4.9,2.8-5.3,12.7,1.3,22.3l50,72.4c9.3,13.4,4.6,17.3-13.8,76.5c-3.4,11,9.3,29,19,26.9l51.5-11.4c9.4-2.1,11.8,4.8,65.7,79.1
			c5.5,7.6,12,9.8,16,7.5c-0.1,0.1-0.1,0.1-0.2,0.2c0.8-0.4,1.4-0.8,2-1.3c16.4-7.2,14,0.4-7.8-95.1c-0.6-2.4,0.5-7.9,1-10.3
			l44.3-13c0.5-0.1,0.9-0.4,1.4-0.6c0,0,0,0.1-0.1,0.1c0.1,0,0.1-0.1,0.2-0.2c0.1-0.1,0.2-0.2,0.3-0.3l8.2-3.8
			C1233.6,639.8,1228.7,621,1217.3,614.2z M1478.4,764.6c-65.7-39.5-70.5-39.3-74.3-53.9l-20.6-79.9c-3.4-13.2-15.9-21.8-21.6-16.6
			l-8.1,3.5l0.1,0.1c-1.3,0.7-2.4,1.9-3.1,3.8l-20.6,56.1c-80-44.4-65.3-40.2-83-32.6c0,0,0.1,0,0.2,0c-4.9,2.8-5.3,12.7,1.3,22.3
			l50,72.4c9.3,13.4,4.6,17.3-13.8,76.5c-3.4,11,9.3,29,19,26.9l51.5-11.4c9.4-2.1,11.8,4.8,65.7,79.1c5.5,7.6,12,9.8,16,7.5
			c-0.1,0.1-0.1,0.1-0.2,0.2c0.8-0.4,1.4-0.8,1.9-1.3c16.5-7.2,14,0.3-7.8-95.1c-0.6-2.4,0.5-7.9,1-10.3l44.3-13
			c0.5-0.1,0.9-0.4,1.4-0.6c0,0,0,0.1-0.1,0.1c0.1,0,0.1-0.1,0.2-0.2c0.1-0.1,0.2-0.2,0.3-0.3l8.2-3.8
			C1494.7,790.3,1489.8,771.5,1478.4,764.6z M1887.2,920.3c1.1-2.4,2.1-3.9,3.1-4.8c-1.1,0.7-2,1.9-2.6,3.5L1887.2,920.3z M1625,769
			c1.1-2.4,2.1-3.9,3.1-4.8c-1.1,0.7-2,1.9-2.6,3.5L1625,769z M1578.4,990.3c-4.2,0.9-9-1.9-12.8-6.4
			C1569.4,988.4,1574.2,991.2,1578.4,990.3z M1696.3,1058.3c-27.2-37.5-41.3-57.9-50-68.7
			C1654.8,1000.4,1668.9,1020.8,1696.3,1058.3z M1709.6,1066.6c-0.4,0-0.7,0.1-1.1,0.1C1708.9,1066.7,1709.3,1066.7,1709.6,1066.6z
			 M1744.5,915.9l-63.1-37.9c-11.6-7-10.6-12.7-32.3-96.6c-2.4-9.1-9.1-16-14.9-17.7c-20.5,55.9-19.1,58.8-27.9,56.2l-1.5,4.2
			c-1.7,4.7-6.3,5.9-11.6,3l-63.1-34.9c-0.7-0.4-1.3-0.7-2-0.9c0,9.6,2.5,10.7,55.2,87c9.3,13.5,4.7,17.2-13.8,76.9
			c-3.4,11,9.4,29.1,19.1,27l51.8-11.4c9.5-2.1,11.8,4.8,66.1,79.5c3,4.1,6.3,6.5,9.3,7.6c0.1,4.2-1.5,7.1-3.9,8.3
			c3.2-1.6,5-5.9,3.4-12.6l-18.3-79.8c-1.5-6.6,0.2-11.8,4.4-13l5.6-1.6c1.1-7.3,0.3-5.3,49.3-19.7c-0.5,3.6-1,5.1-6.6,7.1l1.9-0.5
			C1761.2,943.1,1756.3,923,1744.5,915.9z M1711.6,1066.1c-0.4,0.2-0.8,0.3-1.2,0.4C1710.8,1066.4,1711.2,1066.3,1711.6,1066.1z
			 M1572.6,921.7c7-21.9,7-25.9,0.5-35.3C1579.5,895.7,1579.4,900.4,1572.6,921.7z M1958.4,1209.7c-27.2-37.5-41.4-57.9-50-68.7
			C1916.9,1151.7,1931.1,1172.1,1958.4,1209.7z M1971.7,1218c-0.4,0-0.7,0.1-1.1,0.1C1971,1218,1971.4,1218,1971.7,1218z
			 M2006.6,1067.2l-63.1-37.9c-11.6-7-10.6-12.7-32.3-96.6c-2.4-9.1-9.1-16-14.9-17.7c-20.5,55.9-19.1,58.8-27.9,56.3
			c0-0.1,0.1-0.1,0.1-0.2l-1.6,4.4c-1.7,4.7-6.3,5.9-11.6,3l-63.1-34.9c-0.7-0.4-1.3-0.7-2-0.9c-0.1,9.5,2.5,10.7,55.2,87
			c9.3,13.5,4.7,17.2-13.8,76.9c-3.4,11,9.4,29.1,19.1,27l51.8-11.4c9.5-2.1,11.8,4.8,66.1,79.5c3,4.1,6.3,6.5,9.3,7.6
			c0.1,4.2-1.5,7-3.9,8.3c3.2-1.6,5-5.9,3.4-12.5l-18.3-79.8c-1.5-6.6,0.2-11.8,4.4-13l5.6-1.6c1.1-7.3,0.1-5.3,49.3-19.7
			c-0.5,3.6-1,5.1-6.6,7.1l1.9-0.5C2023.4,1094.4,2018.5,1074.3,2006.6,1067.2z M1973.7,1217.5c-0.4,0.2-0.8,0.3-1.2,0.4
			C1972.9,1217.8,1973.3,1217.6,1973.7,1217.5z M1833.9,1075.6c7.7-24.1,8-28.1,1.3-37.8C1841.9,1047.4,1841.4,1052.1,1833.9,1075.6
			z M1254.3,645.1c0.1,0,0.1,0.1,0.2,0.1c-0.3-0.1-0.7-0.3-1-0.4c0.1,0,0.1,0.1,0.2,0.1C1254,644.9,1254.2,645,1254.3,645.1z
			 M1515,920C1515,920,1515,920,1515,920C1515,920,1514.9,920,1515,920C1514.9,920,1515,920,1515,920z M991.4,494c0.1,0,0.2,0,0.2,0
			c-0.9-0.2-1.7-0.3-2.4-0.2C989.9,493.8,990.6,493.9,991.4,494z M838,317.1C838,317.1,838,317.1,838,317.1
			C838,317.1,837.9,317.1,838,317.1C837.9,317.1,837.9,317.1,838,317.1z M802.5,380.5c0.8-0.2,1.4-0.6,1.9-1.2
			C803.9,379.9,803.2,380.3,802.5,380.5C802.5,380.5,802.5,380.5,802.5,380.5z M794.4,378.8c3.1,1.3,5.3,1.9,6.9,1.9c0,0,0,0,0,0
			C799.6,380.7,797.4,380.2,794.4,378.8C794.3,378.8,794.3,378.8,794.4,378.8z M1161.3,676C1161.3,676,1161.3,676.1,1161.3,676
			c-0.3-1.9-0.4-3.6-0.4-5C1160.8,672.6,1160.9,674.2,1161.3,676z M1101.3,468.1C1101.3,468.1,1101.3,468.1,1101.3,468.1
			C1101.3,468.1,1101.2,468.1,1101.3,468.1C1101.2,468.1,1101.2,468.1,1101.3,468.1z M1057.4,529.8c2.6,1.1,4.6,1.8,6.1,2
			C1062,531.5,1060,530.9,1057.4,529.8C1057.4,529.8,1057.4,529.8,1057.4,529.8z M1422.4,826.5
			C1422.4,826.5,1422.4,826.5,1422.4,826.5c-0.3-1.9-0.4-3.6-0.4-5C1421.9,823,1422,824.7,1422.4,826.5z M1445.2,1640.3
			c-7.2,9.1-44.6,27.5-54.2,27.5c-17.8,0-25.1,19.1-50,6.1c-4.5-2.3-3.9-9.9-2.8-15.3c0,0-0.1-0.1-0.1-0.1
			c-3.2-3.1-3.9-29.6-3.7-62.1c-15.1,10.7-33.3,13-36.7,15.4c-3.7,2.7-8,12.8-17.9,17.6c-9.9,4.8-22.2,0.3-24.9-5.3
			c-1.4-3-1.1-8.3-0.5-12.5c-10.6-12.4-1.2-48,0.6-77.5c2-32.5,10.8-124.3,5.2-170c-2-16.5-2.2-31.7-1.6-44.4
			c7.8,6.1,17.8,12.1,30.5,16.5c34.1,12,90.1,15,114.8-9.8c9.4,135.9,13.2,154.3-8.9,251c-4.3,18.6,7.5,39.3,9.8,46.2
			c22.5-1.8,35.1-5.6,38.4,1.5C1448.5,1628.9,1449.6,1634.8,1445.2,1640.3z M1336,1482.3c-0.2-27.6-3.8-51.6-8.1-72.9
			c0.2,32.2-3.5,61.4-14.3,117.4c-4.8,24.5-3.2,36.9-1.6,41c7.5-1.8,15-2.7,21-2.5c0.6,0,1.2,0,1.9,0
			C1335.3,1533.7,1336.2,1501.7,1336,1482.3z M870.6,1135.1c0-0.4,0-0.8,0-1.1c-0.1,0.4-0.3,0.8-0.5,1.2
			C870.2,1135.1,870.4,1135.1,870.6,1135.1z M870.5,1132.8c0,0.1,0,0.3,0,0.4C870.6,1133,870.5,1132.9,870.5,1132.8L870.5,1132.8z
			 M870.6,1102.3c0-0.1,0-0.3,0-0.4l0,0C870.5,1102,870.6,1102.2,870.6,1102.3z M870.6,1070.7c0-0.1,0-0.3,0-0.4l0,0
			C870.5,1070.4,870.6,1070.6,870.6,1070.7z M588.6,1114.3c-2.3-1.8-3.1-3.8-2.9-5.8l-0.4-0.4c0,12.5-0.2,18.9,0.1,22.6
			c0.3,3.5,1.2,4.7,3.2,6.2c9,6.9,16.3,12.5,22.4,17.1c0,1.9-0.1,3.3-0.1,4.4c-0.1,3.1-0.1,3.4,0.2,3.3c0,0,0.1,0,0.1,0
			c1.5,4.9,10.4,8.6,19.7,6.8l70.3-13.7c9.3-1.8,9.1-0.9,61.1,21.7c16.6,0.2,28,0.4,35.9,0.4c0.2-0.5,0.3-1,0.3-1.6l0,1.6
			c15.4,0,17.9-0.8,21.4-3.7l37.1-30.3c-43.5,17.6-55.5,21.7-58.6,25.5l-0.2-8c2.9-4.2,15.6-8.2,66.1-28.7c3.5-1.4,5.1-2.6,5.8-5.6
			c0.2-0.7,0.3-1.4,0.3-2.3c0-0.1,0-0.1,0-0.2c0.3-3.9,0-10.1,0-20.6c-0.4,2.3-2.4,4.5-6.2,6c-49.6,20.2-62.6,24.5-65.8,28.5
			l-0.2-8.6c2.9-4.2,15.5-8.2,66.1-28.8c3.5-1.4,5.1-2.6,5.8-5.6c0.2-0.7,0.3-1.4,0.3-2.3c0-0.1,0-0.1,0-0.2c0.3-3.9,0-10.1,0-20.6
			c-0.4,2.3-2.4,4.5-6.2,6c-50.7,20.7-63.2,24.7-66.1,28.8l0.4,15.1c0.2,7.2-14,11.3-23.9,7c-64.4-27.8-63.6-29-73.5-27.1L631,1115
			c-11.8,2.3-23.1-4.2-19.1-11c0.4-0.6,0.7-1.2,1.1-1.8l-24.3-18.7c-2.3-1.8-3.1-3.8-2.9-5.8l-0.4-0.4c0,12.5-0.2,18.9,0.1,22.6
			c0.3,3.5,1.2,4.7,3.2,6.2c9,6.9,16.3,12.5,22.4,17.1c-0.1,8.1-0.2,7.9,0.2,7.7c1.5,4.9,10.4,8.6,19.7,6.8l70.3-13.7
			c10-1.9,9.1-0.7,73.5,27.1c9.8,4.2,23.4,0.3,23.8-6.6l0.1,3.7c0,0.2-0.1,0.3-0.1,0.5l0.1,3.7c0.2,7.2-14,11.3-23.9,7
			c-64.4-27.8-63.6-29-73.5-27.1l-70.3,13.7c-11.3,2.2-22.1-3.8-19.3-10.3c-0.1-0.2-0.3-0.4-0.3-0.6l-0.1,0c0-1.6,0-2.6,0-3.3
			L588.6,1114.3z M588.6,1074.5c11.9,9.2,21,16,28,21.3c3.6-6.1,6.6-11.1,9.1-15.3l-37.1-28.6c-2.3-1.8-3.1-3.8-2.9-5.8l-0.4-0.4
			c0,12.5-0.2,18.9,0.1,22.6C585.8,1071.7,586.6,1072.9,588.6,1074.5z M864.4,1046.6c-62.5,25.5-67,25.6-66.8,31.8l0.6,20
			c2.4-4.5,14.4-8,66.3-29.2c3.5-1.4,5.1-2.6,5.8-5.6c0.2-0.7,0.3-1.4,0.3-2.3c0-0.1,0-0.1,0-0.2c0.3-3.9,0-10.1,0-20.6
			C870.1,1042.9,868.1,1045.1,864.4,1046.6z M870.5,1039.4c0,0.1,0,0.3,0,0.4C870.6,1039.7,870.5,1039.6,870.5,1039.4L870.5,1039.4z
			 M588.6,1043.6c21.2,16.4,33.7,25.4,40.5,31.1c8.6-14.7,8.5-15.9,4.1-19.2l-44.6-34.5c-2.3-1.8-3.1-3.8-2.9-5.8l-0.4-0.4
			c0,12.5-0.2,18.9,0.1,22.6C585.8,1040.8,586.6,1042,588.6,1043.6z M996.9,1245.9c-50.8,20.7-63.3,24.7-66.1,28.8l0.4,15.8
			c0.2,7.2-14,11.3-23.9,7c-64.4-27.8-63.5-29-73.5-27.1l-70.3,13.7c-9.9,1.9-19.3-2.4-19.8-7.8c0,22.7-0.5,23.9,0,23.7
			c0,0,0.1,0,0.1,0c1.5,4.9,10.4,8.6,19.7,6.8l70.3-13.7c9.9-1.9,9-0.8,73.5,27.1c9.8,4.2,23.4,0.3,23.8-6.6c0-0.2,0.1-0.3,0.1-0.5
			l-0.3-11.3l-0.1-4.4c2.8-4.2,15.4-8.1,66.1-28.8c3.5-1.4,5.1-2.6,5.8-5.6c0.2-0.7,0.3-1.4,0.3-2.3c0-0.1,0-0.1,0-0.2
			c0.3-3.9,0-10.1,0-20.6C1002.6,1242.2,1000.6,1244.4,996.9,1245.9z M1003,1238.7c0,0.1,0,0.3,0,0.4
			C1003.1,1239,1003.1,1238.9,1003,1238.7L1003,1238.7z M907.3,1327.7c-64.4-27.8-63.6-29-73.5-27.1l-70.3,13.7
			c-9.9,1.9-19.3-2.4-19.8-7.8c0,22.7-0.5,23.9,0,23.7c0,0,0.1,0,0.1,0c1.5,4.9,10.4,8.6,19.7,6.8l70.3-13.6
			c9.9-1.9,9-0.8,73.5,27.1c9.8,4.2,23.4,0.3,23.8-6.6c0-0.2,0.1-0.3,0.1-0.5l-0.6-20.1C928,1328.8,916,1331.5,907.3,1327.7z
			 M758.5,1249.1l-37.4-28.9c-2.8-2.2-3.5-4.7-2.7-6.9c-1-2-0.6-3.7-0.6-7c0.1,0,0.1,0.1,0.1,0.2c0.3,3.5,1.2,4.7,3.2,6.2
			c21.2,16.4,33.7,25.4,40.5,31.1c8.6-14.7,8.5-15.9,4.1-19.2l-44.6-34.5c-7.5-5.8-0.3-13.9,12.1-13.8c2.8,0,5.4,0.1,8,0.1
			c-31.1-13.6-32.3-14-40.1-12.5l-70.3,13.7c-9.9,1.9-19.3-2.4-19.8-7.8c0,22.7-0.5,23.9,0,23.7c0,0,0.1,0,0.1,0
			c1.5,4.9,10.4,8.6,19.7,6.8l70.3-13.7c5-1,7.3-1.2,16.6,2.5c0,3.2,0,5.9-0.1,8.2c-9.3-3.6-11.5-3.4-16.5-2.5l-70.3,13.7
			c-9.9,1.9-19.3-2.4-19.8-7.8c0,22.7-0.5,23.9,0,23.7c0,0,0.1,0,0.1,0c1.5,4.9,10.4,8.6,19.7,6.8l70.3-13.7c5-1,7.3-1.2,16.6,2.5
			c0,1.5,0,2.9,0,4.1c0,6.2-0.1,10.1,0.2,12.7c0.3,3.5,1.2,4.7,3.2,6.2c12.1,9.3,21.3,16.2,28.3,21.5
			C753,1258.3,756,1253.3,758.5,1249.1z M1003,1208.5c0,0.1,0,0.3,0,0.4C1003.1,1208.8,1003.1,1208.7,1003,1208.5L1003,1208.5z
			 M996.9,1215.7c-62.5,25.5-67,25.6-66.8,31.8l0.6,20c2.3-4.3,14.1-7.9,66.3-29.2c3.5-1.4,5.1-2.6,5.8-5.6c0.2-0.7,0.3-1.4,0.3-2.3
			c0-0.1,0-0.1,0-0.2c0.3-3.9,0-10.1,0-20.6C1002.6,1212,1000.6,1214.2,996.9,1215.7z M209.2,725.4l8.1-23.4
			c6.7,24.8,10.5,37.1,11.4,63.5l6.1-1.8c-3.1-28.9-4.6-45.4-12.6-65.3l13.6,14.9c1.6-15.6,1.2-20.5-3.8-31.4
			c-1.3,1.4-2.9,2.3-4.8,2.8c-1.8,6.5-3.2,11.1-5.2,13.6l0,0l-0.1,0c-3.8,4.6-9.8,2.2-25-7.4c-9.6-6.1-22.5-27.4-22.5-27.4l0.3-0.7
			c-2.2,1.2-3.9,3-5,5.4c-1,2.3-1.5,5.1-1.1,8.9C180.5,697.6,190,713.4,209.2,725.4z M575.5,1129.1c0,0.2,0,0.4,0,0.7
			C575.6,1129.3,575.6,1129.1,575.5,1129.1L575.5,1129.1z M576.1,1306.2c2.6,3,3.6,7.3,0.6,11.5c-0.4,0.5-0.8,1-1.2,1.5
			c0,13.8,0,23.4,0,26c0,0.5,0,0.7,0,0.7c0,52.2-72.7,94.5-162.3,94.5c-25.2,0-49.1-3.3-70.4-9.3c-7.1-2-13.9-4.3-20.4-6.8
			c-2.2-0.8-4.3-1.7-6.4-2.6c-12.5-5.4-23.6-11.9-32.9-19.2c-1.6-1.2-3.1-2.4-4.5-3.7c-17.5-15.1-27.7-33.3-27.7-52.8
			c0,0,0-1.1,0-2.9c0-1.9,0-4.6,0-7.9c0,0,0,0,0,0c0-1.1,0-2.1,0-3.3c0,68.1,93.5,97.8,162.3,97.8c68.7,0,162.3-29.8,162.3-97.8
			c0,52.2-72.7,94.5-162.3,94.5c-89.6,0-162.3-42.3-162.3-94.5c0-17.4,0-48.9,0-81.9c-7.2-4.8-13-10-15.2-12.9
			c-4.6-5.8-13.7-2.3-19.3-4.1c-5.6-1.8-17.7-8.9-17.7-8.9l2-11.2c-0.3-0.4-0.5-0.7-0.7-1.1c-1.7-4.6,2.7-123.5,2.7-123.5l-1.1-69.5
			c-4.1,57.7-7.4,98.7-18.6,144.4c-4.9,20.1-10.6,48.6-9.1,62.7c1.4,12.7,6.7,22.9,1.5,29.2c3.5,5.3,8.4,12.6,11.6,17.6
			c2.2,3,4.2,5.7,6.1,8.1c4.7,5.3,11,12,11.8,17.4c3.5,6.5,2.7,9.1-0.9,12c-5.1,4.1-25.8,6.7-43-4.4c-19.9-12.9-26.7-29.6-26.7-29.6
			c-4.4,1.7-1.3,3.2-13.7-9.1l0.2-9c-1.9-2-3.1-5.2-3.1-11.3c0-13.7,1.9-90.8,7.2-121.6c5.3-30.8-3.3-138.6-3.4-152.4
			c-0.1-4.7,0.2-9,0.6-13c18.3,20,108.9,21.6,139.4-15.1c1.5,34,3.8,91.1,3.3,109.1c-0.3,10.9-3.1,29.1-6.1,47.4
			c-4.9,9-7.5,18.6-7.5,28.5c0,52.2,72.7,94.5,162.3,94.5c89.6,0,162.3-42.3,162.3-94.5c0,3.3,0,19.5,0,41.5
			c0.2-4.8,3.6,0.2,4.5,1.7C604.4,1217.8,599.7,1267.8,576.1,1306.2z M575.6,1179.1c0-0.1,0-0.1,0-0.2c0,34.3,0,79.9,0,114.8
			C593.5,1258.7,595.7,1216.1,575.6,1179.1z"/>
	</g>
</g>
</svg>
