<?xml version="1.0" encoding="utf-8"?>
<!-- Generator: Adobe Illustrator 26.0.3, SVG Export Plug-In . SVG Version: 6.00 Build 0)  -->
<svg version="1.1" xmlns="http://www.w3.org/2000/svg" xmlns:xlink="http://www.w3.org/1999/xlink" x="0px" y="0px"
	 viewBox="0 0 3710 3710" enable-background="new 0 0 3710 3710" xml:space="preserve">
<g id="Background" display="none">
	<g display="inline">
		<g>
			<rect fill="#FFFFFF" width="3710" height="3710"/>
		</g>
	</g>
</g>
<g id="Illustration">
	<g>
		<path fill="#222" d="M1363.2,3399.8C456.7,3188.3-119.9,2590,16,1622.9c115.9-824.9,723-1182,1543.8-1468.6
			c132.7-46.3,510.1-92.1,649.6-80.9c535.4,42.9,855.4,152.4,1077.8,411.1c280.4,326.2,379,788.6,416.5,1197.6
			C3803.4,2770,2537.6,3673.8,1363.2,3399.8z"/>
		<g>
			<g>
				<g>
					<g>
						<path fill="#BFC8D6" d="M212.6,1668.8c-0.1,0-0.2,0-0.3,0l-33.6-1.9c-3.1-0.2-5.5-2.8-5.3-5.9c0.2-3.1,2.9-5.4,5.9-5.3
							l33.6,1.9c3.1,0.2,5.5,2.8,5.3,5.9C218,1666.5,215.5,1668.8,212.6,1668.8z"/>
					</g>
					<g>
						<path fill="#BFC8D6" d="M3145.3,1836.6c-0.1,0-0.2,0-0.3,0l-66.6-3.8c-3.1-0.2-5.5-2.8-5.3-5.9c0.2-3.1,3-5.4,5.9-5.3
							l66.7,3.8c3.1,0.2,5.5,2.8,5.3,5.9C3150.7,1834.3,3148.2,1836.6,3145.3,1836.6z M3012,1829c-0.1,0-0.2,0-0.3,0l-66.7-3.8
							c-3.1-0.2-5.5-2.8-5.3-5.9c0.2-3.1,3-5.5,5.9-5.3l66.7,3.8c3.1,0.2,5.5,2.8,5.3,5.9C3017.4,1826.7,3014.9,1829,3012,1829z
							 M2878.7,1821.3c-0.1,0-0.2,0-0.3,0l-66.7-3.8c-3.1-0.2-5.5-2.8-5.3-5.9c0.2-3.1,3-5.4,5.9-5.3l66.7,3.8
							c3.1,0.2,5.5,2.8,5.3,5.9C2884.1,1819,2881.6,1821.3,2878.7,1821.3z M2745.4,1813.7c-0.1,0-0.2,0-0.3,0l-66.7-3.8
							c-3.1-0.2-5.5-2.8-5.3-5.9c0.2-3.1,3-5.5,5.9-5.3l66.7,3.8c3.1,0.2,5.5,2.8,5.3,5.9
							C2750.8,1811.4,2748.3,1813.7,2745.4,1813.7z M2612.1,1806.1c-0.1,0-0.2,0-0.3,0l-66.7-3.8c-3.1-0.2-5.5-2.8-5.3-5.9
							c0.2-3.1,3-5.5,5.9-5.3l66.7,3.8c3.1,0.2,5.5,2.8,5.3,5.9C2617.5,1803.8,2615,1806.1,2612.1,1806.1z M2478.7,1798.5
							c-0.1,0-0.2,0-0.3,0l-66.6-3.8c-3.1-0.2-5.5-2.8-5.3-5.9c0.2-3.1,3-5.5,5.9-5.3l66.7,3.8c3.1,0.2,5.5,2.8,5.3,5.9
							C2484.2,1796.2,2481.7,1798.5,2478.7,1798.5z M2345.4,1790.8c-0.1,0-0.2,0-0.3,0l-66.7-3.8c-3.1-0.2-5.5-2.8-5.3-5.9
							c0.2-3.1,3-5.4,5.9-5.3l66.7,3.8c3.1,0.2,5.5,2.8,5.3,5.9C2350.9,1788.5,2348.4,1790.8,2345.4,1790.8z M2212.1,1783.2
							c-0.1,0-0.2,0-0.3,0l-66.6-3.8c-3.1-0.2-5.5-2.8-5.3-5.9c0.2-3.1,3-5.5,5.9-5.3l66.6,3.8c3.1,0.2,5.5,2.8,5.3,5.9
							C2217.6,1780.9,2215.1,1783.2,2212.1,1783.2z M2078.8,1775.6c-0.1,0-0.2,0-0.3,0l-66.6-3.8c-3.1-0.2-5.5-2.8-5.3-5.9
							c0.2-3.1,3-5.4,5.9-5.3l66.7,3.8c3.1,0.2,5.5,2.8,5.3,5.9C2084.3,1773.3,2081.8,1775.6,2078.8,1775.6z M1945.5,1768
							c-0.1,0-0.2,0-0.3,0l-66.6-3.8c-3.1-0.2-5.5-2.8-5.3-5.9c0.2-3.1,3-5.4,5.9-5.3l66.6,3.8c3.1,0.2,5.5,2.8,5.3,5.9
							C1950.9,1765.7,1948.5,1768,1945.5,1768z M1812.2,1760.3c-0.1,0-0.2,0-0.3,0l-66.7-3.8c-3.1-0.2-5.5-2.8-5.3-5.9
							c0.2-3.1,2.8-5.5,5.9-5.3l66.6,3.8c3.1,0.2,5.5,2.8,5.3,5.9C1817.6,1758,1815.2,1760.3,1812.2,1760.3z M1678.9,1752.7
							c-0.1,0-0.2,0-0.3,0l-66.7-3.8c-3.1-0.2-5.5-2.8-5.3-5.9c0.2-3.1,2.9-5.4,5.9-5.3l66.6,3.8c3.1,0.2,5.5,2.8,5.3,5.9
							C1684.3,1750.4,1681.9,1752.7,1678.9,1752.7z M1545.6,1745.1c-0.1,0-0.2,0-0.3,0l-66.7-3.8c-3.1-0.2-5.5-2.8-5.3-5.9
							c0.2-3.1,2.9-5.5,5.9-5.3l66.7,3.8c3.1,0.2,5.5,2.8,5.3,5.9C1551,1742.8,1548.6,1745.1,1545.6,1745.1z M1412.3,1737.5
							c-0.1,0-0.2,0-0.3,0l-66.7-3.8c-3.1-0.2-5.5-2.8-5.3-5.9c0.2-3.1,2.9-5.4,5.9-5.3l66.7,3.8c3.1,0.2,5.5,2.8,5.3,5.9
							C1417.7,1735.2,1415.3,1737.5,1412.3,1737.5z M1279,1729.8c-0.1,0-0.2,0-0.3,0l-66.7-3.8c-3.1-0.2-5.5-2.8-5.3-5.9
							c0.2-3.1,2.8-5.5,5.9-5.3l66.7,3.8c3.1,0.2,5.5,2.8,5.3,5.9C1284.4,1727.5,1281.9,1729.8,1279,1729.8z M1145.7,1722.2
							c-0.1,0-0.2,0-0.3,0l-66.7-3.8c-3.1-0.2-5.5-2.8-5.3-5.9c0.2-3.1,2.8-5.4,5.9-5.3l66.7,3.8c3.1,0.2,5.5,2.8,5.3,5.9
							C1151.1,1719.9,1148.6,1722.2,1145.7,1722.2z M1012.4,1714.6c-0.1,0-0.2,0-0.3,0l-66.7-3.8c-3.1-0.2-5.5-2.8-5.3-5.9
							c0.2-3.1,2.9-5.4,5.9-5.3l66.7,3.8c3.1,0.2,5.5,2.8,5.3,5.9C1017.8,1712.3,1015.3,1714.6,1012.4,1714.6z M879.1,1707
							c-0.1,0-0.2,0-0.3,0l-66.7-3.8c-3.1-0.2-5.5-2.8-5.3-5.9c0.2-3.1,2.9-5.4,5.9-5.3l66.7,3.8c3.1,0.2,5.5,2.8,5.3,5.9
							C884.5,1704.7,882,1707,879.1,1707z M745.8,1699.3c-0.1,0-0.2,0-0.3,0l-66.7-3.8c-3.1-0.2-5.5-2.8-5.3-5.9
							c0.2-3.1,2.9-5.4,5.9-5.3l66.7,3.8c3.1,0.2,5.5,2.8,5.3,5.9C751.2,1697,748.7,1699.3,745.8,1699.3z M612.5,1691.7
							c-0.1,0-0.2,0-0.3,0l-66.7-3.8c-3.1-0.2-5.5-2.8-5.3-5.9c0.2-3.1,2.9-5.4,5.9-5.3l66.7,3.8c3.1,0.2,5.5,2.8,5.3,5.9
							C617.9,1689.4,615.4,1691.7,612.5,1691.7z M479.2,1684.1c-0.1,0-0.2,0-0.3,0l-66.7-3.8c-3.1-0.2-5.5-2.8-5.3-5.9
							c0.2-3.1,2.9-5.4,5.9-5.3l66.7,3.8c3.1,0.2,5.5,2.8,5.3,5.9C484.6,1681.8,482.1,1684.1,479.2,1684.1z M345.9,1676.5
							c-0.1,0-0.2,0-0.3,0l-66.7-3.8c-3.1-0.2-5.5-2.8-5.3-5.9c0.2-3.1,2.9-5.5,5.9-5.3l66.7,3.8c3.1,0.2,5.5,2.8,5.3,5.9
							C351.3,1674.2,348.8,1676.5,345.9,1676.5z"/>
					</g>
					<g>
						<path fill="#BFC8D6" d="M3245.5,1842.3c-0.1,0-0.2,0-0.3,0l-33.6-1.9c-3.1-0.2-5.5-2.8-5.3-5.9c0.2-3.1,3-5.5,5.9-5.3
							l33.6,1.9c3.1,0.2,5.5,2.8,5.3,5.9C3250.9,1840,3248.5,1842.3,3245.5,1842.3z"/>
					</g>
				</g>
				<g>
					<g>
						<path fill="#BFC8D6" d="M839,683.6c-0.3,0-0.6,0-0.9-0.1l-33.2-5.5c-3.1-0.5-5.1-3.4-4.6-6.5c0.5-3.1,3.4-5.1,6.5-4.6
							l33.2,5.5c3.1,0.5,5.1,3.4,4.6,6.5C844.1,681.6,841.7,683.6,839,683.6z"/>
					</g>
					<g>
						<path fill="#BFC8D6" d="M2871.1,1023.2c-0.3,0-0.6,0-0.9-0.1l-67.7-11.3c-3.1-0.5-5.1-3.4-4.6-6.5c0.5-3.1,3.4-5.1,6.5-4.6
							l67.7,11.3c3.1,0.5,5.1,3.4,4.6,6.5C2876.1,1021.3,2873.7,1023.2,2871.1,1023.2z M2735.6,1000.6c-0.3,0-0.6,0-0.9-0.1
							l-67.7-11.3c-3.1-0.5-5.1-3.4-4.6-6.5c0.5-3.1,3.4-5.1,6.5-4.6l67.7,11.3c3.1,0.5,5.1,3.4,4.6,6.5
							C2740.6,998.6,2738.3,1000.6,2735.6,1000.6z M2600.1,977.9c-0.3,0-0.6,0-0.9-0.1l-67.7-11.3c-3.1-0.5-5.1-3.4-4.6-6.5
							c0.5-3.1,3.4-5.1,6.5-4.6l67.7,11.3c3.1,0.5,5.1,3.4,4.6,6.5C2605.2,976,2602.8,977.9,2600.1,977.9z M2464.6,955.3
							c-0.3,0-0.6,0-0.9-0.1l-67.7-11.3c-3.1-0.5-5.1-3.4-4.6-6.5c0.5-3.1,3.4-5.1,6.5-4.6l67.7,11.3c3.1,0.5,5.1,3.4,4.6,6.5
							C2469.7,953.3,2467.3,955.3,2464.6,955.3z M2329.2,932.6c-0.3,0-0.6,0-0.9-0.1l-67.7-11.3c-3.1-0.5-5.1-3.4-4.6-6.5
							c0.5-3.1,3.4-5.1,6.5-4.6l67.7,11.3c3.1,0.5,5.1,3.4,4.6,6.5C2334.2,930.7,2331.9,932.6,2329.2,932.6z M2193.7,910
							c-0.3,0-0.6,0-0.9-0.1l-67.7-11.3c-3.1-0.5-5.1-3.4-4.6-6.5c0.5-3.1,3.4-5.1,6.5-4.6l67.7,11.3c3.1,0.5,5.1,3.4,4.6,6.5
							C2198.8,908.1,2196.4,910,2193.7,910z M2058.2,887.4c-0.3,0-0.6,0-0.9-0.1l-67.7-11.3c-3.1-0.5-5.1-3.4-4.6-6.5
							c0.5-3.1,3.4-5.1,6.5-4.6l67.7,11.3c3.1,0.5,5.1,3.4,4.6,6.5C2063.3,885.4,2060.9,887.4,2058.2,887.4z M1922.8,864.7
							c-0.3,0-0.6,0-0.9-0.1l-67.7-11.3c-3.1-0.5-5.1-3.4-4.6-6.5c0.5-3.1,3.4-5.1,6.5-4.6l67.7,11.3c3.1,0.5,5.1,3.4,4.6,6.5
							C1927.8,862.8,1925.5,864.7,1922.8,864.7z M1787.3,842.1c-0.3,0-0.6,0-0.9-0.1l-67.7-11.3c-3.1-0.5-5.1-3.4-4.6-6.5
							c0.5-3.1,3.4-5.1,6.5-4.6l67.7,11.3c3.1,0.5,5.1,3.4,4.6,6.5C1792.4,840.1,1790,842.1,1787.3,842.1z M1651.8,819.4
							c-0.3,0-0.6,0-0.9-0.1l-67.7-11.3c-3.1-0.5-5.1-3.4-4.6-6.5c0.5-3.1,3.4-5.1,6.5-4.6l67.7,11.3c3.1,0.5,5.1,3.4,4.6,6.5
							C1656.9,817.5,1654.5,819.4,1651.8,819.4z M1516.4,796.8c-0.3,0-0.6,0-0.9-0.1l-67.7-11.3c-3.1-0.5-5.1-3.4-4.6-6.5
							c0.5-3.1,3.4-5.1,6.5-4.6l67.7,11.3c3.1,0.5,5.1,3.4,4.6,6.5C1521.4,794.8,1519.1,796.8,1516.4,796.8z M1380.9,774.1
							c-0.3,0-0.6,0-0.9-0.1l-67.7-11.3c-3.1-0.5-5.1-3.4-4.6-6.5c0.5-3.1,3.4-5.1,6.5-4.6l67.7,11.3c3.1,0.5,5.1,3.4,4.6,6.5
							C1386,772.2,1383.6,774.1,1380.9,774.1z M1245.4,751.5c-0.3,0-0.6,0-0.9-0.1l-67.7-11.3c-3.1-0.5-5.1-3.4-4.6-6.5
							c0.5-3.1,3.4-5.1,6.5-4.6l67.7,11.3c3.1,0.5,5.1,3.4,4.6,6.5C1250.5,749.6,1248.1,751.5,1245.4,751.5z M1110,728.8
							c-0.3,0-0.6,0-0.9-0.1l-67.7-11.3c-3.1-0.5-5.1-3.4-4.6-6.5c0.5-3.1,3.4-5.1,6.5-4.6l67.7,11.3c3.1,0.5,5.1,3.4,4.6,6.5
							C1115,726.9,1112.6,728.8,1110,728.8z M974.5,706.2c-0.3,0-0.6,0-0.9-0.1l-67.7-11.3c-3.1-0.5-5.1-3.4-4.6-6.5
							c0.5-3.1,3.4-5.1,6.5-4.6l67.7,11.3c3.1,0.5,5.1,3.4,4.6,6.5C979.6,704.3,977.2,706.2,974.5,706.2z"/>
					</g>
					<g>
						<path fill="#BFC8D6" d="M2965.5,1073.1c-0.4,0-0.7,0-1.1-0.1c-3-0.6-5-3.5-4.4-6.6l5.3-27.4l-27.5-4.6
							c-3.1-0.5-5.1-3.4-4.6-6.5c0.5-3.1,3.4-5.1,6.5-4.6l33.2,5.5c1.5,0.2,2.8,1.1,3.7,2.3c0.9,1.2,1.2,2.8,0.9,4.3l-6.4,33
							C2970.5,1071.2,2968.2,1073.1,2965.5,1073.1z"/>
					</g>
					<g>
						<path fill="#BFC8D6" d="M2649.9,2699.6c-0.4,0-0.7,0-1.1-0.1c-3-0.6-5-3.5-4.4-6.6l13.2-67.8c0.6-3,3.5-5,6.6-4.4
							c3,0.6,5,3.5,4.4,6.6l-13.2,67.8C2654.9,2697.7,2652.6,2699.6,2649.9,2699.6z M2676.2,2564.1c-0.4,0-0.7,0-1.1-0.1
							c-3-0.6-5-3.5-4.4-6.6l13.2-67.8c0.6-3,3.5-5,6.6-4.4c3,0.6,5,3.5,4.4,6.6l-13.2,67.8
							C2681.2,2562.2,2678.9,2564.1,2676.2,2564.1z M2702.5,2428.5c-0.4,0-0.7,0-1.1-0.1c-3-0.6-5-3.5-4.4-6.6l13.2-67.8
							c0.6-3,3.5-5,6.6-4.4c3,0.6,5,3.5,4.4,6.6L2708,2424C2707.5,2426.7,2705.2,2428.5,2702.5,2428.5z M2728.8,2293
							c-0.4,0-0.7,0-1.1-0.1c-3-0.6-5-3.5-4.4-6.6l13.1-67.8c0.6-3,3.5-5,6.6-4.4c3,0.6,5,3.5,4.4,6.6l-13.2,67.8
							C2733.8,2291.1,2731.5,2293,2728.8,2293z M2755.1,2157.4c-0.4,0-0.7,0-1.1-0.1c-3-0.6-5-3.5-4.4-6.6l13.2-67.8
							c0.6-3,3.5-5,6.6-4.4c3,0.6,5,3.5,4.4,6.6l-13.1,67.8C2760.1,2155.6,2757.8,2157.4,2755.1,2157.4z M2781.4,2021.9
							c-0.4,0-0.7,0-1.1-0.1c-3-0.6-5-3.5-4.4-6.6l13.2-67.8c0.6-3,3.5-5,6.6-4.4c3,0.6,5,3.5,4.4,6.6l-13.2,67.8
							C2786.4,2020,2784.1,2021.9,2781.4,2021.9z M2807.7,1886.4c-0.4,0-0.7,0-1.1-0.1c-3-0.6-5-3.5-4.4-6.6l13.2-67.8
							c0.6-3,3.6-5,6.6-4.4c3,0.6,5,3.5,4.4,6.6l-13.2,67.8C2812.7,1884.5,2810.4,1886.4,2807.7,1886.4z M2834,1750.8
							c-0.4,0-0.7,0-1.1-0.1c-3-0.6-5-3.5-4.4-6.6l13.2-67.8c0.6-3,3.5-5,6.6-4.4c3,0.6,5,3.5,4.4,6.6l-13.2,67.8
							C2839,1749,2836.7,1750.8,2834,1750.8z M2860.3,1615.3c-0.4,0-0.7,0-1.1-0.1c-3-0.6-5-3.5-4.4-6.6l13.2-67.8
							c0.6-3,3.5-5,6.6-4.4c3,0.6,5,3.5,4.4,6.6l-13.2,67.8C2865.3,1613.4,2863,1615.3,2860.3,1615.3z M2886.6,1479.7
							c-0.4,0-0.7,0-1.1-0.1c-3-0.6-5-3.5-4.4-6.6l13.2-67.8c0.6-3,3.5-5,6.6-4.4c3,0.6,5,3.5,4.4,6.6l-13.2,67.8
							C2891.6,1477.9,2889.3,1479.7,2886.6,1479.7z M2912.9,1344.2c-0.4,0-0.7,0-1.1-0.1c-3-0.6-5-3.5-4.4-6.6l13.2-67.8
							c0.6-3,3.5-5,6.6-4.4c3,0.6,5,3.5,4.4,6.6l-13.2,67.8C2917.9,1342.3,2915.6,1344.2,2912.9,1344.2z M2939.2,1208.6
							c-0.4,0-0.7,0-1.1-0.1c-3-0.6-5-3.5-4.4-6.6l13.1-67.8c0.6-3,3.5-5,6.6-4.4c3,0.6,5,3.5,4.4,6.6l-13.2,67.8
							C2944.2,1206.8,2941.9,1208.6,2939.2,1208.6z"/>
					</g>
					<g>
						<path fill="#BFC8D6" d="M2630.4,2800.4c-0.3,0-0.6,0-1-0.1l-33.1-5.8c-3-0.5-5.1-3.4-4.6-6.5c0.5-3,3.4-5.1,6.5-4.6l27.7,4.9
							l5.4-27.6c0.6-3,3.5-5,6.6-4.4c3,0.6,5,3.5,4.4,6.6l-6.4,33C2635.3,2798.5,2633,2800.4,2630.4,2800.4z"/>
					</g>
					<g>
						<path fill="#BFC8D6" d="M2532,2783.2c-0.3,0-0.6,0-1-0.1l-65.2-11.4c-3-0.5-5.1-3.4-4.6-6.5c0.5-3,3.4-5.1,6.5-4.6l65.2,11.4
							c3,0.5,5.1,3.4,4.6,6.5C2537,2781.2,2534.7,2783.2,2532,2783.2z M2401.5,2760.3c-0.3,0-0.6,0-1-0.1l-65.2-11.4
							c-3-0.5-5.1-3.4-4.6-6.5c0.5-3,3.4-5.1,6.5-4.6l65.2,11.4c3,0.5,5.1,3.4,4.6,6.5C2406.6,2758.4,2404.2,2760.3,2401.5,2760.3z
							 M2271,2737.5c-0.3,0-0.6,0-1-0.1l-65.2-11.4c-3-0.5-5.1-3.4-4.6-6.5c0.5-3,3.4-5.1,6.5-4.6l65.2,11.4c3,0.5,5.1,3.4,4.6,6.5
							C2276.1,2735.5,2273.7,2737.5,2271,2737.5z M2140.5,2714.6c-0.3,0-0.6,0-1-0.1l-65.2-11.4c-3-0.5-5.1-3.4-4.6-6.5
							c0.5-3,3.4-5.1,6.5-4.6l65.2,11.4c3,0.5,5.1,3.4,4.6,6.5C2145.6,2712.7,2143.2,2714.6,2140.5,2714.6z M2010.1,2691.8
							c-0.3,0-0.6,0-1-0.1l-65.2-11.4c-3-0.5-5.1-3.4-4.6-6.5c0.5-3,3.4-5.1,6.5-4.6l65.2,11.4c3,0.5,5.1,3.4,4.6,6.5
							C2015.1,2689.8,2012.7,2691.8,2010.1,2691.8z M1879.6,2668.9c-0.3,0-0.6,0-1-0.1l-65.2-11.4c-3-0.5-5.1-3.4-4.6-6.5
							c0.5-3,3.4-5.1,6.5-4.6l65.2,11.4c3,0.5,5.1,3.4,4.6,6.5C1884.6,2667,1882.2,2668.9,1879.6,2668.9z M1749.1,2646.1
							c-0.3,0-0.6,0-1-0.1l-65.2-11.4c-3-0.5-5.1-3.4-4.6-6.5c0.5-3,3.4-5.1,6.5-4.6l65.2,11.4c3,0.5,5.1,3.4,4.6,6.5
							C1754.1,2644.1,1751.7,2646.1,1749.1,2646.1z M1618.6,2623.2c-0.3,0-0.6,0-1-0.1l-65.2-11.4c-3-0.5-5.1-3.4-4.6-6.5
							c0.5-3.1,3.5-5.1,6.5-4.6l65.2,11.4c3,0.5,5.1,3.4,4.6,6.5C1623.6,2621.3,1621.3,2623.2,1618.6,2623.2z M1488.1,2600.4
							c-0.3,0-0.6,0-1-0.1l-65.2-11.4c-3-0.5-5.1-3.4-4.6-6.5c0.5-3,3.4-5.1,6.5-4.6l65.2,11.4c3,0.5,5.1,3.4,4.6,6.5
							C1493.1,2598.4,1490.8,2600.4,1488.1,2600.4z M1357.6,2577.5c-0.3,0-0.6,0-1-0.1l-65.2-11.4c-3-0.5-5.1-3.4-4.6-6.5
							c0.5-3,3.4-5.1,6.5-4.6l65.2,11.4c3,0.5,5.1,3.4,4.6,6.5C1362.7,2575.6,1360.3,2577.5,1357.6,2577.5z M1227.1,2554.7
							c-0.3,0-0.6,0-1-0.1l-65.2-11.4c-3-0.5-5.1-3.4-4.6-6.5c0.5-3,3.5-5.1,6.5-4.6l65.2,11.4c3,0.5,5.1,3.4,4.6,6.5
							C1232.2,2552.7,1229.8,2554.7,1227.1,2554.7z M1096.6,2531.8c-0.3,0-0.6,0-1-0.1l-65.2-11.4c-3-0.5-5.1-3.4-4.6-6.5
							c0.5-3,3.5-5.1,6.5-4.6l65.2,11.4c3,0.5,5.1,3.4,4.6,6.5C1101.7,2529.9,1099.3,2531.8,1096.6,2531.8z M966.2,2509
							c-0.3,0-0.6,0-1-0.1l-65.2-11.4c-3-0.5-5.1-3.4-4.6-6.5c0.5-3,3.5-5.1,6.5-4.6l65.2,11.4c3,0.5,5.1,3.4,4.6,6.5
							C971.2,2507,968.8,2509,966.2,2509z"/>
					</g>
					<g>
						<path fill="#BFC8D6" d="M835.7,2486.1c-0.3,0-0.6,0-1-0.1l-33.1-5.8c-1.8-0.3-3.4-1.5-4.1-3.2c-0.8-1.7-0.7-3.6,0.3-5.2
							L815,2443c1.6-2.7,5-3.5,7.7-1.9c2.7,1.6,3.5,5,1.9,7.7l-13.1,21.8l25.1,4.4c3,0.5,5.1,3.4,4.6,6.5
							C840.7,2484.2,838.3,2486.1,835.7,2486.1z"/>
					</g>
					<g>
						<path fill="#BFC8D6" d="M855.3,2392.3c-1,0-2-0.3-2.9-0.8c-2.7-1.6-3.5-5-1.9-7.7l35.5-59.1c1.6-2.7,5-3.5,7.7-1.9
							c2.7,1.6,3.5,5,1.9,7.7l-35.5,59.1C859.1,2391.4,857.2,2392.3,855.3,2392.3z M926.4,2274.1c-1,0-2-0.3-2.9-0.8
							c-2.7-1.6-3.5-5-1.9-7.7l35.5-59.1c1.6-2.7,5-3.5,7.7-1.9c2.7,1.6,3.5,5,1.9,7.7l-35.5,59.1
							C930.1,2273.1,928.3,2274.1,926.4,2274.1z M997.4,2155.8c-1,0-2-0.3-2.9-0.8c-2.7-1.6-3.5-5-1.9-7.7l35.5-59.1
							c1.6-2.7,5-3.5,7.7-1.9c2.7,1.6,3.5,5,1.9,7.7l-35.5,59.1C1001.1,2154.8,999.3,2155.8,997.4,2155.8z M1068.4,2037.5
							c-1,0-2-0.3-2.9-0.8c-2.7-1.6-3.5-5-1.9-7.7l35.5-59.1c1.6-2.7,5-3.5,7.7-1.9c2.7,1.6,3.5,5,1.9,7.7l-35.5,59.1
							C1072.1,2036.5,1070.3,2037.5,1068.4,2037.5z M1139.4,1919.2c-1,0-2-0.3-2.9-0.8c-2.7-1.6-3.5-5-1.9-7.7l35.5-59.1
							c1.6-2.7,5-3.5,7.7-1.9c2.7,1.6,3.5,5,1.9,7.7l-35.5,59.1C1143.1,1918.3,1141.3,1919.2,1139.4,1919.2z M1210.4,1801
							c-1,0-2-0.3-2.9-0.8c-2.7-1.6-3.5-5-1.9-7.7l35.5-59.1c1.6-2.7,5-3.5,7.7-1.9c2.7,1.6,3.5,5,1.9,7.7l-35.5,59.1
							C1214.1,1800,1212.3,1801,1210.4,1801z M1281.4,1682.7c-1,0-2-0.3-2.9-0.8c-2.7-1.6-3.5-5-1.9-7.7l35.5-59.1
							c1.6-2.7,5-3.5,7.7-1.9c2.7,1.6,3.5,5,1.9,7.7l-35.5,59.1C1285.2,1681.7,1283.3,1682.7,1281.4,1682.7z M1352.4,1564.4
							c-1,0-2-0.3-2.9-0.8c-2.7-1.6-3.5-5-1.9-7.7l35.5-59.1c1.6-2.7,5-3.5,7.7-1.9c2.7,1.6,3.5,5,1.9,7.7l-35.5,59.1
							C1356.2,1563.4,1354.3,1564.4,1352.4,1564.4z M1423.4,1446.1c-1,0-2-0.3-2.9-0.8c-2.7-1.6-3.5-5-1.9-7.7l35.5-59.1
							c1.6-2.7,5-3.5,7.7-1.9c2.7,1.6,3.5,5,1.9,7.7l-35.5,59.1C1427.2,1445.2,1425.3,1446.1,1423.4,1446.1z M1494.4,1327.8
							c-1,0-2-0.3-2.9-0.8c-2.7-1.6-3.5-5-1.9-7.7l35.5-59.1c1.6-2.7,5-3.5,7.7-1.9c2.7,1.6,3.5,5,1.9,7.7l-35.5,59.1
							C1498.2,1326.9,1496.3,1327.8,1494.4,1327.8z M1565.4,1209.6c-1,0-2-0.3-2.9-0.8c-2.7-1.6-3.5-5-1.9-7.7l35.5-59.1
							c1.6-2.7,5-3.5,7.7-1.9c2.7,1.6,3.5,5,1.9,7.7l-35.5,59.1C1569.2,1208.6,1567.3,1209.6,1565.4,1209.6z M1636.4,1091.3
							c-1,0-2-0.3-2.9-0.8c-2.7-1.6-3.5-5-1.9-7.7l35.5-59.1c1.6-2.7,5-3.5,7.7-1.9c2.7,1.6,3.5,5,1.9,7.7l-35.5,59.1
							C1640.2,1090.3,1638.3,1091.3,1636.4,1091.3z M1707.4,973c-1,0-2-0.3-2.9-0.8c-2.7-1.6-3.5-5-1.9-7.7l35.5-59.1
							c1.6-2.7,5-3.5,7.7-1.9c2.7,1.6,3.5,5,1.9,7.7l-35.5,59.1C1711.2,972.1,1709.4,973,1707.4,973z M1778.5,854.7
							c-1,0-2-0.3-2.9-0.8c-2.7-1.6-3.5-5-1.9-7.7l35.5-59.1c1.6-2.7,5-3.5,7.7-1.9c2.7,1.6,3.5,5,1.9,7.7l-35.5,59.1
							C1782.2,853.8,1780.4,854.7,1778.5,854.7z M1849.5,736.5c-1,0-2-0.3-2.9-0.8c-2.7-1.6-3.5-5-1.9-7.7l35.5-59.1
							c1.6-2.7,5-3.5,7.7-1.9c2.7,1.6,3.5,5,1.9,7.7l-35.5,59.1C1853.2,735.5,1851.4,736.5,1849.5,736.5z M1920.5,618.2
							c-1,0-2-0.3-2.9-0.8c-2.7-1.6-3.5-5-1.9-7.7l35.5-59.1c1.6-2.7,5-3.5,7.7-1.9c2.7,1.6,3.5,5,1.9,7.7l-35.5,59.1
							C1924.2,617.2,1922.4,618.2,1920.5,618.2z"/>
					</g>
					<g>
						<path fill="#BFC8D6" d="M1991.5,499.9c-1,0-2-0.3-2.9-0.8c-2.7-1.6-3.5-5-1.9-7.7l17.3-28.8c1.6-2.7,5-3.5,7.7-1.9
							c2.7,1.6,3.5,5,1.9,7.7l-17.3,28.8C1995.2,498.9,1993.4,499.9,1991.5,499.9z"/>
					</g>
				</g>
				<g>
					<g>
						<path fill="#BFC8D6" d="M205.1,1694.4c-1.8,0-3.5-0.8-4.6-2.4l-19.4-27.4c-1.3-1.8-1.4-4.2-0.2-6.2l17.5-28.7
							c1.6-2.6,5.1-3.5,7.7-1.9c2.6,1.6,3.5,5.1,1.9,7.7l-15.6,25.6l17.3,24.4c1.8,2.5,1.2,6-1.3,7.8
							C207.4,1694,206.3,1694.4,205.1,1694.4z"/>
					</g>
					<g>
						<path fill="#BFC8D6" d="M237.8,1581.5c-1,0-2-0.3-2.9-0.8c-2.6-1.6-3.5-5.1-1.9-7.7l34.6-56.7c1.6-2.6,5.1-3.5,7.7-1.9
							c2.6,1.6,3.5,5.1,1.9,7.7l-34.6,56.7C241.6,1580.5,239.7,1581.5,237.8,1581.5z M307.1,1468c-1,0-2-0.3-2.9-0.8
							c-2.6-1.6-3.5-5.1-1.9-7.7l34.6-56.7c1.6-2.6,5.1-3.5,7.7-1.9c2.6,1.6,3.5,5.1,1.9,7.7l-34.6,56.7
							C310.8,1467.1,308.9,1468,307.1,1468z M376.3,1354.5c-1,0-2-0.3-2.9-0.8c-2.6-1.6-3.5-5.1-1.9-7.7l34.6-56.7
							c1.6-2.6,5.1-3.5,7.7-1.9c2.6,1.6,3.5,5.1,1.9,7.7l-34.6,56.7C380,1353.6,378.2,1354.5,376.3,1354.5z M445.5,1241.1
							c-1,0-2-0.3-2.9-0.8c-2.6-1.6-3.5-5.1-1.9-7.7l34.6-56.7c1.6-2.6,5.1-3.5,7.7-1.9c2.6,1.6,3.5,5.1,1.9,7.7l-34.6,56.7
							C449.2,1240.1,447.4,1241.1,445.5,1241.1z M514.7,1127.6c-1,0-2-0.3-2.9-0.8c-2.6-1.6-3.5-5.1-1.9-7.7l34.6-56.7
							c1.6-2.6,5.1-3.5,7.7-1.9c2.6,1.6,3.5,5.1,1.9,7.7l-34.6,56.7C518.5,1126.7,516.6,1127.6,514.7,1127.6z M584,1014.2
							c-1,0-2-0.3-2.9-0.8c-2.6-1.6-3.5-5.1-1.9-7.7l34.6-56.7c1.6-2.6,5.1-3.5,7.7-1.9c2.6,1.6,3.5,5.1,1.9,7.7l-34.6,56.7
							C587.7,1013.2,585.8,1014.2,584,1014.2z M653.2,900.7c-1,0-2-0.3-2.9-0.8c-2.6-1.6-3.5-5.1-1.9-7.7l34.6-56.7
							c1.6-2.6,5.1-3.5,7.7-1.9c2.6,1.6,3.5,5.1,1.9,7.7L658,898C656.9,899.8,655.1,900.7,653.2,900.7z M722.4,787.2
							c-1,0-2-0.3-2.9-0.8c-2.6-1.6-3.5-5.1-1.9-7.7l34.6-56.7c1.6-2.6,5.1-3.5,7.7-1.9c2.6,1.6,3.5,5.1,1.9,7.7l-34.6,56.7
							C726.1,786.3,724.3,787.2,722.4,787.2z"/>
					</g>
					<g>
						<path fill="#BFC8D6" d="M791.6,673.8c-1,0-2-0.3-2.9-0.8c-2.6-1.6-3.5-5.1-1.9-7.7l17.5-28.7c0.8-1.4,2.2-2.3,3.8-2.6
							l33.2-5.6c3.1-0.5,5.9,1.5,6.5,4.6c0.5,3.1-1.5,5.9-4.6,6.5l-30.6,5.2l-16.2,26.5C795.4,672.8,793.5,673.8,791.6,673.8z"/>
					</g>
					<g>
						<path fill="#BFC8D6" d="M3195.4,1720.2c-2.4,0-4.6-1.5-5.3-3.9l-20.4-62.7c-1-2.9,0.7-6.1,3.6-7.1c2.9-1,6.1,0.7,7.1,3.6
							l20.4,62.7c1,2.9-0.7,6.1-3.6,7.1C3196.6,1720.1,3196,1720.2,3195.4,1720.2z M3154.5,1594.7c-2.4,0-4.6-1.5-5.3-3.9
							l-20.4-62.7c-1-2.9,0.7-6.1,3.6-7.1c2.9-1,6.1,0.7,7.1,3.6l20.4,62.7c1,2.9-0.7,6.1-3.6,7.1
							C3155.7,1594.6,3155.1,1594.7,3154.5,1594.7z M3113.6,1469.2c-2.4,0-4.6-1.5-5.3-3.9l-20.4-62.7c-1-2.9,0.7-6.1,3.6-7.1
							c2.9-1,6.1,0.7,7.1,3.6l20.4,62.7c1,2.9-0.7,6.1-3.6,7.1C3114.8,1469.1,3114.2,1469.2,3113.6,1469.2z M3072.7,1343.7
							c-2.4,0-4.6-1.5-5.3-3.9l-20.4-62.7c-1-2.9,0.7-6.1,3.6-7.1c2.9-1,6.1,0.7,7.1,3.6l20.4,62.7c1,2.9-0.7,6.1-3.6,7.1
							C3073.9,1343.6,3073.3,1343.7,3072.7,1343.7z M3031.8,1218.2c-2.4,0-4.6-1.5-5.3-3.9l-20.4-62.7c-1-2.9,0.7-6.1,3.6-7.1
							c2.9-1,6.1,0.7,7.1,3.6l20.4,62.7c1,2.9-0.7,6.1-3.6,7.1C3033,1218.1,3032.4,1218.2,3031.8,1218.2z M2990.9,1092.7
							c-2.4,0-4.6-1.5-5.3-3.9l-18.3-56.2l-2.4-1.5c-2.6-1.6-3.5-5.1-1.8-7.7c1.6-2.6,5.1-3.5,7.7-1.8l4.2,2.6c1.1,0.7,2,1.8,2.4,3
							l18.9,58.1c1,2.9-0.7,6.1-3.6,7.1C2992.1,1092.6,2991.5,1092.7,2990.9,1092.7z M2911.6,997.4c-1,0-2-0.3-2.9-0.8l-56.2-34.6
							c-2.6-1.6-3.5-5.1-1.8-7.7c1.6-2.6,5.1-3.5,7.7-1.8l56.2,34.6c2.6,1.6,3.5,5.1,1.8,7.7
							C2915.3,996.4,2913.5,997.4,2911.6,997.4z M2799.3,928.1c-1,0-2-0.3-2.9-0.8l-56.2-34.6c-2.6-1.6-3.5-5.1-1.8-7.7
							c1.6-2.6,5.1-3.5,7.7-1.8l56.2,34.6c2.6,1.6,3.5,5.1,1.8,7.7C2803,927.2,2801.2,928.1,2799.3,928.1z M2686.9,858.8
							c-1,0-2-0.3-2.9-0.8l-56.2-34.6c-2.6-1.6-3.5-5.1-1.8-7.7c1.6-2.6,5.1-3.5,7.7-1.8l56.2,34.6c2.6,1.6,3.5,5.1,1.8,7.7
							C2690.6,857.9,2688.8,858.8,2686.9,858.8z M2574.6,789.5c-1,0-2-0.3-2.9-0.8l-56.2-34.6c-2.6-1.6-3.5-5.1-1.8-7.7
							c1.6-2.6,5.1-3.5,7.7-1.8l56.2,34.6c2.6,1.6,3.5,5.1,1.8,7.7C2578.3,788.6,2576.5,789.5,2574.6,789.5z M2462.2,720.3
							c-1,0-2-0.3-2.9-0.8l-56.2-34.6c-2.6-1.6-3.5-5.1-1.8-7.7c1.6-2.6,5.1-3.5,7.7-1.8l56.2,34.6c2.6,1.6,3.5,5.1,1.8,7.7
							C2466,719.3,2464.1,720.3,2462.2,720.3z M2349.9,651c-1,0-2-0.3-2.9-0.8l-56.2-34.6c-2.6-1.6-3.5-5.1-1.8-7.7
							c1.6-2.6,5.1-3.5,7.7-1.8l56.2,34.6c2.6,1.6,3.5,5.1,1.8,7.7C2353.6,650,2351.8,651,2349.9,651z M907.4,628.4
							c-2.7,0-5.1-1.9-5.5-4.7c-0.5-3.1,1.5-5.9,4.6-6.5l65.1-11.1c3-0.5,5.9,1.5,6.5,4.6c0.5,3.1-1.5,5.9-4.6,6.5l-65.1,11.1
							C908,628.3,907.7,628.4,907.4,628.4z M1037.5,606.2c-2.7,0-5.1-1.9-5.5-4.7c-0.5-3.1,1.5-5.9,4.6-6.5l65.1-11.1
							c3.1-0.5,5.9,1.5,6.5,4.6c0.5,3.1-1.5,5.9-4.6,6.5l-65.1,11.1C1038.1,606.2,1037.8,606.2,1037.5,606.2z M1167.6,584.1
							c-2.7,0-5.1-1.9-5.5-4.7c-0.5-3.1,1.5-5.9,4.6-6.5l65.1-11.1c3.1-0.5,5.9,1.5,6.5,4.6c0.5,3.1-1.5,5.9-4.6,6.5l-65.1,11.1
							C1168.3,584.1,1167.9,584.1,1167.6,584.1z M2237.5,581.7c-1,0-2-0.3-2.9-0.8l-56.2-34.6c-2.6-1.6-3.5-5.1-1.8-7.7
							c1.6-2.6,5.1-3.5,7.7-1.8l56.2,34.6c2.6,1.6,3.5,5.1,1.8,7.7C2241.3,580.8,2239.4,581.7,2237.5,581.7z M1297.7,562
							c-2.7,0-5.1-1.9-5.5-4.7c-0.5-3.1,1.5-5.9,4.6-6.5l65.1-11.1c3-0.5,5.9,1.5,6.5,4.6c0.5,3.1-1.5,5.9-4.6,6.5l-65.1,11.1
							C1298.4,562,1298.1,562,1297.7,562z M1427.9,539.9c-2.7,0-5.1-1.9-5.5-4.7c-0.5-3.1,1.5-5.9,4.6-6.5l65.1-11.1
							c3-0.5,5.9,1.5,6.5,4.6c0.5,3.1-1.5,5.9-4.6,6.5l-65.1,11.1C1428.5,539.8,1428.2,539.9,1427.9,539.9z M1558,517.7
							c-2.7,0-5.1-1.9-5.5-4.7c-0.5-3.1,1.5-5.9,4.6-6.5l65.1-11.1c3-0.5,5.9,1.5,6.5,4.6s-1.5,5.9-4.6,6.5l-65.1,11.1
							C1558.6,517.7,1558.3,517.7,1558,517.7z M2125.2,512.4c-1,0-2-0.3-2.9-0.8l-56.2-34.6c-2.6-1.6-3.5-5.1-1.8-7.7
							c1.6-2.6,5.1-3.5,7.7-1.8l56.2,34.6c2.6,1.6,3.5,5.1,1.8,7.7C2128.9,511.5,2127.1,512.4,2125.2,512.4z M1688.1,495.6
							c-2.7,0-5.1-1.9-5.5-4.7c-0.5-3.1,1.5-5.9,4.6-6.5l65.1-11.1c3.1-0.5,6,1.5,6.5,4.6c0.5,3.1-1.5,5.9-4.6,6.5l-65.1,11.1
							C1688.7,495.6,1688.4,495.6,1688.1,495.6z M1818.2,473.5c-2.7,0-5.1-1.9-5.5-4.7c-0.5-3.1,1.5-5.9,4.6-6.5l65.1-11.1
							c3.1-0.5,6,1.5,6.5,4.6c0.5,3.1-1.5,5.9-4.6,6.5l-65.1,11.1C1818.9,473.4,1818.5,473.5,1818.2,473.5z M1948.4,451.3
							c-2.7,0-5.1-1.9-5.5-4.7c-0.5-3.1,1.5-5.9,4.6-6.5l61-10.4c1.4-0.2,2.7,0,3.9,0.8l3.5,2.2c2.6,1.6,3.5,5.1,1.8,7.7
							c-1.6,2.6-5.1,3.5-7.7,1.8l-1.7-1.1l-58.9,10C1949,451.3,1948.7,451.3,1948.4,451.3z"/>
					</g>
					<g>
						<path fill="#BFC8D6" d="M3208.8,1843.7c-1,0-2-0.3-2.9-0.8c-2.6-1.6-3.5-5.1-1.9-7.7l16.1-26.6l-9.6-29.5
							c-1-2.9,0.7-6.1,3.6-7.1c2.9-1,6.1,0.7,7.1,3.6l10.4,32c0.5,1.6,0.3,3.2-0.5,4.6l-17.4,28.8
							C3212.6,1842.7,3210.7,1843.7,3208.8,1843.7z"/>
					</g>
					<g>
						<path fill="#BFC8D6" d="M1566.4,3134.7c-2.4,0-4.6-1.5-5.3-3.9c-0.9-3,0.7-6.1,3.7-7l62.7-19.7c3-0.9,6.1,0.7,7,3.7
							c0.9,3-0.7,6.1-3.7,7l-62.7,19.7C1567.5,3134.6,1567,3134.7,1566.4,3134.7z M1691.8,3095.4c-2.4,0-4.6-1.5-5.3-3.9
							c-0.9-3,0.7-6.1,3.7-7l62.7-19.7c3-0.9,6.1,0.7,7,3.7c0.9,3-0.7,6.1-3.7,7l-62.7,19.7
							C1692.9,3095.3,1692.3,3095.4,1691.8,3095.4z M1817.1,3056c-2.4,0-4.6-1.5-5.3-3.9c-0.9-3,0.7-6.1,3.7-7l62.7-19.7
							c3-0.9,6.1,0.7,7,3.7c0.9,3-0.7,6.1-3.7,7l-62.7,19.7C1818.2,3056,1817.7,3056,1817.1,3056z M1942.4,3016.7
							c-2.4,0-4.6-1.5-5.3-3.9c-0.9-3,0.7-6.1,3.7-7l62.7-19.7c3-0.9,6.1,0.7,7,3.7c0.9,3-0.7,6.1-3.7,7l-62.7,19.7
							C1943.6,3016.6,1943,3016.7,1942.4,3016.7z M2067.8,2977.4c-2.4,0-4.6-1.5-5.3-3.9c-0.9-3,0.7-6.1,3.7-7l62.7-19.7
							c3-0.9,6.1,0.7,7,3.7c0.9,3-0.7,6.1-3.7,7l-62.7,19.7C2068.9,2977.3,2068.3,2977.4,2067.8,2977.4z M2193.1,2938
							c-2.4,0-4.6-1.5-5.3-3.9c-0.9-3,0.7-6.1,3.7-7l62.7-19.7c3-0.9,6.1,0.7,7,3.7c0.9,3-0.7,6.1-3.7,7l-62.7,19.7
							C2194.2,2938,2193.7,2938,2193.1,2938z M2318.5,2898.7c-2.4,0-4.6-1.5-5.3-3.9c-0.9-3,0.7-6.1,3.7-7l62.7-19.7
							c3-0.9,6.1,0.7,7,3.7c0.9,3-0.7,6.1-3.7,7l-62.7,19.7C2319.6,2898.6,2319,2898.7,2318.5,2898.7z M2443.8,2859.4
							c-2.4,0-4.6-1.5-5.3-3.9c-0.9-3,0.7-6.1,3.7-7l62.7-19.7c3-0.9,6.1,0.7,7,3.7c0.9,3-0.7,6.1-3.7,7l-62.7,19.7
							C2444.9,2859.3,2444.4,2859.4,2443.8,2859.4z M2569.1,2820c-2.4,0-4.6-1.5-5.3-3.9c-0.9-3,0.7-6.1,3.7-7l58.1-18.2l0.3-0.5
							c1.6-2.6,5.1-3.5,7.7-1.9c2.6,1.6,3.5,5.1,1.9,7.7l-1.4,2.3c-0.7,1.2-1.8,2-3.1,2.4l-60.1,18.9
							C2570.3,2820,2569.7,2820,2569.1,2820z M2664.6,2742.7c-1,0-2-0.3-2.9-0.8c-2.6-1.6-3.5-5.1-1.9-7.7l34-56.2
							c1.6-2.7,5.1-3.5,7.7-1.9c2.6,1.6,3.5,5.1,1.9,7.7l-34,56.2C2668.4,2741.7,2666.5,2742.7,2664.6,2742.7z M2732.7,2630.3
							c-1,0-2-0.3-2.9-0.8c-2.6-1.6-3.5-5-1.9-7.7l34-56.2c1.6-2.7,5.1-3.5,7.7-1.9c2.6,1.6,3.5,5,1.9,7.7l-34,56.2
							C2736.4,2629.4,2734.6,2630.3,2732.7,2630.3z M2800.7,2517.9c-1,0-2-0.3-2.9-0.8c-2.6-1.6-3.5-5.1-1.9-7.7l34-56.2
							c1.6-2.7,5-3.5,7.7-1.9c2.6,1.6,3.5,5.1,1.9,7.7l-34,56.2C2804.5,2517,2802.6,2517.9,2800.7,2517.9z M2868.7,2405.6
							c-1,0-2-0.3-2.9-0.8c-2.6-1.6-3.5-5-1.9-7.7l34-56.2c1.6-2.7,5-3.5,7.7-1.9c2.6,1.6,3.5,5,1.9,7.7l-34,56.2
							C2872.5,2404.6,2870.6,2405.6,2868.7,2405.6z M2936.8,2293.2c-1,0-2-0.3-2.9-0.8c-2.6-1.6-3.5-5.1-1.9-7.7l34-56.2
							c1.6-2.7,5.1-3.5,7.7-1.9c2.6,1.6,3.5,5.1,1.9,7.7l-34,56.2C2940.5,2292.2,2938.6,2293.2,2936.8,2293.2z M3004.8,2180.8
							c-1,0-2-0.3-2.9-0.8c-2.6-1.6-3.5-5.1-1.9-7.7l34-56.2c1.6-2.7,5.1-3.5,7.7-1.9c2.6,1.6,3.5,5.1,1.9,7.7l-34,56.2
							C3008.5,2179.8,3006.7,2180.8,3004.8,2180.8z M3072.8,2068.4c-1,0-2-0.3-2.9-0.8c-2.6-1.6-3.5-5.1-1.9-7.7l34-56.2
							c1.6-2.7,5.1-3.5,7.7-1.9c2.6,1.6,3.5,5.1,1.9,7.7l-34,56.2C3076.6,2067.5,3074.7,2068.4,3072.8,2068.4z M3140.8,1956
							c-1,0-2-0.3-2.9-0.8c-2.6-1.6-3.5-5.1-1.9-7.7l34-56.2c1.6-2.7,5.1-3.5,7.7-1.9c2.6,1.6,3.5,5.1,1.9,7.7l-34,56.2
							C3144.6,1955.1,3142.7,1956,3140.8,1956z"/>
					</g>
					<g>
						<path fill="#BFC8D6" d="M1471.7,3164.4c-1.4,0-2.8-0.5-3.8-1.5l-24.5-23.1c-2.3-2.1-2.4-5.7-0.2-7.9c2.1-2.3,5.7-2.4,7.9-0.2
							l22.1,20.8l29-9.1c2.9-0.9,6.1,0.7,7,3.7c0.9,3-0.7,6.1-3.7,7l-32.1,10.1C1472.8,3164.4,1472.2,3164.4,1471.7,3164.4z"/>
					</g>
					<g>
						<path fill="#BFC8D6" d="M1399.1,3096.1c-1.4,0-2.8-0.5-3.8-1.5l-48.1-45.3c-2.3-2.1-2.4-5.7-0.2-7.9c2.1-2.3,5.7-2.4,7.9-0.2
							l48.1,45.3c2.3,2.1,2.4,5.7,0.2,7.9C1402,3095.5,1400.6,3096.1,1399.1,3096.1z M1302.8,3005.5c-1.4,0-2.8-0.5-3.8-1.5
							l-48.1-45.3c-2.3-2.1-2.4-5.7-0.2-7.9c2.1-2.3,5.7-2.4,7.9-0.2l48.1,45.3c2.3,2.1,2.4,5.7,0.2,7.9
							C1305.8,3004.9,1304.3,3005.5,1302.8,3005.5z M1206.6,2914.9c-1.4,0-2.8-0.5-3.8-1.5l-48.1-45.3c-2.3-2.1-2.4-5.7-0.2-7.9
							c2.1-2.3,5.7-2.4,7.9-0.2l48.1,45.3c2.3,2.1,2.4,5.7,0.2,7.9C1209.6,2914.3,1208.1,2914.9,1206.6,2914.9z M1110.4,2824.2
							c-1.4,0-2.8-0.5-3.8-1.5l-48.1-45.3c-2.3-2.1-2.4-5.7-0.2-7.9c2.1-2.3,5.7-2.4,7.9-0.2l48.1,45.3c2.3,2.1,2.4,5.7,0.2,7.9
							C1113.4,2823.7,1111.9,2824.2,1110.4,2824.2z M1014.2,2733.6c-1.4,0-2.8-0.5-3.8-1.5l-48.1-45.3c-2.3-2.1-2.4-5.7-0.2-7.9
							c2.1-2.3,5.7-2.4,7.9-0.2l48.1,45.3c2.3,2.1,2.4,5.7,0.2,7.9C1017.2,2733,1015.7,2733.6,1014.2,2733.6z M918,2643
							c-1.4,0-2.8-0.5-3.8-1.5l-48.1-45.3c-2.3-2.1-2.4-5.7-0.2-7.9c2.1-2.3,5.7-2.4,7.9-0.2l48.1,45.3c2.3,2.1,2.4,5.7,0.2,7.9
							C921,2642.4,919.5,2643,918,2643z M821.8,2552.4c-1.4,0-2.8-0.5-3.8-1.5l-26.7-25.2c-0.3-0.3-0.5-0.5-0.7-0.8l-17-24
							c-1.8-2.5-1.2-6,1.3-7.8c2.5-1.8,6-1.2,7.8,1.3l16.6,23.5l26.3,24.8c2.3,2.1,2.4,5.7,0.2,7.9
							C824.7,2551.8,823.2,2552.4,821.8,2552.4z M739.9,2449.4c-1.8,0-3.5-0.8-4.6-2.4l-38.2-53.9c-1.8-2.5-1.2-6,1.3-7.8
							c2.5-1.8,6-1.2,7.8,1.3l38.2,53.9c1.8,2.5,1.2,6-1.3,7.8C742.1,2449,741,2449.4,739.9,2449.4z M663.5,2341.5
							c-1.8,0-3.5-0.8-4.6-2.4l-38.2-53.9c-1.8-2.5-1.2-6,1.3-7.8c2.5-1.8,6-1.2,7.8,1.3l38.2,53.9c1.8,2.5,1.2,6-1.3,7.8
							C665.7,2341.2,664.6,2341.5,663.5,2341.5z M587.1,2233.6c-1.8,0-3.5-0.8-4.6-2.4l-38.2-53.9c-1.8-2.5-1.2-6,1.3-7.8
							c2.5-1.8,6-1.2,7.8,1.3l38.2,53.9c1.8,2.5,1.2,6-1.3,7.8C589.3,2233.3,588.2,2233.6,587.1,2233.6z M510.7,2125.8
							c-1.8,0-3.5-0.8-4.6-2.4l-38.2-53.9c-1.8-2.5-1.2-6,1.3-7.8c2.5-1.8,6-1.2,7.8,1.3l38.2,53.9c1.8,2.5,1.2,6-1.3,7.8
							C512.9,2125.5,511.8,2125.8,510.7,2125.8z M434.3,2017.9c-1.8,0-3.5-0.8-4.6-2.4l-38.2-53.9c-1.8-2.5-1.2-6,1.3-7.8
							c2.5-1.8,6-1.2,7.8,1.3l38.2,53.9c1.8,2.5,1.2,6-1.3,7.8C436.6,2017.6,435.4,2017.9,434.3,2017.9z M357.9,1910.1
							c-1.8,0-3.5-0.8-4.6-2.4l-38.2-53.9c-1.8-2.5-1.2-6,1.3-7.8c2.5-1.8,6-1.2,7.8,1.3l38.2,53.9c1.8,2.5,1.2,6-1.3,7.8
							C360.2,1909.7,359,1910.1,357.9,1910.1z M281.5,1802.2c-1.8,0-3.5-0.8-4.6-2.4l-38.2-53.9c-1.8-2.5-1.2-6,1.3-7.8
							c2.5-1.8,6-1.2,7.8,1.3l38.2,53.9c1.8,2.5,1.2,6-1.3,7.8C283.8,1801.9,282.7,1802.2,281.5,1802.2z"/>
					</g>
				</g>
				<g>
					<g>
						<path fill="#BFC8D6" d="M2017.6,503.5c-2.5,0-4.7-1.6-5.4-4.1l-8.8-32.5c-0.8-3,0.9-6.1,3.9-6.9c3-0.8,6.1,0.9,6.9,3.9
							l8.8,32.5c0.8,3-0.9,6.1-3.9,6.9C2018.6,503.5,2018.1,503.5,2017.6,503.5z"/>
					</g>
					<g>
						<path fill="#BFC8D6" d="M2609.3,2677.1c-2.5,0-4.7-1.6-5.4-4.1l-17.4-63.9c-0.8-3,0.9-6.1,3.9-6.9c3-0.8,6.1,0.9,6.9,3.9
							l17.4,63.9c0.8,3-0.9,6.1-3.9,6.9C2610.3,2677,2609.8,2677.1,2609.3,2677.1z M2574.5,2549.3c-2.5,0-4.7-1.6-5.4-4.1
							l-17.4-63.9c-0.8-3,0.9-6.1,3.9-6.9c3-0.8,6.1,0.9,6.9,3.9l17.4,63.9c0.8,3-0.9,6.1-3.9,6.9
							C2575.5,2549.2,2575,2549.3,2574.5,2549.3z M2539.7,2421.4c-2.5,0-4.7-1.6-5.4-4.1l-17.4-63.9c-0.8-3,0.9-6.1,3.9-6.9
							c3-0.8,6.1,0.9,6.9,3.9l17.4,63.9c0.8,3-0.9,6.1-3.9,6.9C2540.7,2421.3,2540.2,2421.4,2539.7,2421.4z M2504.9,2293.5
							c-2.5,0-4.7-1.6-5.4-4.1l-17.4-63.9c-0.8-3,0.9-6.1,3.9-6.9c3-0.8,6.1,0.9,6.9,3.9l17.4,63.9c0.8,3-0.9,6.1-3.9,6.9
							C2505.9,2293.5,2505.4,2293.5,2504.9,2293.5z M2470.1,2165.7c-2.5,0-4.7-1.6-5.4-4.1l-17.4-63.9c-0.8-3,0.9-6.1,3.9-6.9
							c3-0.8,6.1,0.9,6.9,3.9l17.4,63.9c0.8,3-0.9,6.1-3.9,6.9C2471.1,2165.6,2470.6,2165.7,2470.1,2165.7z M2435.3,2037.8
							c-2.5,0-4.7-1.6-5.4-4.1l-17.4-63.9c-0.8-3,0.9-6.1,3.9-6.9c3-0.8,6.1,0.9,6.9,3.9l17.4,63.9c0.8,3-0.9,6.1-3.9,6.9
							C2436.3,2037.8,2435.8,2037.8,2435.3,2037.8z M2400.5,1910c-2.5,0-4.7-1.6-5.4-4.1l-17.4-63.9c-0.8-3,0.9-6.1,3.9-6.9
							c3-0.8,6.1,0.9,6.9,3.9l17.4,63.9c0.8,3-0.9,6.1-3.9,6.9C2401.5,1909.9,2401,1910,2400.5,1910z M2365.7,1782.1
							c-2.5,0-4.7-1.6-5.4-4.1l-17.4-63.9c-0.8-3,0.9-6.1,3.9-6.9c3-0.8,6.1,0.9,6.9,3.9l17.4,63.9c0.8,3-0.9,6.1-3.9,6.9
							C2366.7,1782,2366.2,1782.1,2365.7,1782.1z M2330.9,1654.3c-2.5,0-4.7-1.6-5.4-4.1l-17.4-63.9c-0.8-3,0.9-6.1,3.9-6.9
							c3-0.8,6.1,0.9,6.9,3.9l17.4,63.9c0.8,3-0.9,6.1-3.9,6.9C2331.9,1654.2,2331.4,1654.3,2330.9,1654.3z M2296.1,1526.4
							c-2.5,0-4.7-1.6-5.4-4.1l-17.4-63.9c-0.8-3,0.9-6.1,3.9-6.9c3-0.8,6.1,0.9,6.9,3.9l17.4,63.9c0.8,3-0.9,6.1-3.9,6.9
							C2297.1,1526.3,2296.6,1526.4,2296.1,1526.4z M2261.3,1398.5c-2.5,0-4.7-1.6-5.4-4.1l-17.4-63.9c-0.8-3,0.9-6.1,3.9-6.9
							c3-0.8,6.1,0.9,6.9,3.9l17.4,63.9c0.8,3-0.9,6.1-3.9,6.9C2262.3,1398.5,2261.8,1398.5,2261.3,1398.5z M2226.5,1270.7
							c-2.5,0-4.7-1.6-5.4-4.1l-17.4-63.9c-0.8-3,0.9-6.1,3.9-6.9c3-0.8,6.1,0.9,6.9,3.9l17.4,63.9c0.8,3-0.9,6.1-3.9,6.9
							C2227.5,1270.6,2227,1270.7,2226.5,1270.7z M2191.7,1142.8c-2.5,0-4.7-1.6-5.4-4.1l-17.4-63.9c-0.8-3,0.9-6.1,3.9-6.9
							c3-0.8,6.1,0.9,6.9,3.9l17.4,63.9c0.8,3-0.9,6.1-3.9,6.9C2192.7,1142.8,2192.2,1142.8,2191.7,1142.8z M2156.9,1015
							c-2.5,0-4.7-1.6-5.4-4.1l-17.4-63.9c-0.8-3,0.9-6.1,3.9-6.9c3-0.8,6.1,0.9,6.9,3.9l17.4,63.9c0.8,3-0.9,6.1-3.9,6.9
							C2157.8,1014.9,2157.3,1015,2156.9,1015z M2122,887.1c-2.5,0-4.7-1.6-5.4-4.1l-17.4-63.9c-0.8-3,0.9-6.1,3.9-6.9
							c3-0.8,6.1,0.9,6.9,3.9l17.4,63.9c0.8,3-0.9,6.1-3.9,6.9C2123,887,2122.5,887.1,2122,887.1z M2087.2,759.3
							c-2.5,0-4.7-1.6-5.4-4.1l-17.4-63.9c-0.8-3,0.9-6.1,3.9-6.9c3-0.8,6.1,0.9,6.9,3.9l17.4,63.9c0.8,3-0.9,6.1-3.9,6.9
							C2088.2,759.2,2087.7,759.3,2087.2,759.3z M2052.4,631.4c-2.5,0-4.7-1.6-5.4-4.1l-17.4-63.9c-0.8-3,0.9-6.1,3.9-6.9
							c3-0.8,6.1,0.9,6.9,3.9l17.4,63.9c0.8,3-0.9,6.1-3.9,6.9C2053.4,631.3,2052.9,631.4,2052.4,631.4z"/>
					</g>
					<g>
						<path fill="#BFC8D6" d="M2635.6,2773.5c-2.5,0-4.7-1.6-5.4-4.1l-8.8-32.5c-0.8-3,0.9-6.1,3.9-6.9c3-0.8,6.1,0.9,6.9,3.9
							l8.8,32.5c0.8,3-0.9,6.1-3.9,6.9C2636.6,2773.4,2636.1,2773.5,2635.6,2773.5z"/>
					</g>
				</g>
				<g>
					<g>
						<path fill="#BFC8D6" d="M813.4,709.3c-3.1,0-4.5-2.5-4.5-5.6v-33.6c0-3.1,1.4-5.6,4.5-5.6c3.1,0,4.5,2.5,4.5,5.6v33.6
							C817.9,706.8,816.5,709.3,813.4,709.3z"/>
					</g>
					<g>
						<path fill="#BFC8D6" d="M813.4,2424.8c-3.1,0-4.5-2.5-4.5-5.6v-33.6c0-3.1,1.4-5.6,4.5-5.6c3.1,0,4.5,2.5,4.5,5.6v33.6
							C817.9,2422.3,816.5,2424.8,813.4,2424.8z M813.4,2323.9c-3.1,0-4.5-2.5-4.5-5.6V2251c0-3.1,1.4-5.6,4.5-5.6
							c3.1,0,4.5,2.5,4.5,5.6v67.3C817.9,2321.4,816.5,2323.9,813.4,2323.9z M813.4,2189.3c-3.1,0-4.5-2.5-4.5-5.6v-67.3
							c0-3.1,1.4-5.6,4.5-5.6c3.1,0,4.5,2.5,4.5,5.6v67.3C817.9,2186.8,816.5,2189.3,813.4,2189.3z M813.4,2054.8
							c-3.1,0-4.5-2.5-4.5-5.6v-67.3c0-3.1,1.4-5.6,4.5-5.6c3.1,0,4.5,2.5,4.5,5.6v67.3C817.9,2052.3,816.5,2054.8,813.4,2054.8z
							 M813.4,1920.2c-3.1,0-4.5-2.5-4.5-5.6v-67.3c0-3.1,1.4-5.6,4.5-5.6c3.1,0,4.5,2.5,4.5,5.6v67.3
							C817.9,1917.7,816.5,1920.2,813.4,1920.2z M813.4,1785.7c-3.1,0-4.5-2.5-4.5-5.6v-67.3c0-3.1,1.4-5.6,4.5-5.6
							c3.1,0,4.5,2.5,4.5,5.6v67.3C817.9,1783.2,816.5,1785.7,813.4,1785.7z M813.4,1651.1c-3.1,0-4.5-2.5-4.5-5.6v-67.3
							c0-3.1,1.4-5.6,4.5-5.6c3.1,0,4.5,2.5,4.5,5.6v67.3C817.9,1648.6,816.5,1651.1,813.4,1651.1z M813.4,1516.6
							c-3.1,0-4.5-2.5-4.5-5.6v-67.3c0-3.1,1.4-5.6,4.5-5.6c3.1,0,4.5,2.5,4.5,5.6v67.3C817.9,1514.1,816.5,1516.6,813.4,1516.6z
							 M813.4,1382.1c-3.1,0-4.5-2.5-4.5-5.6v-67.3c0-3.1,1.4-5.6,4.5-5.6c3.1,0,4.5,2.5,4.5,5.6v67.3
							C817.9,1379.5,816.5,1382.1,813.4,1382.1z M813.4,1247.5c-3.1,0-4.5-2.5-4.5-5.6v-67.3c0-3.1,1.4-5.6,4.5-5.6
							c3.1,0,4.5,2.5,4.5,5.6v67.3C817.9,1245,816.5,1247.5,813.4,1247.5z M813.4,1113c-3.1,0-4.5-2.5-4.5-5.6v-67.3
							c0-3.1,1.4-5.6,4.5-5.6c3.1,0,4.5,2.5,4.5,5.6v67.3C817.9,1110.5,816.5,1113,813.4,1113z M813.4,978.4c-3.1,0-4.5-2.5-4.5-5.6
							v-67.3c0-3.1,1.4-5.6,4.5-5.6c3.1,0,4.5,2.5,4.5,5.6v67.3C817.9,975.9,816.5,978.4,813.4,978.4z M813.4,843.9
							c-3.1,0-4.5-2.5-4.5-5.6V771c0-3.1,1.4-5.6,4.5-5.6c3.1,0,4.5,2.5,4.5,5.6v67.3C817.9,841.4,816.5,843.9,813.4,843.9z"/>
					</g>
					<g>
						<path fill="#BFC8D6" d="M813.4,2492.1c-3.1,0-4.5-2.5-4.5-5.6v-33.6c0-3.1,1.4-5.6,4.5-5.6c3.1,0,4.5,2.5,4.5,5.6v33.6
							C817.9,2489.5,816.5,2492.1,813.4,2492.1z"/>
					</g>
				</g>
			</g>
			<g>
				<g>
					<linearGradient id="SVGID_1_" gradientUnits="userSpaceOnUse" x1="2556.5273" y1="821.7028" x2="2178.304" y2="1185.2382">
						<stop  offset="0" style="stop-color:#AA80F9"/>
						<stop  offset="0.9964" style="stop-color:#6165D7"/>
					</linearGradient>
					<path fill="url(#SVGID_1_)" d="M1801.9,2521.6c-33.4,1-65.9-7.4-94.1-24.3c-85.9-51.5-212.8-136.5-327-247.8
						c-144.9-141.2-228.1-284.8-246.3-425.8l-0.3-2.2l-3.5-601.5c0-118.9,77.5-215.4,223.1-278.8c120.3-52.4,279.7-78.3,448.1-73.5
						c166.4,4.8,320.5,39.2,434.5,96.4c135.5,68,206.6,163.6,206.6,277l-3.2,574.7l-0.3,2.1c-16.6,135-93.2,274.5-228.6,415.6
						c-108.6,113.2-231.3,202.9-315.5,258.4C1867.5,2510.4,1835.1,2520.6,1801.9,2521.6z"/>
					
						<linearGradient id="SVGID_00000164510110754444009780000010453810912719027603_" gradientUnits="userSpaceOnUse" x1="1432.3866" y1="904.5396" x2="2718.0586" y2="3007.3406">
						<stop  offset="0" style="stop-color:#AA80F9"/>
						<stop  offset="0.9964" style="stop-color:#6165D7"/>
					</linearGradient>
					<path fill="url(#SVGID_00000164510110754444009780000010453810912719027603_)" d="M1834.9,2521.6c-32.9,1-65-7.4-92.9-24.3
						c-84.7-51.5-210-136.5-322.6-247.8c-143-141.2-225.1-284.8-243.1-425.8l-0.3-2.2l-3.5-601.5c0-118.9,76.5-215.4,220.2-278.8
						c118.7-52.4,276-78.3,442.2-73.5c164.2,4.8,316.2,39.2,428.7,96.4c133.7,68,203.9,163.6,203.9,277l-3.2,574.7l-0.3,2.1
						c-16.4,135-92,274.5-225.6,415.6c-107.1,113.2-228.2,202.9-311.3,258.4C1899.6,2510.4,1867.7,2520.6,1834.9,2521.6z"/>
					
						<linearGradient id="SVGID_00000103978860184539818260000004951575491169551245_" gradientUnits="userSpaceOnUse" x1="2114.1289" y1="2101.791" x2="1069.9761" y2="2.2153">
						<stop  offset="0" style="stop-color:#AA80F9"/>
						<stop  offset="0.9964" style="stop-color:#6165D7"/>
					</linearGradient>
					<path fill="url(#SVGID_00000103978860184539818260000004951575491169551245_)" d="M1212.3,1220.4l3.5,598.5
						c39.4,305.4,398.3,552.6,554.5,646.5c44.8,26.9,102,25.3,146.5-3.9c153-100.7,492.2-354.2,528.5-647.8l3.2-573.2
						C2448.5,815.2,1212.3,776.4,1212.3,1220.4z"/>
					
						<linearGradient id="SVGID_00000093868351195715624620000002305339416170800770_" gradientUnits="userSpaceOnUse" x1="1330.7714" y1="1694.4767" x2="2338.9561" y2="1694.4767">
						<stop  offset="3.597000e-03" style="stop-color:#26264F"/>
						<stop  offset="1" style="stop-color:#444B8C"/>
					</linearGradient>
					<path fill="url(#SVGID_00000093868351195715624620000002305339416170800770_)" d="M1843.8,2373.1c-2.9,0.1-7.2-0.4-11.6-3.1
						c-64.4-39-189.1-120.6-297.6-227.2c-117.2-115.1-184.8-227.1-200.3-332.2l-3.4-588.6c0.1-56.5,44.8-104.8,132.5-143.5
						c97.8-43.2,236.7-65.8,380.5-62.4c142.3,3.4,277.2,32,370.6,78.4c82.6,41,124.4,89.4,124.6,143.9l-3.2,568.2
						c-14.5,101.7-77.9,211.4-189.3,326.7c-104.8,108.4-227.1,194.4-291.1,236.2C1851,2372.4,1846.6,2373,1843.8,2373.1z"/>
					
						<linearGradient id="SVGID_00000067203724065625891120000009499848322198435720_" gradientUnits="userSpaceOnUse" x1="1996.7854" y1="2466.3269" x2="1705.6965" y2="879.8867">
						<stop  offset="0" style="stop-color:#AA80F9"/>
						<stop  offset="0.9964" style="stop-color:#6165D7"/>
					</linearGradient>
					<path fill="url(#SVGID_00000067203724065625891120000009499848322198435720_)" d="M1829.1,2332.9
						c-65-40-180.6-117.3-281.4-216.5c-110.2-108.4-173.9-212.5-188.9-308.7l-3.4-585.1c0.1-40.4,37.2-77.4,110-109.7
						c92.7-41,225.4-62.7,363.7-59.6c136.9,3.1,266,30.1,354.6,74c68.9,34.1,103.8,71.3,103.9,110.7l-3.2,566.1
						c-14.1,93.4-74.2,195.5-179.3,304.2C2007.4,2209,1893.8,2290.1,1829.1,2332.9z"/>
				</g>
				<path fill="#FFFFFF" d="M1789.6,1893.3c-20.6,0-39.5-9.9-49.9-26l-161.5-251.2c-14-21.8-6.5-53.4,17.1-71.3
					c24.1-18.2,56.1-15.5,71.2,6.7l118.9,174.4l177.3-333.8c17.2-32.4,59.5-52.8,95.1-45c36.6,8,51.4,42.4,32.5,76.2l-246.5,439.4
					c-10.2,18.2-30.3,29.9-52.1,30.6C1791,1893.3,1790.3,1893.3,1789.6,1893.3z"/>
			</g>
			<g>
				<g>
					<g>
						<g>
							
								<linearGradient id="SVGID_00000168835199042041988280000013257223857765939084_" gradientUnits="userSpaceOnUse" x1="567.8121" y1="671.0156" x2="1046.1483" y2="671.0156">
								<stop  offset="0" style="stop-color:#444B8C"/>
								<stop  offset="0.9964" style="stop-color:#26264F"/>
							</linearGradient>
							<path fill="url(#SVGID_00000168835199042041988280000013257223857765939084_)" d="M966.3,908.3L641,901.9
								c-40.9-0.8-73.7-34.4-73.2-75.1l3.5-320.1c0.4-40.6,33.9-73.3,74.8-73l325.3,2.6c41.7,0.3,75.2,33.9,74.7,75.1l-3.6,324
								C1042.1,876.5,1007.9,909.1,966.3,908.3z"/>
							
								<linearGradient id="SVGID_00000183243402227990723040000014823010957092433087_" gradientUnits="userSpaceOnUse" x1="578.0582" y1="672.9702" x2="1057.3047" y2="672.9702">
								<stop  offset="0" style="stop-color:#AA80F9"/>
								<stop  offset="0.9964" style="stop-color:#6165D7"/>
							</linearGradient>
							<path fill="url(#SVGID_00000183243402227990723040000014823010957092433087_)" d="M977.3,910.5L651.4,904
								c-41-0.8-73.8-34.5-73.4-75.1l3.5-320.4c0.4-40.7,34-73.4,75-73.1l325.9,2.6c41.8,0.3,75.3,34,74.9,75.2l-3.6,324.3
								C1053.3,878.6,1019,911.3,977.3,910.5z"/>
							<path opacity="0.48" fill="#FFFFFF" d="M834.2,758.1c-39.2-53.5,1.3-88.6-40.5-149.1c-49.8-72.1-131.4-56.7-162.6-121
								c-6.8-14.1-9.7-29.1-10-44c-23.3,12.3-39.2,36.5-39.5,64.5l-3.5,320.4c-0.4,40.7,32.4,74.3,73.4,75.1l325.8,6.5
								c33.4,0.7,62-20.2,72.3-49.7C991.3,795.4,889.1,833,834.2,758.1z"/>
						</g>
						<g>
							
								<linearGradient id="SVGID_00000090264652232420121760000008928927292061554615_" gradientUnits="userSpaceOnUse" x1="652.2639" y1="675.5314" x2="966.0756" y2="675.5314">
								<stop  offset="0" style="stop-color:#444B8C"/>
								<stop  offset="0.9964" style="stop-color:#26264F"/>
							</linearGradient>
							<path fill="url(#SVGID_00000090264652232420121760000008928927292061554615_)" d="M915.6,832.2l-216.9-3.9
								c-25.9-0.5-46.7-21.9-46.4-47.8l2.4-215.2c0.3-25.9,21.5-46.7,47.5-46.5L919,521c26.3,0.3,47.4,21.7,47.1,47.8l-2.4,217
								C963.4,811.9,941.8,832.7,915.6,832.2z"/>
							
								<linearGradient id="SVGID_00000177455387369059657020000010988161458719029145_" gradientUnits="userSpaceOnUse" x1="927.1689" y1="972.4005" x2="829.9254" y2="490.9241" gradientTransform="matrix(0.9999 1.100000e-02 -1.100000e-02 0.9999 -46.4068 -32.0924)">
								<stop  offset="3.597120e-03" style="stop-color:#E38DDD"/>
								<stop  offset="1" style="stop-color:#9571F6"/>
							</linearGradient>
							<path fill="url(#SVGID_00000177455387369059657020000010988161458719029145_)" d="M921.9,825.9l-214.1-3.8
								c-25.6-0.5-46.1-21.4-45.9-46.8l2.3-210.9c0.3-25.4,21.3-45.8,46.9-45.5l214.1,2.2c25.9,0.3,46.8,21.2,46.5,46.8l-2.3,212.6
								C969.1,806,947.8,826.4,921.9,825.9z"/>
							<path opacity="0.48" fill="#FFFFFF" d="M834.2,758.1c-39.2-53.5,1.3-88.6-40.5-149.1c-32.7-47.4-79.3-57-116.2-76.3
								c-8.1,8.2-13.1,19.3-13.3,31.7L662,775.3c-0.3,25.4,20.2,46.4,45.9,46.8l214.1,3.8c11.6,0.2,22.2-3.8,30.5-10.5
								C908.8,806.5,864.4,799.3,834.2,758.1z"/>
						</g>
					</g>
				</g>
				<g>
					<g>
						<g>
							
								<linearGradient id="SVGID_00000069376376418852801160000009174348982698896040_" gradientUnits="userSpaceOnUse" x1="2301.3875" y1="2784.2637" x2="2951.1782" y2="2784.2637">
								<stop  offset="0" style="stop-color:#444B8C"/>
								<stop  offset="0.9964" style="stop-color:#26264F"/>
							</linearGradient>
							<path fill="url(#SVGID_00000069376376418852801160000009174348982698896040_)" d="M2842.6,3106.6l-441.8-8.7
								c-55.6-1.1-100.1-46.7-99.5-102l4.8-434.9c0.6-55.2,46.1-99.6,101.7-99.2l441.9,3.5c56.6,0.5,102.1,46.1,101.5,102
								l-4.8,440.1C2945.7,3063.3,2899.3,3107.7,2842.6,3106.6z"/>
							
								<linearGradient id="SVGID_00000157993610748695763860000007477918087967714739_" gradientUnits="userSpaceOnUse" x1="2315.3062" y1="2786.9187" x2="2966.3335" y2="2786.9187">
								<stop  offset="0" style="stop-color:#AA80F9"/>
								<stop  offset="0.9964" style="stop-color:#6165D7"/>
							</linearGradient>
							<path fill="url(#SVGID_00000157993610748695763860000007477918087967714739_)" d="M2857.6,3109.6l-442.6-8.8
								c-55.7-1.1-100.2-46.8-99.6-102.1l4.8-435.3c0.6-55.3,46.2-99.7,101.8-99.3l442.7,3.6c56.7,0.5,102.3,46.2,101.7,102.1
								l-4.8,440.5C2960.9,3066.3,2914.3,3110.7,2857.6,3109.6z"/>
							<path opacity="0.48" fill="#FFFFFF" d="M2663.2,2902.5c-53.3-72.7,1.7-120.4-55-202.5c-67.6-97.9-178.5-77.1-220.9-164.3
								c-9.3-19.2-13.2-39.5-13.6-59.8c-31.6,16.7-53.3,49.6-53.7,87.6l-4.8,435.3c-0.6,55.3,44,101,99.6,102.1l442.6,8.8
								c45.4,0.9,84.3-27.4,98.3-67.5C2876.7,2953.3,2737.9,3004.3,2663.2,2902.5z"/>
						</g>
						<g>
							
								<linearGradient id="SVGID_00000088125800284210369220000007993294378379711922_" gradientUnits="userSpaceOnUse" x1="2416.1101" y1="2790.3982" x2="2842.4043" y2="2790.3982">
								<stop  offset="0" style="stop-color:#444B8C"/>
								<stop  offset="0.9964" style="stop-color:#26264F"/>
							</linearGradient>
							<path fill="url(#SVGID_00000088125800284210369220000007993294378379711922_)" d="M2773.8,3003.2l-294.6-5.3
								c-35.3-0.6-63.5-29.7-63.1-64.9l3.2-292.4c0.4-35.2,29.2-63.5,64.5-63.1l294.6,2.9c35.7,0.4,64.4,29.4,64,64.9l-3.2,294.7
								C2838.8,2975.6,2809.5,3003.9,2773.8,3003.2z"/>
							
								<linearGradient id="SVGID_00000105404151204303541640000017323902608365189012_" gradientUnits="userSpaceOnUse" x1="2793.3613" y1="3165.4856" x2="2661.2617" y2="2511.429" gradientTransform="matrix(0.9999 1.100000e-02 -1.100000e-02 0.9999 -46.4068 -32.0924)">
								<stop  offset="3.597120e-03" style="stop-color:#E38DDD"/>
								<stop  offset="1" style="stop-color:#9571F6"/>
							</linearGradient>
							<path fill="url(#SVGID_00000105404151204303541640000017323902608365189012_)" d="M2782.4,2994.7l-290.8-5.2
								c-34.8-0.6-62.7-29.1-62.3-63.6l3.1-286.5c0.4-34.5,28.9-62.2,63.7-61.8l290.8,3c35.2,0.4,63.5,28.8,63.1,63.6l-3.2,288.8
								C2846.5,2967.7,2817.6,2995.4,2782.4,2994.7z"/>
							<path opacity="0.48" fill="#FFFFFF" d="M2663.2,2902.5c-53.3-72.7,1.7-120.4-55-202.5c-44.5-64.4-107.7-77.4-157.8-103.6
								c-11,11.1-17.8,26.2-18,43l-3.1,286.5c-0.4,34.5,27.5,63,62.3,63.6l290.8,5.2c15.7,0.3,30.2-5.1,41.4-14.3
								C2764.6,2968.3,2704.2,2958.5,2663.2,2902.5z"/>
						</g>
					</g>
				</g>
				<g>
					<g>
						<g>
							
								<linearGradient id="SVGID_00000105413381406321914010000018419194144773952160_" gradientUnits="userSpaceOnUse" x1="2697.9429" y1="1019.852" x2="3222.4897" y2="1019.852">
								<stop  offset="0" style="stop-color:#444B8C"/>
								<stop  offset="0.9964" style="stop-color:#26264F"/>
							</linearGradient>
							<path fill="url(#SVGID_00000105413381406321914010000018419194144773952160_)" d="M3134.9,1280.1l-356.6-7
								c-44.9-0.9-80.8-37.7-80.3-82.3l3.8-351c0.5-44.6,37.2-80.4,82.1-80.1l356.7,2.8c45.7,0.4,82.4,37.2,81.9,82.3l-3.9,355.2
								C3218.1,1245.1,3180.6,1281,3134.9,1280.1z"/>
							
								<linearGradient id="SVGID_00000115477518680752876510000004618599879694035119_" gradientUnits="userSpaceOnUse" x1="2709.179" y1="1021.9954" x2="3234.7241" y2="1021.9954">
								<stop  offset="0" style="stop-color:#AA80F9"/>
								<stop  offset="0.9964" style="stop-color:#6165D7"/>
							</linearGradient>
							<path fill="url(#SVGID_00000115477518680752876510000004618599879694035119_)" d="M3146.9,1282.5l-357.3-7.1
								c-45-0.9-80.9-37.8-80.4-82.4l3.8-351.4c0.5-44.6,37.3-80.5,82.2-80.1l357.4,2.9c45.8,0.4,82.6,37.3,82.1,82.4l-3.9,355.6
								C3230.3,1247.5,3192.7,1283.4,3146.9,1282.5z"/>
							<path opacity="0.48" fill="#FFFFFF" d="M2990,1115.3c-43-58.7,1.4-97.2-44.4-163.5c-54.6-79.1-144.1-62.2-178.3-132.7
								c-7.5-15.5-10.7-31.9-11-48.3c-25.5,13.5-43,40-43.3,70.7l-3.8,351.4c-0.5,44.6,35.5,81.5,80.4,82.4l357.3,7.1
								c36.7,0.7,68-22.1,79.3-54.5C3162.3,1156.3,3050.3,1197.5,2990,1115.3z"/>
						</g>
						<g>
							
								<linearGradient id="SVGID_00000157989774908030554330000012578414829601048970_" gradientUnits="userSpaceOnUse" x1="2790.5532" y1="1024.8041" x2="3134.6816" y2="1024.8041">
								<stop  offset="0" style="stop-color:#444B8C"/>
								<stop  offset="0.9964" style="stop-color:#26264F"/>
							</linearGradient>
							<path fill="url(#SVGID_00000157989774908030554330000012578414829601048970_)" d="M3079.3,1196.6l-237.8-4.3
								c-28.5-0.5-51.2-24-50.9-52.4l2.6-236c0.3-28.4,23.6-51.2,52.1-51l237.8,2.4c28.8,0.3,52,23.7,51.6,52.4l-2.6,237.9
								C3131.8,1174.3,3108.1,1197.1,3079.3,1196.6z"/>
							
								<linearGradient id="SVGID_00000157986371067545859320000007167256216333803953_" gradientUnits="userSpaceOnUse" x1="3090.5798" y1="1324.4659" x2="2983.9419" y2="796.4756" gradientTransform="matrix(0.9999 1.100000e-02 -1.100000e-02 0.9999 -46.4068 -32.0924)">
								<stop  offset="3.597120e-03" style="stop-color:#E38DDD"/>
								<stop  offset="1" style="stop-color:#9571F6"/>
							</linearGradient>
							<path fill="url(#SVGID_00000157986371067545859320000007167256216333803953_)" d="M3086.2,1189.7l-234.7-4.2
								c-28.1-0.5-50.6-23.5-50.3-51.3l2.5-231.3c0.3-27.9,23.3-50.2,51.4-49.9l234.8,2.4c28.4,0.3,51.3,23.3,51,51.4l-2.6,233.1
								C3138,1167.9,3114.7,1190.3,3086.2,1189.7z"/>
							<path opacity="0.48" fill="#FFFFFF" d="M2990,1115.3c-43-58.7,1.4-97.2-44.4-163.5c-35.9-52-86.9-62.5-127.4-83.7
								c-8.9,9-14.4,21.2-14.5,34.7l-2.5,231.3c-0.3,27.9,22.2,50.8,50.3,51.3l234.7,4.2c12.7,0.2,24.4-4.1,33.4-11.5
								C3071.9,1168.4,3023.1,1160.5,2990,1115.3z"/>
						</g>
					</g>
				</g>
				<g>
					<g>
						<g>
							
								<linearGradient id="SVGID_00000011721374494561767180000018140978899688419737_" gradientUnits="userSpaceOnUse" x1="1852.2051" y1="435.3561" x2="2152.9863" y2="435.3561">
								<stop  offset="0" style="stop-color:#444B8C"/>
								<stop  offset="0.9964" style="stop-color:#26264F"/>
							</linearGradient>
							<path fill="url(#SVGID_00000011721374494561767180000018140978899688419737_)" d="M2102.7,584.6l-204.5-4
								c-25.7-0.5-46.3-21.6-46-47.2l2.2-201.3c0.3-25.6,21.3-46.1,47.1-45.9l204.5,1.6c26.2,0.2,47.3,21.3,47,47.2l-2.2,203.7
								C2150.5,564.5,2129,585.1,2102.7,584.6z"/>
							
								<linearGradient id="SVGID_00000163047086087432567040000000578730883081823627_" gradientUnits="userSpaceOnUse" x1="1858.6479" y1="436.5852" x2="2160.0015" y2="436.5852">
								<stop  offset="0" style="stop-color:#AA80F9"/>
								<stop  offset="0.9964" style="stop-color:#6165D7"/>
							</linearGradient>
							<path fill="url(#SVGID_00000163047086087432567040000000578730883081823627_)" d="M2109.7,586l-204.9-4.1
								c-25.8-0.5-46.4-21.7-46.1-47.2l2.2-201.5c0.3-25.6,21.4-46.2,47.1-45.9l204.9,1.7c26.3,0.2,47.4,21.4,47.1,47.3l-2.2,203.9
								C2157.5,565.9,2135.9,586.5,2109.7,586z"/>
							<path opacity="0.48" fill="#FFFFFF" d="M2019.7,490.1c-24.7-33.7,0.8-55.7-25.4-93.7c-31.3-45.3-82.6-35.7-102.2-76.1
								c-4.3-8.9-6.1-18.3-6.3-27.7c-14.6,7.7-24.7,22.9-24.8,40.5l-2.2,201.5c-0.3,25.6,20.3,46.7,46.1,47.2l204.9,4.1
								c21,0.4,39-12.7,45.5-31.2C2118.5,513.6,2054.2,537.2,2019.7,490.1z"/>
						</g>
						<g>
							
								<linearGradient id="SVGID_00000007430521759705911480000014148001264466542247_" gradientUnits="userSpaceOnUse" x1="1905.309" y1="438.1958" x2="2102.636" y2="438.1958">
								<stop  offset="0" style="stop-color:#444B8C"/>
								<stop  offset="0.9964" style="stop-color:#26264F"/>
							</linearGradient>
							<path fill="url(#SVGID_00000007430521759705911480000014148001264466542247_)" d="M2070.9,536.7l-136.4-2.5
								c-16.3-0.3-29.4-13.7-29.2-30l1.5-135.3c0.2-16.3,13.5-29.4,29.9-29.2L2073,341c16.5,0.2,29.8,13.6,29.6,30l-1.5,136.4
								C2101,523.9,2087.4,537,2070.9,536.7z"/>
							
								<linearGradient id="SVGID_00000112600908709285734400000003787224918186413455_" gradientUnits="userSpaceOnUse" x1="2095.644" y1="620.1436" x2="2034.4965" y2="317.3877" gradientTransform="matrix(0.9999 1.100000e-02 -1.100000e-02 0.9999 -46.4068 -32.0924)">
								<stop  offset="3.597120e-03" style="stop-color:#E38DDD"/>
								<stop  offset="1" style="stop-color:#9571F6"/>
							</linearGradient>
							<path fill="url(#SVGID_00000112600908709285734400000003787224918186413455_)" d="M2074.9,532.8l-134.6-2.4
								c-16.1-0.3-29-13.5-28.8-29.4l1.5-132.6c0.2-16,13.4-28.8,29.5-28.6L2077,341c16.3,0.2,29.4,13.3,29.2,29.4l-1.5,133.7
								C2104.5,520.3,2091.2,533.1,2074.9,532.8z"/>
							<path opacity="0.48" fill="#FFFFFF" d="M2019.7,490.1c-24.7-33.7,0.8-55.7-25.4-93.7c-20.6-29.8-49.9-35.8-73-48
								c-5.1,5.1-8.3,12.1-8.3,19.9l-1.5,132.6c-0.2,16,12.7,29.2,28.8,29.4l134.6,2.4c7.3,0.1,14-2.4,19.2-6.6
								C2066.6,520.5,2038.7,516,2019.7,490.1z"/>
						</g>
					</g>
				</g>
				<g>
					<g>
						<g>
							
								<linearGradient id="SVGID_00000078016849761293354080000008385851283600872841_" gradientUnits="userSpaceOnUse" x1="28.5765" y1="1654.1279" x2="329.3579" y2="1654.1279">
								<stop  offset="0" style="stop-color:#444B8C"/>
								<stop  offset="0.9964" style="stop-color:#26264F"/>
							</linearGradient>
							<path fill="url(#SVGID_00000078016849761293354080000008385851283600872841_)" d="M279.1,1803.3l-204.5-4
								c-25.7-0.5-46.3-21.6-46-47.2l2.2-201.3c0.3-25.6,21.3-46.1,47.1-45.9l204.5,1.6c26.2,0.2,47.3,21.3,47,47.2l-2.2,203.7
								C326.8,1783.3,305.3,1803.9,279.1,1803.3z"/>
							
								<linearGradient id="SVGID_00000122714793011754925890000000896420066701200281_" gradientUnits="userSpaceOnUse" x1="35.0194" y1="1655.3571" x2="336.3731" y2="1655.3571">
								<stop  offset="0" style="stop-color:#AA80F9"/>
								<stop  offset="0.9964" style="stop-color:#6165D7"/>
							</linearGradient>
							<path fill="url(#SVGID_00000122714793011754925890000000896420066701200281_)" d="M286,1804.7l-204.9-4.1
								c-25.8-0.5-46.4-21.7-46.1-47.2l2.2-201.5c0.3-25.6,21.4-46.2,47.1-45.9l204.9,1.7c26.3,0.2,47.4,21.4,47.1,47.3l-2.2,203.9
								C333.8,1784.7,312.3,1805.2,286,1804.7z"/>
							<path opacity="0.48" fill="#FFFFFF" d="M196.1,1708.9c-24.7-33.7,0.8-55.7-25.4-93.7c-31.3-45.3-82.6-35.7-102.2-76.1
								c-4.3-8.9-6.1-18.3-6.3-27.7c-14.6,7.7-24.7,22.9-24.8,40.5L35,1753.4c-0.3,25.6,20.3,46.7,46.1,47.2l204.9,4.1
								c21,0.4,39-12.7,45.5-31.2C294.9,1732.4,230.6,1756,196.1,1708.9z"/>
						</g>
						<g>
							
								<linearGradient id="SVGID_00000013155238644104505790000008865571667371254405_" gradientUnits="userSpaceOnUse" x1="81.6804" y1="1656.9675" x2="279.0076" y2="1656.9675">
								<stop  offset="0" style="stop-color:#444B8C"/>
								<stop  offset="0.9964" style="stop-color:#26264F"/>
							</linearGradient>
							<path fill="url(#SVGID_00000013155238644104505790000008865571667371254405_)" d="M247.2,1755.5l-136.4-2.5
								c-16.3-0.3-29.4-13.7-29.2-30l1.5-135.3c0.2-16.3,13.5-29.4,29.9-29.2l136.4,1.4c16.5,0.2,29.8,13.6,29.6,30l-1.5,136.4
								C277.3,1742.7,263.8,1755.8,247.2,1755.5z"/>
							
								<linearGradient id="SVGID_00000172423041514643158110000014690896450126985606_" gradientUnits="userSpaceOnUse" x1="285.4613" y1="1858.9512" x2="224.3139" y2="1556.1953" gradientTransform="matrix(0.9999 1.100000e-02 -1.100000e-02 0.9999 -46.4068 -32.0924)">
								<stop  offset="3.597120e-03" style="stop-color:#E38DDD"/>
								<stop  offset="1" style="stop-color:#9571F6"/>
							</linearGradient>
							<path fill="url(#SVGID_00000172423041514643158110000014690896450126985606_)" d="M251.2,1751.5l-134.6-2.4
								c-16.1-0.3-29-13.5-28.8-29.4l1.5-132.6c0.2-16,13.4-28.8,29.5-28.6l134.6,1.4c16.3,0.2,29.4,13.3,29.2,29.4l-1.5,133.7
								C280.9,1739,267.5,1751.8,251.2,1751.5z"/>
							<path opacity="0.48" fill="#FFFFFF" d="M196.1,1708.9c-24.7-33.7,0.8-55.7-25.4-93.7c-20.6-29.8-49.9-35.8-73-48
								c-5.1,5.1-8.3,12.1-8.3,19.9l-1.5,132.6c-0.2,16,12.7,29.2,28.8,29.4l134.6,2.4c7.3,0.1,14-2.4,19.2-6.6
								C243,1739.3,215.1,1734.8,196.1,1708.9z"/>
						</g>
					</g>
				</g>
				<g>
					<g>
						<g>
							
								<linearGradient id="SVGID_00000140715042661854131290000014267062134450766761_" gradientUnits="userSpaceOnUse" x1="1321.0546" y1="3129.3201" x2="1689.0931" y2="3129.3201">
								<stop  offset="0" style="stop-color:#444B8C"/>
								<stop  offset="0.9964" style="stop-color:#26264F"/>
							</linearGradient>
							<path fill="url(#SVGID_00000140715042661854131290000014267062134450766761_)" d="M1627.6,3311.9l-250.2-4.9
								c-31.5-0.6-56.7-26.5-56.3-57.7l2.7-246.3c0.3-31.3,26.1-56.4,57.6-56.2l250.3,2c32.1,0.3,57.8,26.1,57.5,57.8l-2.7,249.3
								C1686,3287.4,1659.7,3312.5,1627.6,3311.9z"/>
							
								<linearGradient id="SVGID_00000165233262208994644540000006916441119658839177_" gradientUnits="userSpaceOnUse" x1="1328.938" y1="3130.824" x2="1697.677" y2="3130.824">
								<stop  offset="0" style="stop-color:#AA80F9"/>
								<stop  offset="0.9964" style="stop-color:#6165D7"/>
							</linearGradient>
							<path fill="url(#SVGID_00000165233262208994644540000006916441119658839177_)" d="M1636.1,3313.6l-250.7-5
								c-31.5-0.6-56.8-26.5-56.4-57.8l2.7-246.5c0.3-31.3,26.1-56.5,57.7-56.2l250.7,2c32.1,0.3,57.9,26.1,57.6,57.8l-2.7,249.5
								C1694.6,3289.1,1668.2,3314.2,1636.1,3313.6z"/>
							<path opacity="0.48" fill="#FFFFFF" d="M1526,3196.3c-30.2-41.2,1-68.2-31.1-114.7c-38.3-55.5-101.1-43.7-125.1-93.1
								c-5.3-10.9-7.5-22.4-7.7-33.9c-17.9,9.5-30.2,28.1-30.4,49.6l-2.7,246.5c-0.3,31.3,24.9,57.2,56.4,57.8l250.7,5
								c25.7,0.5,47.7-15.5,55.7-38.2C1646.9,3225,1568.3,3254,1526,3196.3z"/>
						</g>
						<g>
							
								<linearGradient id="SVGID_00000150089979403362073490000011843166910564563125_" gradientUnits="userSpaceOnUse" x1="1386.0328" y1="3132.7944" x2="1627.484" y2="3132.7944">
								<stop  offset="0" style="stop-color:#444B8C"/>
								<stop  offset="0.9964" style="stop-color:#26264F"/>
							</linearGradient>
							<path fill="url(#SVGID_00000150089979403362073490000011843166910564563125_)" d="M1588.6,3253.3l-166.8-3
								c-20-0.4-36-16.8-35.7-36.8l1.8-165.6c0.2-19.9,16.6-35.9,36.5-35.8l166.9,1.7c20.2,0.2,36.5,16.7,36.2,36.8l-1.8,166.9
								C1625.4,3237.7,1608.8,3253.7,1588.6,3253.3z"/>
							
								<linearGradient id="SVGID_00000026136569617479674470000009031688563008373413_" gradientUnits="userSpaceOnUse" x1="1637.0577" y1="3358.7104" x2="1562.2371" y2="2988.2556" gradientTransform="matrix(0.9999 1.100000e-02 -1.100000e-02 0.9999 -46.4068 -32.0924)">
								<stop  offset="3.597120e-03" style="stop-color:#E38DDD"/>
								<stop  offset="1" style="stop-color:#9571F6"/>
							</linearGradient>
							<path fill="url(#SVGID_00000026136569617479674470000009031688563008373413_)" d="M1593.5,3248.5l-164.7-2.9
								c-19.7-0.4-35.5-16.5-35.3-36l1.8-162.3c0.2-19.5,16.4-35.2,36.1-35l164.7,1.7c20,0.2,36,16.3,35.8,36l-1.8,163.6
								C1629.8,3233.2,1613.4,3248.9,1593.5,3248.5z"/>
							<path opacity="0.48" fill="#FFFFFF" d="M1526,3196.3c-30.2-41.2,1-68.2-31.1-114.7c-25.2-36.5-61-43.9-89.4-58.7
								c-6.2,6.3-10.1,14.9-10.2,24.4l-1.8,162.3c-0.2,19.5,15.6,35.7,35.3,36l164.7,2.9c8.9,0.2,17.1-2.9,23.5-8.1
								C1583.4,3233.5,1549.2,3228,1526,3196.3z"/>
						</g>
					</g>
				</g>
				<g>
					<g>
						<g>
							
								<linearGradient id="SVGID_00000183249549112021717150000006128949618566465723_" gradientUnits="userSpaceOnUse" x1="3088.3828" y1="1804.04" x2="3389.1643" y2="1804.04">
								<stop  offset="0" style="stop-color:#444B8C"/>
								<stop  offset="0.9964" style="stop-color:#26264F"/>
							</linearGradient>
							<path fill="url(#SVGID_00000183249549112021717150000006128949618566465723_)" d="M3338.9,1953.3l-204.5-4
								c-25.7-0.5-46.3-21.6-46-47.2l2.2-201.3c0.3-25.6,21.3-46.1,47.1-45.9l204.5,1.6c26.2,0.2,47.3,21.3,47,47.2l-2.2,203.7
								C3386.6,1933.2,3365.1,1953.8,3338.9,1953.3z"/>
							
								<linearGradient id="SVGID_00000029739794431908914700000010063783690864306588_" gradientUnits="userSpaceOnUse" x1="3094.8257" y1="1805.269" x2="3396.1794" y2="1805.269">
								<stop  offset="0" style="stop-color:#AA80F9"/>
								<stop  offset="0.9964" style="stop-color:#6165D7"/>
							</linearGradient>
							<path fill="url(#SVGID_00000029739794431908914700000010063783690864306588_)" d="M3345.8,1954.6l-204.9-4.1
								c-25.8-0.5-46.4-21.7-46.1-47.2l2.2-201.5c0.3-25.6,21.4-46.2,47.1-45.9l204.9,1.7c26.3,0.2,47.4,21.4,47.1,47.3l-2.2,203.9
								C3393.7,1934.6,3372.1,1955.2,3345.8,1954.6z"/>
							<path opacity="0.48" fill="#FFFFFF" d="M3255.9,1858.8c-24.7-33.7,0.8-55.7-25.4-93.7c-31.3-45.3-82.6-35.7-102.2-76.1
								c-4.3-8.9-6.1-18.3-6.3-27.7c-14.6,7.7-24.7,22.9-24.8,40.5l-2.2,201.5c-0.3,25.6,20.3,46.7,46.1,47.2l204.9,4.1
								c21,0.4,39-12.7,45.5-31.2C3354.7,1882.3,3290.4,1905.9,3255.9,1858.8z"/>
						</g>
						<g>
							
								<linearGradient id="SVGID_00000148635714342977971430000009576908345051491234_" gradientUnits="userSpaceOnUse" x1="3141.4868" y1="1806.8795" x2="3338.814" y2="1806.8795">
								<stop  offset="0" style="stop-color:#444B8C"/>
								<stop  offset="0.9964" style="stop-color:#26264F"/>
							</linearGradient>
							<path fill="url(#SVGID_00000148635714342977971430000009576908345051491234_)" d="M3307.1,1905.4l-136.4-2.5
								c-16.3-0.3-29.4-13.7-29.2-30l1.5-135.3c0.2-16.3,13.5-29.4,29.9-29.2l136.4,1.4c16.5,0.2,29.8,13.6,29.6,30l-1.5,136.4
								C3337.1,1892.6,3323.6,1905.7,3307.1,1905.4z"/>
							
								<linearGradient id="SVGID_00000152946317991175178680000010363970720446425270_" gradientUnits="userSpaceOnUse" x1="3346.8525" y1="1975.1997" x2="3285.7051" y2="1672.4437" gradientTransform="matrix(0.9999 1.100000e-02 -1.100000e-02 0.9999 -46.4068 -32.0924)">
								<stop  offset="3.597120e-03" style="stop-color:#E38DDD"/>
								<stop  offset="1" style="stop-color:#9571F6"/>
							</linearGradient>
							<path fill="url(#SVGID_00000152946317991175178680000010363970720446425270_)" d="M3311,1901.5l-134.6-2.4
								c-16.1-0.3-29-13.5-28.8-29.4l1.5-132.6c0.2-16,13.4-28.8,29.5-28.6l134.6,1.4c16.3,0.2,29.4,13.3,29.2,29.4l-1.5,133.7
								C3340.7,1888.9,3327.3,1901.8,3311,1901.5z"/>
							<path opacity="0.48" fill="#FFFFFF" d="M3255.9,1858.8c-24.7-33.7,0.8-55.7-25.4-93.7c-20.6-29.8-49.9-35.8-73-48
								c-5.1,5.1-8.3,12.1-8.3,19.9l-1.5,132.6c-0.2,16,12.7,29.2,28.8,29.4l134.6,2.4c7.3,0.1,14-2.4,19.2-6.6
								C3302.8,1889.2,3274.9,1884.7,3255.9,1858.8z"/>
						</g>
					</g>
				</g>
				<g>
					<g>
						<g>
							
								<linearGradient id="SVGID_00000003808439256576613510000010692537523042099598_" gradientUnits="userSpaceOnUse" x1="532.7471" y1="2474.7002" x2="1057.2941" y2="2474.7002">
								<stop  offset="0" style="stop-color:#444B8C"/>
								<stop  offset="0.9964" style="stop-color:#26264F"/>
							</linearGradient>
							<path fill="url(#SVGID_00000003808439256576613510000010692537523042099598_)" d="M969.7,2734.9l-356.6-7
								c-44.9-0.9-80.8-37.7-80.3-82.3l3.8-351c0.5-44.6,37.2-80.4,82.1-80.1l356.7,2.8c45.7,0.4,82.4,37.2,81.9,82.3l-3.9,355.2
								C1052.9,2700,1015.4,2735.8,969.7,2734.9z"/>
							
								<linearGradient id="SVGID_00000078006338454192733650000001703774266775452803_" gradientUnits="userSpaceOnUse" x1="543.983" y1="2476.8438" x2="1069.5281" y2="2476.8438">
								<stop  offset="0" style="stop-color:#AA80F9"/>
								<stop  offset="0.9964" style="stop-color:#6165D7"/>
							</linearGradient>
							<path fill="url(#SVGID_00000078006338454192733650000001703774266775452803_)" d="M981.7,2737.3l-357.3-7.1
								c-45-0.9-80.9-37.8-80.4-82.4l3.8-351.4c0.5-44.6,37.3-80.5,82.2-80.1l357.4,2.9c45.8,0.4,82.6,37.3,82.1,82.4l-3.9,355.6
								C1065.1,2702.4,1027.5,2738.2,981.7,2737.3z"/>
							<path opacity="0.48" fill="#FFFFFF" d="M824.8,2570.2c-43-58.7,1.4-97.2-44.4-163.5c-54.6-79.1-144.1-62.2-178.3-132.7
								c-7.5-15.5-10.7-31.9-11-48.3c-25.5,13.5-43,40-43.3,70.7l-3.8,351.4c-0.5,44.6,35.5,81.5,80.4,82.4l357.3,7.1
								c36.7,0.7,68-22.1,79.3-54.5C997.1,2611.1,885.1,2652.4,824.8,2570.2z"/>
						</g>
						<g>
							
								<linearGradient id="SVGID_00000088833143791822961070000010111545112356923014_" gradientUnits="userSpaceOnUse" x1="625.3575" y1="2479.6523" x2="969.4856" y2="2479.6523">
								<stop  offset="0" style="stop-color:#444B8C"/>
								<stop  offset="0.9964" style="stop-color:#26264F"/>
							</linearGradient>
							<path fill="url(#SVGID_00000088833143791822961070000010111545112356923014_)" d="M914.1,2651.5l-237.8-4.3
								c-28.5-0.5-51.2-24-50.9-52.4l2.6-236c0.3-28.4,23.6-51.2,52.1-51l237.8,2.4c28.8,0.3,52,23.7,51.6,52.4l-2.6,237.9
								C966.6,2629.2,942.9,2652,914.1,2651.5z"/>
							
								<linearGradient id="SVGID_00000064333158373516977620000014828720207510596016_" gradientUnits="userSpaceOnUse" x1="941.4339" y1="2803.1028" x2="834.7959" y2="2275.1123" gradientTransform="matrix(0.9999 1.100000e-02 -1.100000e-02 0.9999 -46.4068 -32.0924)">
								<stop  offset="3.597120e-03" style="stop-color:#E38DDD"/>
								<stop  offset="1" style="stop-color:#9571F6"/>
							</linearGradient>
							<path fill="url(#SVGID_00000064333158373516977620000014828720207510596016_)" d="M921,2644.6l-234.7-4.2
								c-28.1-0.5-50.6-23.5-50.3-51.3l2.5-231.3c0.3-27.9,23.3-50.2,51.4-49.9l234.8,2.4c28.4,0.3,51.3,23.3,51,51.4l-2.6,233.1
								C972.8,2622.8,949.5,2645.1,921,2644.6z"/>
							<path opacity="0.48" fill="#FFFFFF" d="M824.8,2570.2c-43-58.7,1.4-97.2-44.4-163.5c-35.9-52-86.9-62.5-127.4-83.7
								c-8.9,9-14.4,21.2-14.5,34.7l-2.5,231.3c-0.3,27.9,22.2,50.8,50.3,51.3l234.7,4.2c12.7,0.2,24.4-4.1,33.4-11.5
								C906.7,2623.2,858,2615.3,824.8,2570.2z"/>
						</g>
					</g>
				</g>
			</g>
		</g>
		<g>
			
				<linearGradient id="SVGID_00000056407962507227411810000007044089082806624644_" gradientUnits="userSpaceOnUse" x1="271.2894" y1="3398.3501" x2="294.7325" y2="3820.3303" gradientTransform="matrix(1 0 0 1 2649.1306 0)">
				<stop  offset="0" style="stop-color:#444B8C"/>
				<stop  offset="0.9964" style="stop-color:#26264F"/>
			</linearGradient>
			<path fill="url(#SVGID_00000056407962507227411810000007044089082806624644_)" d="M2979.1,3548.4c0,0,2.9,23.3,1,31.1
				c-2,7.8-69.8,13.5-92.8,10.7c-23-2.7,13.7-26.2,28.4-30.6C2930.3,3555.2,2979.1,3548.4,2979.1,3548.4z"/>
			
				<linearGradient id="SVGID_00000006671610737718311850000008243310701825869702_" gradientUnits="userSpaceOnUse" x1="295.8734" y1="3533.6755" x2="330.9778" y2="3533.6755" gradientTransform="matrix(1 0 0 1 2649.1306 0)">
				<stop  offset="0" style="stop-color:#311944"/>
				<stop  offset="1" style="stop-color:#A03976"/>
			</linearGradient>
			<path fill="url(#SVGID_00000006671610737718311850000008243310701825869702_)" d="M2945,3509.5l7.1,46.8c0,0,18.2,8.2,27,0.1
				l1-49L2945,3509.5z"/>
			
				<linearGradient id="SVGID_00000026143848940267922970000018037453612780727989_" gradientUnits="userSpaceOnUse" x1="695.6034" y1="3374.782" x2="719.0458" y2="3796.7495" gradientTransform="matrix(1 0 0 1 2649.1306 0)">
				<stop  offset="0" style="stop-color:#444B8C"/>
				<stop  offset="0.9964" style="stop-color:#26264F"/>
			</linearGradient>
			<path fill="url(#SVGID_00000026143848940267922970000018037453612780727989_)" d="M3327.3,3507.4c0,0-14.4,10.7-10.6,23.5
				c3.8,12.8,37.4,64,61.3,78.6c23.9,14.5,16.4-15.8,9.5-34.6c-7-18.9-24.8-60.4-31.7-67.4
				C3348.9,3500.4,3327.3,3507.4,3327.3,3507.4z"/>
			
				<linearGradient id="SVGID_00000178922127926342668110000004735058929750556300_" gradientUnits="userSpaceOnUse" x1="652.3234" y1="3512.0295" x2="722.1389" y2="3512.0295" gradientTransform="matrix(1 0 0 1 2649.1306 0)">
				<stop  offset="0" style="stop-color:#311944"/>
				<stop  offset="1" style="stop-color:#A03976"/>
			</linearGradient>
			<path fill="url(#SVGID_00000178922127926342668110000004735058929750556300_)" d="M3301.5,3456c7,19.4,13.6,35.3,18.9,47.1
				c11.6,26,17.9,35.8,25.1,44.2c6.3,7.4,21,23.1,25,20.5c4-2.7-6.8-21.8-27.7-77.8c-3-8.1-12.6-34-12.6-34l0,0H3301.5z"/>
			
				<linearGradient id="SVGID_00000092416197689818692520000004618436644846586763_" gradientUnits="userSpaceOnUse" x1="277.0341" y1="3491.3928" x2="265.3124" y2="3038.1665" gradientTransform="matrix(1 0 0 1 2649.1306 0)">
				<stop  offset="0" style="stop-color:#311944"/>
				<stop  offset="1" style="stop-color:#893976"/>
			</linearGradient>
			<path fill="url(#SVGID_00000092416197689818692520000004618436644846586763_)" d="M2803,2645.7c-5,48.7-9.7,124.4-2.6,216.2
				c9.3,119.6,33.2,195.3,63.2,322.8c18.3,77.9,43,192.7,65.4,336.1c5.2,3,20.4,10.8,40.1,7.9c11-1.6,19.2-6,24.1-9.1
				c58.6-179.2,41.3-290.3,13-359.5c-12.1-29.5-26.7-52.8-34.5-98.1c-10.3-60,2.4-93.5,20.7-232.5c13-99,10.8-114.3,2.1-129.2
				C2959.8,2641.1,2854.1,2642.2,2803,2645.7z"/>
			
				<linearGradient id="SVGID_00000069367104612308352130000000630021349130799783_" gradientUnits="userSpaceOnUse" x1="537.6358" y1="3484.6536" x2="525.9141" y2="3031.4272" gradientTransform="matrix(1 0 0 1 2649.1306 0)">
				<stop  offset="0" style="stop-color:#311944"/>
				<stop  offset="1" style="stop-color:#893976"/>
			</linearGradient>
			<path fill="url(#SVGID_00000069367104612308352130000000630021349130799783_)" d="M3004.8,2666.6c35.9,185.5,71.2,283,97.9,338.1
				c6.6,13.6,28.5,57.4,49.3,120.3c18.4,55.7,26,96.6,30,114.6c12.4,56.9,43,139.9,125.4,248.8c1,0.6,15.1,8.5,28.5,1.5
				c6.8-3.6,10.2-9.3,11.5-12c-10.8-104.1-23.1-191.6-33.9-259.2c-2.3-14.2-12.2-76.1-27.7-158c-6.1-32-15-79-25.7-127.2
				c-13.3-60-33.7-141.7-65.1-239.6C3131.6,2684.8,3068.2,2675.7,3004.8,2666.6z"/>
			
				<linearGradient id="SVGID_00000093871488712994507650000008771946852135947183_" gradientUnits="userSpaceOnUse" x1="697.6169" y1="2350.1516" x2="533.5182" y2="2117.6782" gradientTransform="matrix(1 0 0 1 2649.1306 0)">
				<stop  offset="0" style="stop-color:#444B8C"/>
				<stop  offset="0.9964" style="stop-color:#26264F"/>
			</linearGradient>
			<path fill="url(#SVGID_00000093871488712994507650000008771946852135947183_)" d="M2974.2,1932.7c-20.4-18.8-59.4-40.5-78.9-91
				c-5.9-15.2-26.7-69,4-110.2c18.3-24.4,52.2-41,82-35.2c25.5,5,29.5,22.8,72.9,58.6c16.9,13.9,44,36.3,74.3,48.8
				c51.8,21.3,82.9,1.3,134.9,3.5c63.9,2.8,138,38.5,173.8,90.3c63.4,92-28.5,185.3,41,293c22.8,35.3,34,27.4,87.9,95.7
				c54,68.4,81,102.6,76.2,144.6c-6.7,58.2-69.3,113.8-128.4,117.5c-57.7,3.7-94.3-41.7-123.7-21.8c-20.9,14.1-8.9,41.6-31.1,74.6
				c-28.6,42.6-84.8,51-93.9,52.4c-84.3,12.7-197.9-86.1-246.1-203.2C2932.1,2239.3,3085,2035.1,2974.2,1932.7z"/>
			
				<linearGradient id="SVGID_00000122683660218816232840000002945470728033961101_" gradientUnits="userSpaceOnUse" x1="3567.6118" y1="2280.7322" x2="2683.9468" y2="2793.8284" gradientTransform="matrix(-1 0 0 1 6412.7007 0)">
				<stop  offset="0" style="stop-color:#FFC444"/>
				<stop  offset="0.9964" style="stop-color:#F36F56"/>
			</linearGradient>
			<path fill="url(#SVGID_00000122683660218816232840000002945470728033961101_)" d="M2628.5,1991.3
				c-0.6-58.9,133.3-106,194.5-121.2c95.3-23.6,171.6-8.8,190.1-4.9c118.8,25.2,192.8,96.5,220.7,126.4
				c-22.8,14.9-85.7,60.2-116.9,146.1c-9.7,26.7-38.3,118.2,2.6,203.8c23.6,49.4,65.4,86.4,97.1,114.5
				c47.6,42.2,72.2,48.7,88.2,86.5c17.4,41.2-0.1,61.3,21.4,89.4c23.2,30.3,50.3,16.2,89.6,46.8c40.2,31.4,25.9,57.2,62.5,91.8
				c53.2,50.3,123.7,34,127,56.7c2.8,19.5-47.3,45.9-89.9,56.7c-84.3,21.2-157.9-14.4-179.7-25.4c-60.5-30.4-50.1-50.1-96.3-73.3
				c-77.3-38.8-130.1,4.4-306.2,8.8c-95.3,2.4-143.5,3-170-29.3c-24.1-29.5-11.4-61.8,3-201.1c6.9-66.3,9.4-133,14.5-199.4
				c14.4-188,14.8-204.5,2.1-230.5C2737.1,2040.8,2629,2044.2,2628.5,1991.3z"/>
			<g opacity="0.3">
				
					<linearGradient id="SVGID_00000173122013380829297300000001741881903783579318_" gradientUnits="userSpaceOnUse" x1="520.5244" y1="1857.7098" x2="655.9709" y2="2686.0203" gradientTransform="matrix(1 0 0 1 2649.1306 0)">
					<stop  offset="0" style="stop-color:#FFC444"/>
					<stop  offset="0.9964" style="stop-color:#F36F56"/>
				</linearGradient>
				<path fill="url(#SVGID_00000173122013380829297300000001741881903783579318_)" d="M3478.3,2770.8
					c-36.6-34.7-22.3-60.5-62.5-91.8c-39.3-30.6-66.4-16.5-89.6-46.8c-21.6-28.2-4.1-48.3-21.4-89.4c-16-37.8-40.6-44.3-88.2-86.5
					c-31.7-28.1-73.5-65.2-97.1-114.5c-41-85.6-12.3-177.1-2.6-203.8c31.2-86,94.1-131.3,116.9-146.1c-2.2-2.4-4.8-5.1-7.6-7.9
					c-150.3,20.6-237.9,107.5-248.7,133.2c-25,59.4,14.6,81.3,15.6,252.7c0.5,81.9-8.3,114.3,18.2,148.5
					c30.4,39.1,65.4,27,109.4,78.1c33.8,39.3,28.4,64.2,59.9,80.7c33.9,17.8,55.5-2.9,93.8,5.2c63.9,13.6,77.6,87.3,119.8,127.6
					c31.9,30.5,91,51.8,207.5,28.9c2.7-3.9,4-7.8,3.5-11.3C3601.9,2804.8,3531.4,2821.1,3478.3,2770.8z"/>
			</g>
			
				<linearGradient id="SVGID_00000116953625740636202470000011326897676707915418_" gradientUnits="userSpaceOnUse" x1="492.5063" y1="1862.2924" x2="627.9525" y2="2690.6003" gradientTransform="matrix(1 0 0 1 2649.1306 0)">
				<stop  offset="0" style="stop-color:#FFC444"/>
				<stop  offset="0.9964" style="stop-color:#F36F56"/>
			</linearGradient>
			<path fill="url(#SVGID_00000116953625740636202470000011326897676707915418_)" d="M3023.1,2163.2c-16,33.9,57.4,112.9,139,150.4
				c16.6,7.6,136,62.5,189.2,9.8c44-43.6,15.6-133.8,5.5-166c-49.7-158.1-202.5-238.5-266.5-267.5c-47.8,119.4-19.6,172.7-8.6,189.3
				c11.6,17.4,43.9,53.8,78.1,86c24.1,22.6,39.1,33.6,37.1,37.1c-2.5,4.4-30.8-3.9-140.6-57.3
				C3043.6,2147,3028.5,2151.6,3023.1,2163.2z"/>
			
				<linearGradient id="SVGID_00000015355986447745153880000009183676777876174726_" gradientUnits="userSpaceOnUse" x1="3349.8677" y1="2141.2559" x2="3849.5432" y2="2141.2559" gradientTransform="matrix(-1 0 0 1 6412.7007 0)">
				<stop  offset="0" style="stop-color:#FF9085"/>
				<stop  offset="1" style="stop-color:#FB6FBB"/>
			</linearGradient>
			<path fill="url(#SVGID_00000015355986447745153880000009183676777876174726_)" d="M2563.6,1968.3l53.9,268.3
				c1.7,8.6,8.4,15.4,17,17.2l401.7,86.2c14.4,3.1,27.7-8.6,26.6-23.2l-21.2-272.9c-0.7-9.5-7.4-17.4-16.7-19.7
				c-63.7-15.7-309-74.6-438.4-82.3C2572,1941.1,2560.8,1954.1,2563.6,1968.3z"/>
			
				<linearGradient id="SVGID_00000039102961950217776230000001888261339515826337_" gradientUnits="userSpaceOnUse" x1="-78.6225" y1="2443.6306" x2="-105.9709" y2="2516.5598" gradientTransform="matrix(0.8633 0.5047 -0.5047 0.8633 4329.7402 -259.5109)">
				<stop  offset="0" style="stop-color:#311944"/>
				<stop  offset="1" style="stop-color:#A03976"/>
			</linearGradient>
			<path fill="url(#SVGID_00000039102961950217776230000001888261339515826337_)" d="M2964.3,1772.4c0,0,7.6,60.6,29.9,74.5
				c22.4,13.9,58.5,32,62.5,36.9c4,4.9-138.5,20.2-209.1-15.4l0,0c23.3-4.9,29.6-6.6,29.6-6.6c6.3-1.8,18.1-5.1,29.9-11.8
				c8-4.6,21-13.5,32.9-30.4l-0.3-33.5L2964.3,1772.4z"/>
			
				<linearGradient id="SVGID_00000154409142266062576150000015992326499388782991_" gradientUnits="userSpaceOnUse" x1="-87.9327" y1="2351.3167" x2="-180.3985" y2="2465.9221" gradientTransform="matrix(0.8633 0.5047 -0.5047 0.8633 4329.7402 -259.5109)">
				<stop  offset="0" style="stop-color:#311944"/>
				<stop  offset="1" style="stop-color:#A03976"/>
			</linearGradient>
			<path fill="url(#SVGID_00000154409142266062576150000015992326499388782991_)" d="M2967.7,1793.8c0,0-14.6,20-37.4,11.7
				c-20.5-7.5-8.3-60.3,8-66.4c5.4-2,15.4-1.1,22,3c4.7,2.9,17.2,18.4,10,35.8c5.2-1.5,9.7-0.1,10.9,2.4c1.4,3.2-2.9,7.7-3.9,8.7
				C2973.8,1792.5,2969.6,1793.5,2967.7,1793.8z"/>
			
				<linearGradient id="SVGID_00000134945373210257557400000001887675521006455689_" gradientUnits="userSpaceOnUse" x1="3392.1575" y1="2139.3232" x2="3849.5432" y2="2139.3232" gradientTransform="matrix(-1 0 0 1 6412.7007 0)">
				<stop  offset="0" style="stop-color:#FF9085"/>
				<stop  offset="1" style="stop-color:#FB6FBB"/>
			</linearGradient>
			<path opacity="0.3" fill="url(#SVGID_00000134945373210257557400000001887675521006455689_)" d="M2925.4,2200.3
				c-43.1-12.2-78.9,18-113.3-5.9c-35.2-24.5-12.2-66.3-48.8-107.4c-39.1-44-88.8-22.4-125-62.5c-13.4-14.9-25.5-39.1-25.7-80.5
				c-9.1-0.9-17.8-1.6-26-2.1c-14.4-0.9-25.7,12.2-22.9,26.3l53.9,268.3c1.7,8.6,8.4,15.4,17,17.2l386.1,82.9
				C2993.3,2241.1,2956.9,2209.2,2925.4,2200.3z"/>
			
				<linearGradient id="SVGID_00000018211193485534820550000004550512383763643326_" gradientUnits="userSpaceOnUse" x1="-91.9865" y1="2196.614" x2="-41.1939" y2="1937.4417" gradientTransform="matrix(1 0 0 1 2649.1306 0)">
				<stop  offset="0" style="stop-color:#311944"/>
				<stop  offset="1" style="stop-color:#A03976"/>
			</linearGradient>
			<path fill="url(#SVGID_00000018211193485534820550000004550512383763643326_)" d="M2589.2,2111.1c0,0-25.6-23.7-28.4-51.2
				c-2.8-27.5,16.6-49.5,35.3-55.1c18.7-5.6,28.7,2.7,16.2,29.8C2599.6,2061.6,2579.7,2079.2,2589.2,2111.1z"/>
		</g>
	</g>
</g>
</svg>
